<mxfile host="Electron" agent="Mozilla/5.0 (Macintosh; Intel Mac OS X 10_15_7) AppleWebKit/537.36 (KHTML, like Gecko) draw.io/28.1.2 Chrome/138.0.7204.243 Electron/37.4.0 Safari/537.36" version="28.1.2">
  <diagram name="Page-1" id="VSWI36tBcGyZkIz8Ot-P">
    <mxGraphModel dx="1697" dy="1158" grid="1" gridSize="10" guides="1" tooltips="1" connect="1" arrows="1" fold="1" page="1" pageScale="1" pageWidth="850" pageHeight="1100" math="0" shadow="0">
      <root>
        <mxCell id="0" />
        <mxCell id="1" parent="0" />
        <mxCell id="PF6NJN93TGnALAfmIm8s-3" style="edgeStyle=orthogonalEdgeStyle;rounded=0;orthogonalLoop=1;jettySize=auto;html=1;" parent="1" source="aZDojnLO1apkLfUc8DjM-1" target="aZDojnLO1apkLfUc8DjM-7" edge="1">
          <mxGeometry relative="1" as="geometry" />
        </mxCell>
        <mxCell id="aZDojnLO1apkLfUc8DjM-1" value="backend" style="image;aspect=fixed;html=1;points=[];align=center;fontSize=12;image=data:image/png,iVBORw0KGgoAAAANSUhEUgAAAgAAAAIACAMAAADDpiTIAAAAV1BMVEVMaXEAl4cCl4cCl4kEl4cClYkClYcElYcAj48El4cAlYsCl4kClYcCl4kEl4kEl4kElYkElYkClYkCl4kEl4kClYkCl4kEl4sClYkCl4kEl4kClYkEl4mtLhB+AAAAHHRSTlMAIKHxQO9ggRDBMN/hUL/Rz5GxcH6frz5uXo9O0/0UAAAAAAlwSFlzAAALEwAACxMBAJqcGAAAET1JREFUeNrtndt2qzoMRQ0DMLfkAA0tbfz/33nG7mXvXtI2EANa0tJjn+poMm3JxjhnJOqH6XQ8duH3OB7H0+ND4hhKEv94Go95mB/d8el0JgiYUT48nE7j8RhixPH4dJoeav6qGPEwjXHy/iWa+9O55A8s2vfTfVg5uidCINP5j6dFM/0iCMaJawM5kZyfNkv9h6XB0yMp2F/6T13YMZqnM3OwZ/absHvkIxnYw/sPj6OA7L8ycH96eGBOtkv+dJ8HeXH/yPJgi+X+YxekRj6yW7RynMcgO5qJlcGKa748AETzRA+sMfE/NQEmyED0ZV8XwKI5cS6Ituy7D5BxZFkQIbIxD7DBsuDWeOwCeHTUwHL3n/KgIPIxYy6XLPzGoCaaR+Zz7tR/DKqimTgTmJr6L8wEJyJw5dQ/NUFlEAFDKz8iwPQTgQVzv/L0E4Gf098EE0EETKefCJhPPxH42vYxln4ioLrrdz0CzP2fnr/R9HOP4KXwH4PpaA6283/Kg/U4Gj46ZnHtx6XAv8n/nsl/ic7kiZGJ9v8XT+ZKQstr/4uLwYyPv/G4NySBumO+LywGrVSEychkW5bAiYm2LAHa37YEuPgzLYGSrR/TEqjZ+TXdE5iYWsuNQep/1u5ATf3vG206tLuuBSfqf89I//zTA9eCVvXfPv/bfue1oJppAK/5U0gAIAQl00AB1/zJX+x7x5ZAjADc+vEv/3nGaiDC9I/Y+0/EABDyAjv/GWLvP3VyAAjhidXfTgIQAkA4wi4EQF/6SJ0sAGAXAgno1n8iDYCQQ+4O1aBb/6kTB8BbYwKr+kfdh0kkAoC3FITNf+pEAhBGdn+2FoAsAEJXMv/bCkAYAEAElMCvfSVyAYApB0vgk9+pEwxAyCEISJBP/ieiAYAgoEY++Z862QAAtISg8/9RABIBEN8Sws5/6uQDIJsA7Px/EoBQACQTAJ7/1EEAIJcA8Px/FoBYAKQSgJ7/1KEAIJMA9Px/EYBgACQSAJ//1AEBII8A+Px/FYBoAKQRUMLn3zssAIKonmAJf/NPXqIBIGlfAD//lwTgykACrOQ/v3jYIpCAq0LB3R/eAQIQGhlnhBRc/HlZAOIBkHFKTMPFr5cFIB8ACQQUQa0AAADYnwAN+f9OAAgA7P2+QBYUCwACgNCzAbyWADAA2LMpXKq4+rt12ADs2BTWcfV7gQ7Abg0hHV/++F4AKADs1RDyQbkAYADYpxgsgnYB4ACwRzFY5+oFAATA9sVg2egXABIAYesvzWj58GehBYCNS4E+GBAAFADbLgSVLAB/66FgjWXkAnB2VE4RAOGOC8DITVRlw+ERsJkCgAMg32YZcBeMCAAOgNBtsgAIVgSAB8D3O9tcACyZMjWOiQuA6wWACMDqG4NqOgDXPCyIoxrZAbgyUqcSgJU3BTo9AkiUApAnK+bfB0sCwAQgHFkBRhIAKAAr1oKdLQGgAhBqTgBRBAALQMcJIIoAYAFYaV+wsyYAXABWqQQ0TQBXHqHEHeAKlUCiKP/XbpsCDzH+C4NHRQBcWycZYNzgIYAZPw7yIO8jbwLnBgUADUDkjeF7iwLABiDqxvAhWBSAszJOS6eAZi2PwAcarxnQ2xQAOABXtjuviExT/ltnBoBo60BNPeBZHRL0sUbaFCqsCsCZot1GC2DeT2JpwWtjE2ieAPABiHFxSGJXAAoACLeXgqldAWgA4OZSUNMu8OxFkYYhZxTAv6icPQCOFMDypyFQAUfLAtABwE0KyEwLQAcAN70saFsASgBoKIClk6HN2ocC0AZAQwEsXA1rGfodBbBIAGoAyCmAZW/Mqhl8QQEs6omrGX1DASSmAVikgNS8ABQBsEABCQWgCIAFCqAAVAHQUAC2AZitAApAGQAzFaDrKHBCAOZ2Qj0FoA2AeecCNAlg+eH4YFYBql4GWv6adDCrgI4C0AfADAVkFIBGAIarBz5QABoBuLoaSigAnQCkBptAN70fG2wqwOaVcCYASM01gW57QV4dAOGqn6OhANQCcM3xUE13ArYlAfgQlbEa8MY7cvQBkNuqAVtHAGbXAXcUgGYAfv9JOgpAMwBHSzNAQQDmzwE9BaAbgN5OE6AgAPPrgJoCUA7AL8+FohngQAAWLAP1zACVIwDzl4GKZoCMACxYBvYUgH4AGhMzQEYAvo3awGHQKALQCkBq4CxYRgCWtAJyCsACAN/OAQcKwAYAvfYaIJIA1ALQaa8BEgKw5AdS0wWK9sVMtQAcdJ8FSgjAokXAQAFYAaBTXQQmBODXKBUvAeIJQDEAmeIlQEIAli0CUgrADgCd3i5AQgCW/UxKlgDeEYBlv5OOJUCU76VbAKBR+kZQVAFoBuBLMzChAGwBkKqcAeIKQDUAjcYZILIAVAPwqRmYUADWAMj0HQaKLQDdANzpuxkstgBU3Zn+y6+lYSu4jS0AV2kGoFI31MIRgMVlgIIioHUEYFZoW+4UBGB5GVBTAPYAuNNVBRYEYGakqqrANQSgHIBG1UjXEICmC3MuRaJoDbiKAHR9PfGnhwZ/DZgRgFsWAfB7wdUq+Xd1FS1kLwJSCmCbqLPiP4mLgI4C2CwkbbwftKwBMyAAJFVcXsndUEgCELWyfPuUaEEBbBiCmguNjmoHSwCimm46+oBYAigF/nTYbwUOjkuAG8sANR1thCpQ1DlDr6ARnGIJIBX442UUwHatQInr5zsKYLM4StwN8BTAViFOtvDvBFAAt0WJ3gagACI0AnIKwKoAXgCgAMwK4LkRAPxmeE8BRAAAtw0Q/XVwcwJ4foRwAfBYApC45VIhtwHABCDy1AU0ABRAnFZgSgGYFcBzK7CiAMwKABkACiBWLzinAOwK4E8rkAIwLABcACiAWABgHghrHQUQJQrQRmBBAcQyaUYBGBZA8JjvhVEA8QDwFIBhAYACQAFEiwERAAogXlSIe0EUQEwAKgrAsAAgAaAAbANQUQC2AcgogIjRwF0RRwHEDUcBWBYAHgBgApDfZXEUwIpR5gSAAiAAFAABoAAIAAVAAG4N3glpHICEAjANQEoB2AaAArANAAWwCgAVBWBZAEAAUADGAaAAbANAARgHgAJYCQCQL2T3FMBKAGD8q2D3QeAIoAUBwFMA60SF8b9SAOsBkFEAhgUAAgAFYBwACmDF9kpCARgWwJ9niwIwLAAIACiAFePOuVb6/1hQAOtFJv+yaLD7ILAEgAAABbDqVoCTvhtEAawNgKcA7ArgP/EfD6cAVm4ESv9sHAWwaoj/bmBFAazfYxNepVAAa/++FIBZAbwA8B8FYFUA4fnfrigAqwJ4AUDuddE1BbDFEyb2/04pgE0AEHuZZUIBbFEFim0EeApgm5+4lNumpgA2qbJYAhoVwNtvLLIObCmA9eP1sN0gdZuCAtiiDSAU3gMFsHp0r//8gUsAmwJ4u3izJgAmBfCv0CYAJgUQzm//v8Qy4J4C2K7VKvJgcDueTg+vkVAAK0T+dwDnYCa6AwXwFv922xM7AKyxwwAqgPetlpYA2BPA+xPXAwGwJ4D32+2eANgTQP5uDBkBsCeA9ycuSwJgTgAff4mcAFgTwMdea0UArAkglATAtAC6D+PoCYA1AXw8dF8QAGMC+PTifU0AjAng81sXOQGwJYDPh25TAmBLAOOnoRwIgCkBfL17hwCYEsDXFy8HAmBJAF/fuykIgCUBjF9xJgCGBHDp+r2OANgRwKW7FzwBsCOAS6/engmAHQGMFwaUEQAzArh8Ay8BMCOAy9cvVQTAigC6i2OaTAAwUgDf3b5h4/2gigJ491qwwW5wRQH8vRrGWdwRrCiAvzeDfImcAJgQwPTduFICYEEA39/BmxEACwLovh9ZTgAMCGD6fmgpAdAvgJ9uYT8QAP0C6H4aHAHQL4C7nwY3EADtAvj5OxwFAdAugJ9/gJIAaBfALx/jHQiAbgHk5c/jKwiAbgH89im2kgCoFsDvl3APBECzAH7/Es+ZAGgWwBUn4loCoFcA13yM0xMAvb/NNV/jLQmAXgFc9R2WkQBoFcB1H2NMCIBWAUzXDTQlADoF8FsX0IQCKsMCSK8daksAVJZH9bVDHQmARgFcP/SaAGgUwIxvcVYEQJ8A2hmjPRMAfQIo5gy3JQDaBJDPGm9BALQJYObNGC0B0CWAUFojPioA+D9Hag/5iAAo+DUSe8xHBMCeAPQqoKIAbCugMimA0Sb2kQCwKQCtClgAwB38oAertW8cABr4QWdWu19RACgsQq9XAZVBAdQLAVCpgMqeANKl+VepgMqeAJLFAGhUQGVOALfcj1625gEwLQCN5wIqrgBsnwuoKIBZcbYNAL4Abv5ETmUaAHgB5OWtAGSWAaAA9F0aVJkSQHt7/l2SmwUAXwBFBACUdYMqSwLoYuRfWTeosiSALAoAukrBypAA4nwiT1kpWBkSQBILgNokAPACiPWdbOdcrweA3owA2jIeAIrWgd6MADIXMc7mAIAXwOCixmANAHQB5GVcANT0A70RARxc5LizBQC6AAYXPTpLAKALIPYEoKgZ4E0I4OxWCG8HAHQBDG6V6MwAAC6ANSYANZOANyCAg1spvBEAwAUwuNWiMwEAuADWmgCeJ4HcAgDgAji7FWMyAAC4AHq3agz6AcAWQFuuCwD8G+NeuQBqt3IctAPQKBec9dNBXrUAuvXz78pONQBH6Aow2QAA8FrQa34V8uA2iYNiAKAFkLqNolcLALQA1q4AdbSEvV4B1JvlH/mEoFcrgMltGAedACALYHCbxqQRAGQBdOW2AMB+Y97rFEBeb5x/2H6Q1ymAwm0eoAtBr1IA3u0QmbKfClgAqdslCl0A4ApgdDtFrwkAXAFsXgBAlwJenQDy/fKPWAp4bQLYvgD8QECrBQBYARRu14A7HOCVCWDn/OMR4HUJwLvdo9Dwi6EKIHWOBMQAAFQAo3MkIAYAGZ9/M+0Ar0cAOzaAPseIDUDC/NtxgNdytkFU/oEc4JUIQFj+cZ4ir0MA4vIP4wCvQgAC84+yMeQ1CEBi/lEI8AoEIDP/IM+SxxeA2PxDrAM8vAAE5x/hcfLoAhCdfwAHeHABCM+//CdqwhaA+PyLv082gxZAJT//0neHM2QBpA4iChgASqz8jw4kJJ8TzICmq0/RO0cCogKAde1p4YAi6RAAQBJADpV/58pBPgBIAtj3/R9NDYEMUgAtXv6lFgMZogC60iHGORcNAI4AUgcadSsZABgBTA42ykouACivs+SZQ45eLAAgL7Z3tcOOQphp3/4vkLtOh9Khh7CFwNu/VUHk3zsFIWshgCQA8OlfZsflIH676m9UpdMSmZzf+/mrChlC/nunKAS9M9BkyQlB/2enK8C/Nkf9a5oG2PxjNcDmj/VqQPLqr3Rao26ZXjPF/+VpYGSG1fd+AQ8JsPjbUgIp82z28X+JZGCqrT7+nAfMP/6v8wAl8HmPInO24syK0Ejt/60EuDugv/X3y2KQveGXxZ93VoPzwJ+Nv8QZDm+9HmgLZztsLwVyXzrzkaRMv/GoK6bfeGQV028dgY7pNx5Fy/QTAaafCDD9REBv24fpvwIBtRWB+a6f7aKQ6Z+DgLoDIx3Tb7lBXGXM6PxtIq9lPZgy/YbXg3maMJE37BOlOfjUz7rv1pmg6HAf/pr5s6uBduLDH1EDaKuBngu/2HUhUFEwcOZfZyroW4B5f+KzvyYDk+gl4XBmitafC4ohF/rws+LfKs7SJoO86vnwbyyCScqGUdefuebbJ7J+9xXBMNH7+3YIzv1uLYJ25KMvpTZIu83n/IKPvrD5YCMK2sFnfPClTgiZr/I1n3t/5nMvvz7I/Bgbg67yE597sCnh7Mfq5nZBNfgp41MP7YPC+6GqZj7wVe+njF19ZQuEVxae44MbXv82eF9ktp73/wFm9NNDANs+0QAAAABJRU5ErkJggg==;" parent="1" vertex="1">
          <mxGeometry x="380" y="185" width="70" height="70" as="geometry" />
        </mxCell>
        <mxCell id="aZDojnLO1apkLfUc8DjM-7" value="database" style="shape=image;verticalLabelPosition=bottom;labelBackgroundColor=default;verticalAlign=top;aspect=fixed;imageAspect=0;image=data:image/png,iVBORw0KGgoAAAANSUhEUgAAAgAAAAIACAYAAAD0eNT6AAAAAXNSR0IArs4c6QAAAERlWElmTU0AKgAAAAgAAYdpAAQAAAABAAAAGgAAAAAAA6ABAAMAAAABAAEAAKACAAQAAAABAAACAKADAAQAAAABAAACAAAAAAAL+LWFAABAAElEQVR4Aey9B4Dc1nUufABM3Z3tyy3kklz23imKVO+yZLnIki235CVW7Dj5k9924lh5if3yHPvFKU7+5PnlT9zluFuWZUuWrN6szir2usuyXG7vszsNwPsOhkMOh1sGGMwMsHuvBC4GuOXc7wC455577jlEIgkEBAICAYGAQEAgIBAQCAgEBAICAYGAQEAgIBAQCAgEBAICAYGAQEAgIBAQCAgEBAICAYGAQEAgIBAQCAgEBAICAYGAQEAgIBAQCAgEBAICAYGAQEAgIBAQCAgEBAICAYGAQEAgIBAQCAgEBAICAYGAQEAgIBAQCAgEBAICAYGAQEAgIBAQCAgEBAICAYGAQEAgIBAQCAgEBAICAYGAQEAgIBAQCAgEBAICAYGAQEAgIBAQCAgEBAICAYGAQEAgIBAQCAgEBAICAYGAQEAgIBAQCAgEBAICAYGAQEAgIBAQCAgEBAICAYGAQEAgIBAQCAgEBAICAYGAQEAgIBAQCAgEBAICAYGAQEAgIBAQCAgEBAICAYGAQEAgIBAQCAgEBAICAYGAQEAgIBAQCAgEBAICAYGAQEAgIBAQCAgEBAICAYGAQEAgIBAQCAgEBAICAYGAQEAgIBAQCAgEBAICAYGAQEAgIBAQCAgEBAICAYGAQEAgIBAQCAgEBAICAYGAQEAgIBAQCAgEBAICAYGAQEAgIBAQCAgEBAICAYGAQEAgIBAQCAgEBAICAYGAQEAgIBAQCAgEBAICAYGAQEAgIBAQCAgEBAICAYGAQEAgIBAQCAgEBAICAYGAQEAgIBAQCAgEBAICAYGAQEAgIBAQCAgEBAICAYGAQEAgIBAQCAgEBAICAYGAQEAgIBAQCAgEBAICAYGAQEAgIBAQCAgEBAICAYGAQEAgIBAQCAgEBAICAYGAQEAgIBAQCAgEBAICAYGAQEAgIBAQCAgEBAICAYGAQEAgIBAQCAgEBAICAYGAQEAgIBAQCAgEBAICAYGAQEAgIBAQCAgEBAICAYGAQEAgIBAQCAgEBAICAYGAQEAgIBAQCAgEBAICAYGAQEAgIBAQCAgEBAICAYGAQEAgIBAQCAgEBAICAYGAQEAgIBAQCAgEBAICAYGAFQQkK4VEGYHAVAgsuOfzyMKPl6aQrpIiy7Ik6TKX03HIuoxzSTF+SzpJOvKmnkYdWSRJwR/Ow9nTEv9MZdTOn6d+J7PxL67i4q9kieSVtOtMj058SEYz52lgIlO5uA6uj1tKT6kWkU+SQCf+MS4Z5dILcyHcSeXnivk28pNunCTv4VzBISGlN3PZuW4Uunh5qvwXc15+xnVxeT5S9abqS/2+vNSlV8ar49Ic4/5Cw3goLuB0Hoi0rAYMuGzcOQ8Jdz0FD865abAFT04aZJzf4B+XxXW+lbpmPC18Hde4DP9FBg0nfMv4yRdS1Z2/wLkmSEZNF+6l2rpwIXliXMazz/1NFsisWEZXdFVF28YdTZd0TZM1EILfmk6eIY00H7U+9C8ZVYufAoHcEEg967nVIkpPKwQWv/8B/lZJMik+woGPpQ+fWy8+uH58pEL4KFVgoCjHeQmOIL6dpcgfxMOE/FIQXzMv7gcACn+Lkcf4pvqRx5d84Ix/USfqG/8J5A8h2uL68ppYAAH9OSUP+o++pg9D49WX+upzh1PnqXxG2RLgmxp/Uzcm/csjoKkCk9ZW0JsJtBZJ4pB6ABiT1Hk2tKDzJKEO4rospfMtnqdl8iomo26ye+drZQFjDIchgxjXUoWSf3FdH8V17hRQkNJpSp3HcYv7G0U2/JXGkJd/jwK1MTwLQ7gWxu8hCBv4K8VwHtd0LarqONdlleWL1oe/jMsiCQSSCJh54wRm0wSB5rs/RyomJAHF75dkuRTfpRCGknoMJg34AtXhoahHV+tw1OKowVF1/kBe4gHPiw8MDuIBNP0QzxMAEUkgUAAEoDEwBAoWEPic/6YOFgz6cQzg6Dl/3ou/5/De9kDMaIeSoR1y6IAkyaOapEUSnk7Vo1bR8Z/+E7KJNFMQEB/sac7pJR/4a57Ne2RdCWGWUI3Bez4G+iXo9gIc887/bcBfzOiNWTfP3DHIi5QtAi6eiWfbRZFvEgRcxH/WQLBmwNAc4G83jlM42nCcwHESfTmK70Mn1BDDI1E5EvDo1PLwl3BLpOmIgBAAphFXF97zBYolZAr6VT+WDmuhWF4EiX8turgGx3IczTgqcJyfyeNMpGmFgIsGo2mFu1M6kwP/WThgwWAYx1kch3EcwIThIP/FskSHrsdHJFjvHPn5V3BJpOmAgBAAXM7FJR/4AvcAhnZ6DZjJg/xmHJtwrMMxGwfP7FlN74hk9gM1Vf6p7jui04KICwiY5ddU+ae6f6FhcWIFATZJYNsFXj5gQWAXju3AfDf+dgwlvJFSRRUaAoDh1iQEABdybum9f83mUl6I7A2Y5W/FLP9qdOMaHJjxUxkOxwz4oMXxSQwijmdRXgkU/DcFLxsrtuPYCengJWgIXsc36ISmJ4ahHaBjDwntgCk0i5xZCABFZkC2zS9+/+fZRFhRJL0RZa7CcTMG/mvx8WrGml2uluzZkiHyOQwBMXg5jCEFJqfI/GejQ9YOsGbgadDyDASCE8FgdaS/v4XO/Pr/LzAaojmzCAgBwCxiBcy/7D6o9/3YPhxRysGoDXjB3onm34FjMQ5j0C/yB6CAaIimxkNA8H88VGbONQfxn4UB1gy8juNRHC9jdaBdg5+FI2LrIeBwZhICgAP5sgxOdLCBXk5IhoqfB/x7cEDVb2zHEzxzIM8ESQIBgcAFBNiY8AiOX2ML0s/hqekQzqPHHvrShQzixBkIiMHEGXwwqFgONb8Mz3SqREuwvnYfLr4Xx0ocfiNDFv84aEaQBbUii90ICP7bjai76nMY/9mIkHcUPIfj+9iO/Bp2E4wdfejL7gJ1GlMrBAAHMHf5fZ8nSZY8akJbjXX9D4Ck9+HgvfrsSc+RyWEfGkdiNJ2JEvyfztydum8W+N+HWp+EIdN3UfZVnI8de/jvpm5I5MgrAkIAyCu8k1e+5J7/jgy6Am9ciyEB/Df8+AiOuTgEXwCCk5PhiFZwycksyittgv+W4b0oCGjaq/BlLQQBy1DmXlB8wnLH0HQNizHwR+MRKegrmYcXIDXws2GfY2f8pjspCggEBAICgYkRYEHgN5jr/LuqKDskTYsf/9nfTpxb3MkLAkIAyAus41fKa/yagiBfmlSJB/9ezCL+CDnZYY/Ytz8+ZOKqQEAgML0RaIOh4I+h8/xPTRtrlSSffkx4GiwYx4UAUCCoV2BLn0fSvVGVtqHJP8NxGw6xf38K/FnVygnORoqeMtW+mb+LTuA0JEDwfxoy9fIu8Vu+F8fXoAJ9CD+GjghDwctRysMVoXLOA6jpVa79nS/C7qWHVI3mYvD/G9z7CY734BCDfzpQE5zzwO+EwZ/JcwodE0A1LS8L/k9LtmZ2isV71oR+TdPpO/BwumXBh74gLf7A5zPzid82I+CAeZXNPXJQdUvv+SvS1YRX8vp4tv+XOHj2L9T9aTwSs+g0MGbgqeD/DGR6Wpcn4P8pZPlXXVMfRLjygaMP/a+0EuLUTgTEYGQnmufrWvee+ym28XNUEj9XJ3l8n8L6FjvIXoGjyBoXc/LeBC+nrYhlO6suBC22dsyRlQn+O5ItBSPKNfyHjRTdiN1RyyEAHP3QfX/SEZmzhjr3vlAwpGZKQ+aeiJmCSg79XPXBz1OZT5IGovomTaMvoqpbcPhyqFIULRACmUJG5u8CkSGaKRICmfzO/F0ksmZ6swdgE/B3OsV+gWBDkWMP/f1Mx8PW/gsNgI1wLr3nL0lNxPwRzfN+fDy+hqrZfW/eMZ7oQzXRdRu7PK2qytRGZP52amcn4vNE153aj2LTlcnvzN/Fpm+i9ifi80TXJ6rHodfrMEu9RSKlVNJpf2j1beF75wzS7hPnHEquu8jK++DkLjgsUjubaPk7YexHao0k+z6LWr6EY47F2kwXm+hDNdF10w2IAo5GYCI+T3Td0Z0RxJlGYCI+T3TddAPFLxAACVfCCneZoscOx2/9m06Px0v9R98sPmUup0AIADky8EPf3k/7w1uoRupaiMn+P0Hq/gRevNIcqxXFXYrANJl1uRT94pMt+J83HvBYtRx2AVeMnN7bStHBk9VrbtL7Dr2WtwZnQsVCAMiBywvveYC8p0fIo7dsgSvf/4Oq7sLg78mhStuKig+RbVCaqsgpsy7Bf1Nssy2z4L9tUE5UEfSt0o2SN9RBUuxw3cY7tB5hHDgRVlNeL7JV+pT0OTNDrUwH8YVtLInKbfHT74BU+g0Qej0OxxhVWv0Q8cBR6FSMNgvdx0K3J/hfaMSd1d40538TvrT/JknBP9fj0dDyD/9PZ4HvImqEBsAMs776VaL1m4ie+S39avsZJSZVfQCD/7+himVmqknP67SZmtUPR3qfzJ7b2abT8JwKC6fRaycvpup76r6dbToNz1QfJ/rrNHrt5MVEfc68brHNEsy3rtI1hE9XYzsWX3t/rL1nD9GsWUR9HGZApGwQEAJANiil8jz9NG25/QFSaqs8Qd+s+zD4QyKgptRtK38tPvxWmpoRZdyGp9vodfpD5DY83Uavw/jvlSTpCnyHA+GRru2zl90U7d6MYKq1tURHjjiMVGeS4xiVtTPhSVL14SeeoEBNDT361y0UKvmtx+ev+l1In+yeqsHJdAvaBAICAYHADEAgouv6d2RSv+ibNb9r33/80Qzosj1dFAJAljgq39BpweMf98i+eh782RsFdE0i2YWAXapQu+qxq1+inuwQsItvdtWTHdUil10I2MA3DUFXvq3q8c8lVBqobH2K5s+fT48++qhdJE7LeoQAMAVbIVkix3M0/7avK4GKpfdhLyqr/RunKOaI2za8VI7ohyDCGgKC/9Zwmy6lZiD/o+Dd/1H12N+e2F899NhfL6CwOkYf/L3fmy4stb0fQgCYBNKmv/1T0r7wv6nko59QlFjdB3SS/hnZCzb4F+sFNtOumbyTQH3ZrXzVe1lDDr5QLAzMtGsmrxmo81WvGRqKnbdYGJhp10xeM3jmUG+ESP8XRda+MvdAzcjTi94gKoUn9h/9yEzzMyavEAAmYfXTn9HpH04/RGekPbdjn//XkXX+JNlddIvZXoT9fhMgxC87p2IbROXw0Ul2wDX/Cv6PxyrB//FQyf+1PLz/o/i+fcWjDf9Tv1YWbf/Fl41OwGAw/51xWQvCD8AEDAtdv1W67WWiU9KerRj8/wHZch78Uw/6BE0W8LJzBn/uNL+XTng3802D4P/4j7jg//i45O/qtH//eYvgnyek0EcqRo8pI0d/RFIDPt/XXJM/SF1asxAAJmDchk++ri9d8FdLZElmtf+6CbKZupzvAWYiYiYbeCa6N9H1idpw5/XCzggE/532lAj+T/SeT3TdaRychJ5KTNy+lAgtujO07MNU/cHbJHrllUmyz8xbhX0DnIzx+Sd+y3cfpDXf/D16oeFzdR7F9zVMTd8PsiW+XawPuJNhm4i21AfEDGZOxtjJtE3Eg2JeF/wvJvrFb9s5/Nf3kq7ef134Kzu+/VYtBerraOzgoeID5BAKhCOgFCNGsWz03Iu0ft6ztPfU9qCkBB+ABHk/bhsYmRnIUlXO5L+Ml1nMzObPF77jDfZOoS1ffba7XsF/uxF1V33O4b9Ujw/RvFbPUy9/vOaZob139ElzX3yBevkl/+IX3QVqHqgVAsB5UBe9551UUaJKPb/pUCTPvA9h8P8fuIW1JHen8QazqXpkpUx6nbmWT9VlVz2p+rL9O50GeysYWimTjm2u5VN12VVPqr5s/wr+mxfe07G1i2921YPeLJJI9h9SHnl5ibQjvjNRTfTTHxOdPJlO9ow8n/E2AP/6la/Af4ROfV//lnTyc1/WPfLaLUTy5/E0VEyHJ8LKx8xKmXSsrJbnFz49Wa0nvY6Zfm4FQytl0nG2Wl7wPx1Fe86t8MJKmXRqrZbPI/8laAH+G3nKPrJ/R7d879Urpa/+6afoSz/5STrZM/LcEaFri4n8q4cP0w82w530UCstee9n50iy5/OINLW4mDRx2/wyWH2Rik271fZnWn8nw0nwfzJ0pv89wX/beRySJOUvqufecfCtqn965bFvdUkl1TUZUw7b23R8hTN6CeDeL3yB5i1YQCeqSFY8G/xysPLPDUkRKoBic04MhsXmQHHbF/wvLv7Fbl3wPy8cqMbS7my5Y+Pz3Sd+OBxZfxvR8uVEexBFcIamGS0AHHz5ZTpVGpKO7X5Cqqm74Q5JVv4Gz0H5DH0WHNntmTgTciQjikSU4H+RgHdIs7bzX5KaSVKGlGj5m97yUS36XXgI5BDCbAQ+A1PRZ7pFw/wznyJau5rU9odp2dw/mI/B/wHQUp+ihx88kQqPQCbuVmdCmfWY7Umu5c22J/InEcjEXfB/Zj0ZBeC/B9/6T1bOXn3N4Hd+Tk3veqfU9f3v07e+zo5eZ16akRqAOoT2lZ5/geZce6VcqlwT1IMVn4Jq6D6w/4JAZPXD46RHiF8mt/XDLnpzrSfX8k54DgT/rXNB8N86drmUtAv3KeoplyS5vqJ57QultG+kNeqjL3zuc1QZCNBTzz2XC/muKzvjBIDN69bRpp5e6rzhWinS+qQUbLj9JlgA8IZQx6r+rX7Ip3gJXPGwWu27KzqXJZFWMRD8zxJgh2cT/M8Dg7AUIHt8fVJn4s3TNKrvfPYxfe+5bjr29tt5aMy5Vc44AeCGjg56fUEzefY/J5dW3T2LvCVfwTR5QzYssvoiZlP3ZHly+ZAXi+bJ+jPRPaaVU3p/08+Td4v3b7GwzAWDYtFshUuC/+OjJvg/Pi45XpWh9W3WghWvj7R8vc33/s9IT61bT3T77US/+lWOVbunuOQeUu2jtOzq6+QmKvMkGtbej/Wgf0HNAftqFzUJBAQCAgGBgBsQ0HXte7GBs/9vU6h9ZElFo37fJz6h33H1zAkadGHN2w3MyonG7343ubn+HXdKvtEOKV61ZAHWgT6JOmfM4J+aYZnB0UoZM/Vnk5dpcAId2dDq5DxWMLRSxm4MBP/tQdQKL62UsYfai7Xkk/8YA97jr2i4eXjvEenRllaaSYM/IzxjlgCW/OJh8n7t36jidJvsH6vze6sb/0iS5XuAwYwRgqyoEq2UufjqWjvjFz69XT5P/22tVlHKCoZWyuSKtOB/rgiOX94KL62UGb/17K8WmP+YAMplkdCcZ8617RijGmwJnDsvuTWwqyt7ol2ac0Z4Amysq6MuxUPz3/lOqWaonc403rQOqv/fA88mFYAyH0SX8th1ZBfjozMeSIL/46GS/2uC//nH2MktFJz/knSjUlp5V4Ov7L+09ZuoduE8VY0l6PC+fU6GyRbapv/s96/+is51dpK2eb00MqzIpxMLg5LH9xGgBzFv8lTwB3FycnK6y4NZoZNdbdpVj9n+C/6bRezS/Hbxza56LqVu6l+C/1NjNFkOu/hmVz2T0BqEC/j7g803NPVuf4oqtm+XDn3uAfrJD384SZHpcWvaawDeu3AhBR97lI4uXib17jxAysrb1kL1/57pwb7se1GMj5ldbdpVT/ZoTb+cxcDQrjbtqmf6cTX7HhUDQ7vatKueSdGSpM2KL/Tuaq3uP/YfP62Hli/SFZ/rg8FO2mW+OakKfMrSLsigb1hPB3/2Y2moPyp7S5uDnvK6z8Dw41YXkC5IFAgIBAQCAoHCIKBgXKjyhGY9GR1oHWm+cot+55wmWrlpE729d29hKChCK9N6CeC/P/AA/c+mJppbUSvJvW2SXN24RpKkGTf7L8JzJZoUCAgEBALuQkCS1srB0A362Jjsi2nywq1XUnljo7v6YJLaaa0BaC0poUceeUQa01TZ56mG5X/zx2H8dycwmpH+D0w+GyK7QEAgIBCYSQh4sSPAr5TUPNvbd2o01DxHP9Q/SGd27Ji2GExbAWD10qU0e/tO6ly5VPbGY4q/YdMSrOn8FfaTXQj4M225Og06xoY/BVn7mwZYTccuCP5PR65m36di8R8a4nrZ490VP7vzaDwc1cdOtuqLNmykM0ePZk+8i3JOWwFA3rCBztZXSxXBRkUPxz3+WUveLymeD4E307bPLnrupiRVDP5TQjStMwj+T2v2Ttm5IvLfD1uAqCKVvBBRB+KdpSX6sSd+MyW9bs0wbQfDdzz3LMW7uyX5XKeiB+fN8pRWPoAp5WK3Mmqm012sGcFMx90p/Rf8dwonikNHIfkvkTRLl73PR/qOn9NkWV9dGtLlqioa6u0tTufz2Or0NAK85hr6+d3vpfZ9h+X+c6ckT2n1ZgR+2GwXjvwwilRYBIo4I7iso4L/l0GS9wuC/3mH2NENFJT/ktQo+4O3y3rI29g0X6YPfkCadffdjsbHKnHTUwNw+jRtunabNHomrCj+ilJ/1dxPYO//tVZByixn5WHMVYKdqHxqMNJxovGhnf+ra/hNyWu4zvc5nf+DM8i5whTSwMTsP1ZwY9ytlEvRlmv5VD3ib+4IWOFjrvzLtXzuvZ5RNcAUQPaR4ns62tE6HPZ59MP33avTQiiQn39+WgEx/RwBXXcdUU87hXvCkhSNyIF5a+bB8v+mYnPNykcjnebM8jyc6xjhZVmispIAzaoK0dz6amqorqDy0gD5fUnWRqIJGhmLUP/wKHX0DlH3wDCNjEZpLBqjSCxuNIGnncWBCQco8fFJ54S180z+ma0l1/Lp7Znlp9n86W2J8yQCufIv1/LpfDDLT7P509ty7bkkrVGClRujp4faw8dPS/Jzz0me7j495toOjU/4tBIAUrPcbf/099LRXz2tyPGoUuoLbcHI1jx+9915lWf5PMAvm99A161fQleuWkDNs2sNQSCA64p86cqOqmkUT6gY8BM0GolSeze2tnT10Ym2bjpxNnn0DIwYgoGGvIZAgC9O6qOT+psLWjPyI5ILYHksa5afZvOPR7rg/3ioFOeaWX6azT9er1zI/zJJ8d0gh+qenR3zamVv7tXOPvFLqlq9mvbv3z9eF115bVoJAJ/77GfpY01z6dyBg5LPK0l6RWMpLP+vB2dyCvmbj4fXSp1chj0YrFo4mz546xV00+blVFsZInmKN5QFAsUnU8DnpcpQkGbXVtLmFfONZQHWAgwMjxmCwIGWdtp7oo0On+yg3sERCo/FiJuEksEQCnJ5wqcgMZeq817WCq+mIiofdU7VZjHvC/5fir7g/6V4OPKXrFzrqZo3Wx1safHOaZZuee9detnseUIAcCSzQNSjL71Ez0RHaKyqUfKFE4p31uy5JCtbc6U3Hx8vs3WydsPn9dBd16ylT959PTU31uTaLWNQD/p9xEdjbQVds24xlgbixuDPQsCuo6dp+8GT1NreQ0PhMcO+gJccWENQjFSsj2Y+upuPOovBk0K2KfhfSLSd11ah+Y/v3CKlpHxdV0vvycS5c/LCxQv01jhbVk2fNK2MAGs/8xlqC5ZIFeGoEh8a8vhrl9wOpw73gV2u1nTwgx/we+n+d11Dn77vFqqrLsvbE+j1KLAhCNLCObNo2+pFdNuVK2nr6oU0r6HGWFpgrQDbDzBNhTYkFINm3tjuiooF/13BprwRWQT++9CZzthw/2/D0XB8V8sh7chjv85b/4pR8bQSAHqfeYbqV62S4z2jHk0PhgJVc34f1v9XFANYO9vkB//eGzfRp+67mUqDfjurnrQunukHIXg01VXRFSub6ZYrVtBVaxZRfXU5xWBTwPYEY2xIyMIA8hZHLzBpF8TNDASszKKslMloVvx0CAJWeGmljEO6awMZGEEkejI2dG64LFaihXvO6FRRQRSN2lB38auYPgLAXXcRXbuOqhDzRxru9Xorm+Z4Sir+BANTQ/Fhtk4BG/xtXD6f/vr376Tq8lLrFeVYkgd3P5YgeKlgC4wOb9uyEnTNM7QFo9AIDIcjlFBVQwgo1hJBjl10fHE7PsRWZlFWyjgeTBcSKPhfeKbhW8YxgV+O9p8+Vdo4Sxv0JPTyO95J0d27C09MHlqcNgJAzR13kDYak0r7hpXI6KgvULPgCtnj/z0IADkZADLmdrx4VnjH7YZK/PTnH76VNi6bZ6WKvJRJaQbmY1mA7QZu2rTMWDJQVY36h0aN3QZJpcD00AkUi/+ZzBMDcSYihfkt+F8YnB3aClSuUktsoO0tTY8kxspDWiRUrlPzfKJpEB9gWggAt99yC908OkqtbW3y2GjUq40lfCX1i+7BDoDb7HioivXh1eDM5/r1S+nj77nWMAC0oy9218H6MbYZWI2dCTduWk7rl8LuErsOBkfGjG2FcEF0idGgUz6mZnAoFv+notGNWLqRZsH/qZ7E7O+7kP88ixnQ4pHnYtHRiBoKqYn9u9jbGlF7e/Ydd2hOVxvHpTA9HArRkXIveUdrpMRYWPZW1ZZLkrImdd/Jfyd6IXgGzdb5d169pqDr/rlgxQ6IUn4Jjp/pol+/upeefP0Ane0egBgAp0X4kjr1Y5pLv3MpOxH/s6nTjVi6keZseGE1j+C/VeQKVw6O5FZ5SqrrvOHe/vqIKoXjESqJxeh04UjIW0uXeozJWzP5rbh8bIy8x1qkQASRGzRVUUqqarH9b9VUrfLLV+w00QeRt/01zaqkTQ5S/WeLFdsKsK+CP//wbfQfD3yE7n/31TQHfWG8U86asq0rM5+dPLOzrkw6s/09Ef+zLT/T8tnJMzvrssoHwX9zyNnJs+zrkuoUX+nieCIhRzVSqrddK53as4deeOEFc8Q7MLfrBYAr9u6le558kkpXbJa0aFTWxmKKJ1C6CC9W3VR45/ryZf8ATUXJ5ffZze/KBbMNRz+X33XHFY8i03J4K2RB4N8/+2G696aNxnIBeyY0g1163lx5lo5crnWl05Verzi3F4F0nHPlWTpludaVTld6veLcXgTScc6VZ+mUZV0XvK3LXv+qRDzhiY5Aw9zXaxg37du3L706V567fgmg9D//k0411tOYFpGG9YSs6aoC478VMNwI5ZsjWT9AFgjhtfWl8+odu/ZvpkssCLBG4G/ufxfdit0D3/31q7Tj0CmKY9fAVF4MuZ184mymH5l5nUpXJp1u/+1UnJ1Kl9v5nUm/I3BWlBUl5fUhNT4YHY57JOo/QQM9PZmkuu636wWAtq4uOnHiAMmxGklN6IovVFtCsmcpOOFY7QZLtJM91LwyEcD6Pwf3mU6J4xfciB0DbDD4k2d30E+f2U4dfYPnbQOmx46BbPg1Ff+zqUPkcS8Cgv/u4x1sypYqpeVV+mBfvycqy/W3vEcNlte6ryMZFDt2kMygc8Kf3TDG6MA0UhqJS1Jckz0l5RVw3bB4wgIOuDHZ4G+Qhy9EAOvoDXn0+FdMGGZVlcGd8XX0z596P733uvVUWVZCKpY8crUPKGafzLQ9Jf9NVMaDiUjuQkDw3138MqiVpNkef3lDIqoqo7GEPLb8eklf+24XduRSkl2vAVi0fgtFes9RLNwmKwlNUXzBKsRynntpNyf+VWxpfKL2DZe8CNwzXRP3j6MYrlvSRLuPnKFfvLiLXt/fQt39w4YwgBWQS7YP5guHifDPV3uZ9ebavp2DSSZtM+F3rvjnilGu7Qv+58aBbPFnh0Cyz79AIn2HT5MUdbBfOvXDP9Oll79PBINAtybX+wE499LzpFbVyvpw1Bsdi/mDtfM2Kr7APRg+svKZW+wXaLz2eVLHW+o+fNuVRojfXB8u9iY4Gokhul+EwqMROOqJG+vv7NBHwfp8MZNHUbDUUUXXb1hKV69bRHPgdlgBXRxvIBZXKQGXw7yFkP9PJnu3Eo6Hf6qlQvwtdvuF6KMdbWT7oTbbVrHxL3b7ZvEqVn4H8N+ra9qBaO+ZN+WgN0GlWuIvFs6FPwAg8sorxYIl53ZdrQG4+RvfoK0f/zj96MO/I8V7O2UFWwBlj28BBn923+jqhO2MmAFfGPUs9UWDtf3eo6foqVd30+HWNupDiN9RCAF+2BeUlQSoobaKmupraPG8Rlq5aC41zqo2fA6wYFDoxPYBq7DrgXc+fPi2LXS6o4/2Izzx4ZPn6FhbF7V19tMwhBeOPRCLJ4xdBEymEYHgPLn8pxi0FxorN7fHH3JOZh8xs/mTrYh/nYaAm/kvKcpcKVARjETGxvxDmDn98R+opcEaCjsNZBP0uFoAOPDaa9S6azv1dXRjxAd7vEEfnDawz1xXazZ4INNhIc+zX6uJ19MffXE7/cO3H6a2jp4LAyYPmTydNr7D/A9+lgT8VBEqoaXNs2njysW0bd0yWrlwLlVgbb7QAypTx8IJ7xrgg7cMcgTC/uEwtXX1U3v3oGE42Nk3hLDFYePoHwrTyFiU4sArCgEhCgGBbQqY9qSQwP00RAWcuD/lazY0FTJ2tJvrQG4HDVP10+n3i4WBHe26mf9YWm5SAmUhdXhkIBAjaUW0EpdK9YNOf2Amoc/VAkAwHKam0kppJKbLCU2VlQAWzSWlcZL+uuSWhMA6CYpADW41nevup3//8eN05lzPOGp+HmYvJl4SiPQOEJf57c6D9OAjpbRkfiPdtHUt3XzlWlrY1EB+n/digQKeKXArzMshfHDsgVRKIO4AawJiiQQG/QQNwPUwCwKdsCHo7B0yhAUWGPjow3VeAuH8hiCA7hvCQaoy8TcrBHL9eGfVyBSZnEDDFCRO29tOwL6oNEAAkH2BMkn2KoPxiByYN0uSfKU67XQvy10tAPT/7GfUunEDVUu1MADUZW9pSSl2AMx2LzsuUh7HYDWIWa/V1NbZSx09A/DLz4M9z4QvHfST6+pJfaxxB/cVJZlncCRMb+0/RjsPnqAfPPYiXbl2Gb3j6g20bf1yWOwXLyJhOhbsW8Cj+KiEOGQ3GSGK0+9zYCJeLuBlA14+OHG2m46c7jSWFE519BoCQwyCwwUtQQY+6XU57dxFpOYNOjtmo3kjLs8VC/6zR1FDls8z0hnVS1KFxx+siWiaLI8p8nB/mL735uP02UWLsBX9REZmd/x0tQDgveleKi2rl/wDqqySpkgeXwgf9FnugH4SKjEO82y1b2hkkkyT3/LByl6BgZ3iLyHF4+cFEmOwg2Icbw8sV3CwjYAOTYOuxvETf6E25+UBHhTZEI/T2a4+eviZ1+ipV3ZheWAR3XPrNrp20yqqq0ZMbAcnNm4MBf3G0VhTQVesbDaWE0ZGo9QOwYjtC/YdP0u7j542tAS8hMDrIsluJ5cOHNw9W0krysc0xx6IQTBHANOKC/6ngTHJKb6IfngEbJQJ/mYCPrnMK0mef/wUbd5xTggAk+CWl1vffftt+v1162jV7R+R+sa6JD2iy9imgcFfKstLgwWslIfeWDxOPf1DllttqKum+sY5FD7Xb0Tn46Gd600O68lqU/b/OgsEEAY0CAJaPEZaIgZhgO0PkgF8eFRkFfrLOw/QjgPHac2S+fQ+CAK3bF1H9TWVycpc8C8vJ1RglYiPFc2NdPf1G2BbMEqHWs/R9kOt9Mb+VmqBpmAoHDk/w5g+gsBkH/lCD6aT0eKCx8iVJE6GueB/lixFaHlZ9jZquo75hUcuI6/0s7JGGq4YzbIC52VzrbFc4rrr6K6f/4BOPvKsEu4f9GnxhN9fPXuj4g3ciQErqRd2Ht5ZUxSNRmjF/Hq6Cmp3K4nX7I+c6aYDre1JT3uTVGKowTE4ylCpKz4/jgCcKXqTwgILB4ZWAK4V8aVIJDQ629lDr+w6bAgDfG0OdhKw50K3JV4eKQ34aH5jDW1dtZBu27KCNq1ohnajzDA8ZK0A2xhwYozcnJxEvpNocTNPzdDuJMydRIsZDJEXk3/1YKzv7OvkodioV0u8OtivnewbIO3oUZNVOSO7awWAze98J31qwxX0wx/8lxwNJ/xqPBIIVDddDRXNzQajnIGvZSq0RJxmVQTpZsyyea+82cSzXR60Xtx11FhOMDOAwbQVwoCXZC8EAS+WD1CX4aUPwoChRcDAyUZ4LAiw0eDuQy3YPhgwthR6sPTgxsT4cPjleQ3VtHX1Qrr5iuXGtkR2WDQIA8MwhAGeRbEOpZAfsMlmbm7EWdBsDgHBf3N45Ts3fAG0xId7X9YlLaIoofjK0lI1CFOt3hPu3Avgzq81uNyJEMBff+hBCnRJ2P6f8GmJRCBQM/dmzFyvyvdDUIj6WQWfgBbgzms3UlmpNY+AtZUh2ot17tZzvTxsmR64eFDEtkpDCFAMQYAfF5gPYrmAB0G+H4dG4OTZLnppx35qbes0fAvUVlWcNz4sBFL2t8FaDd6KyMGYbti4lK5au5iqK0qNrYYDWDJgA8NCCQKMczZpqoFiqvvZtCHyFB4Bwf/CYz5Zi5gIdSTC/S/oibERWU7ET9aG1LFnn8FOJCwDfPGLkxV15D3XCgANazfio1wjjQ6MerRY3K/LnlIsAdwhK551jkTaJFFspT8yPEjrli3AljxrGxv8iCdQAhX3S7uPYqBOWrybJONCdkMr4PEZWgE2KOTpcEoQYFU6778/eOIMBIEDNBaJ0oKmegphEHV7Yu1LHWIXsNviG+CtcC40BDH4G+iBUyU21LQiWOUDk6kGiqnu54MmUWfhEJiKv1PdLxyl7m4JAkBvIjzwFCUiQx7yxrSxUfWaE/v0ozfcQPS977muc64VAELeckqcbpMUf8CTSCT8sidY6a+svwsz1mWu48I4BPPEbyw8QiEM4DduWUus0reSGmAB39reS0dOdRozdit1pJfhWT/bBxjLAywI8E4CXhrAdT6GoC7fsf847cIWwqryUgyYs8bxQ5BeozvOuW9l8EWwdnET3bRpOS1uqoNXxZjhYyDC2wktaFjc0XNBpUBAIJCGwFhidPBxNTbaHywpiQdC5eqDJ/br/75wIdGLL6Zlc8epOwUAAP3pf/wy7bnlOjkxPOpV45LP4y+t8pXXvhsCQLM7oJ+KSoSdiEepBwYmbAho1dqe17Bn11bSK3uPY3CO2CIEMOUXBQG2EVCSuwbOCwK8nfAM7ANe3nEQ7oeHaQlcDZfD0+B0SQEYWC7D8sBNm5cboY3Z82BH76DhgdAuQUCo7KfL02KtH4L/1nDLeyldjyXGhn+tjg1063oippXEE185MaYvC+nU60JDQHcKAC0tREuvpFOjQ1IoKnnj8ZhfCZTXekM198JgrSHvD0EBGuABFvvyaGhoEKr0IF29cYVhhW+laQ6/y2v1Ow6dPO8i10ot45dJLQ2wjQCvizPNqe2DEYRq3o3tdexQqLqiDNqAWksGjeO3XPyrHL9g4ZxZRiCjRfg7Mhqjbgg8cQQxytVGgNkv0sxFQPDfsbyP6bGxp+Mj/e0JWYlFB3sSKxtkLQK35H2dnY4leiLC3CkA1NbSHKmGOqJ9shRXvHpCDyjB8jpvqOr9GJCqJ+osX3eVZI1BQI1FqAMuerfCG59VLQALEzxQnYQx4HEE1jGEi8lAsnCPdwqwwyFeHmDbgJR9AH/I2rv7oA04YPSDlwRqKl3vquEShNjWgg0Gb9y0jFgQ4LgFXRzWGMaC+cD6ksbFD1MIuOr9N9UzkTkbBHLlPz5nCS0efTE22NGiKJ6Y4itJHE/0aX0BfNPa27MhwVF53CkANDXRmXAbVVRUK1JU80oaBTzB8kZPqOo+fHBDEyGcK/MnqtfK9exo4W2ncRoYGsa2PImu27zKsi1A0O+l5sZa2n7wJNTy4fwMTHg7JMVzcesgvAuyxMVW9WwkuPfoSXpz71HDA+Hsuhpj66AV7JxaxlgamN9A16xbYhgOdvWPIFjRCMw5k0sm6XRnx//0Eu46d2L/nESTk2jJx5PlxP7ZQpOEz1ci+nJsqOuo1+eJybIWHy7zqbBCJ7WtLR9Q5rVOVwoAJfAAGG8MUcNAmewhyacm4gElVDPfU1J+NwSACRebnaRWy4aW5OwRIadhC8C+/VcvnkfNc+osPxC8FFCOLYWv728Z1zeALS8IqGO6EZbZOKAKMOwDuL98vbt/kF7dc5j2wHcAO9nhpYES+BBIxiyw3DVHFWQXxBuWzoM/gQXk9XjobPcAYhJEjf4DBiNlw3+7+JEtOHa2l03/sqXLrnxOoikbWuzkRzYY2tleNv3LhiY789hDE2yzErHXowPn9mFqEyO/FE9Ul2k+r5diLowH4EoB4IMf/zh97H3vokNvHFVGxoZ8mqoGveW1SzyB0Lvwlc1575mdL0KuD7BhYAenQCPhURqAavn6K1ZREOF7raYFs2uN/exvH2szZqbp9djzglyskWk3dgvAsRDHGmBtAAsBGhsJdnQbRoIvw3/A8TPnQFPE0G7wfR4kWSDgczcn3gXBToV45wB7FWRBgEMWZ9uvQne/0O05lbdOef8LzY9Ct+dS/ktw0vZWpO/sbiw3I4AIFmkPHFflEZVi/e6zAXBlMKC39u+nPZ3tUjjeK3H8FlVVwQuFveVY2yuX8SRmvgjF/CAYg6gvSAqWAl7dfYh++ptX6A8/8A7LM2Yf1qvvf9fVdAr2AE+/ddCyYWEGZBP+5MFOCZSS5PWRGgkTPDYmlwVgM5BQVTrcepYOtbTRz558BT76SwxHQk1wLcx2AmWlJfBj4DdCEQewhMERAA1nfGmt8fICuyHmdnyYbQexbZL9D3BZHoBZLc8CE/e7GIl3YbAPgZULGunJ1/fT9554g46e7jBIyVYQKAbdM7lNJ73/M5kPxer7FPzHJ0cuwdZnrHbKkj8YkPQyPz1+Yg9tySxYrA6YaLc4X0UTBI6XFXHrqNTno/DIqESqz5gqYqBk1X9eNBrF5qsCAUDDwBmDQeCDv3qeNq9eTFesXjIeNFldq6kI0ac/eLMxIz2AqHgp9Xs+BR12LSyVwENg3E9qdBQBh+KgFUo0zPQhw1EkGscxgBDG/YZr4WS44vPLCWxgOJFGAMWTPhKw7IA8fM7uiFlYCGFpYRaCFc3D7oPF2Iq4bMEcWtY8x4hkyLESCpnYs+D7b95M67E08P0n36DHX91n+ExIYZ8PWszy02z+fNDsxDqL/f5bxcQsP83mt0qX28pdxn/MOVhHqeseWYcLkNr1G6Q/vv9TmXMTV3QzLwNmvnu+avNWqkPw+pGBhBIZjfglXQ36KxvWyb7gTWjblULNZJgZM0U8hboaw6ARpp6BYcMgMJelABYCmuqq6K2DrVifTvoHuOxBn4woC/e4H8kYA9gtAGNBY0sGbAQ4cdt838iDgVzGQJ48+BqLCjiwdGD8hy8VxyYwfuMvxyXQcLB6naMoRqIxRC+MUv9Q2IhXsP/4GXptzyF69vW36anXdtO+o6doDHkqQqUwRIQfA26gQKkGLoWvWruIls6thwDWTx19wwYO2dJg5iNttltm8xcIMtFMGgKC/2lgFOkUbtoPxQa7XoXdX4Q0KdZX4Yd34AE9fPxwkSiy3qwrBYC6DddQohJugM+cUSLRqF/T1ICvsnETIgFeDyhsWQawDml+Ssowd+T4ALqaMAwCWV2+aeXinAavufVVRmjcNxEG13BrW6ARACq0pDdBI+og1PewFbg0TTAgp19Oydu4ZpB9/m9KiEj/y7Ns/s197McOCHZZ/OL2/Ub8go6eQSwVhKgKAhELHIVIrJ3gbZnXIMYAp5b2Hggk8ayWYwrEokLAINqwgIDgvwXQ7C6iqoejgx2vYGPWqC/gjY351QSWaPXRE8ftbinv9WV+efPeoB0NhJoXU0yLSUNnu+EGWPVDnxwIVM3ejMh116L+9GHCjuacUQfefPbBr0N1DtfHhuHcSuwKmNc4yzJ9PCgubppFEcya98AoEHGuCwqeMUif3zYI7Y0RhpgdCnEEQgU2Axye2AhLfP6v4YKY3RCnH1yeIxfyEgPvCQFG7JOAHwOuPz0Z7eEaCwQJ+Cro7huk7fuPGcJAZ+8AzaouN4SBQgkC7FqY7QMWz62j0x298B0wYpCbQXZ6F8S5QEAgUGQEMBE7ERvsfgnjzqjsVWO+QU398ctP6d8TwYAKwxlPzVwKj47KnnDcg4+1T1UTQQQC2ip7/NtAwYWvPk8SL/woDGl5bYVnyjyI8VLA8MiooQm4ZsNKy9ECmVgFs9HlzY10DjPho0a8gLx2YcLKk4MzQhhjEDcGdCPwEAQAQxhggSAw/uHDPWgSjPv8F4JEUphI/jXKQ2BIYofmDc1BUtBJCQSDwJJjF7z41n5iQaAerpNrsD2R7+c7Mf7sPIgFARbEWqEN4GBDhWg7333Ltf5c399cy+dKvyifGwK58i/X8hNRDwPAU7Hh7hexs2lYk72xytKqRKLpXfqb3/9fExVx7HVXagBmzV1MQQ8iMkdlT1wjv842AFWzr8be8y3pSOf/853eWmHO2dGO4W4XywHnsIbM695b1y3DfnPrrGQnQcvhwIYNAtt7Blw2+DCXcfBgff64KExgqYE1BBAmWECQeckBAoWBIUpxECNOmYIA77aIY7mAvRaWFiiiYVVZCW1bvYhmIYQze2scDI8Z/ZmOz7ABehb/5Nr3XMtnQaLIkkcEcuVfruUn6ho0ACfjQz3Pk5oYllU9OhCMJ6Jf+pje9v3vEz3yyETFHHnd+qhRxO6UL15MCdb2JsgbV1W/Bg1AsHrOdfjQbywiWQVp2hisoObWEjHIASpm7eeovrqSVi+dn5O2oxI2Bewp8K0DJ43BZzrOQA3s2DcBaxcM+wNoBhg1LAewaiAlCPQNjNDrcFb0NjwXliEOA29L5J0F+U4sxK1eOJs2LJuH5YAhBFTqTy7LFEATke++ifoFAtMGAU1tj4/0PqvHY0Pk1eEMSE8c+8jdGr32FtHBg67qZv6/ajbDsXr7djr2Vw/QrC3bJLV30IN164AOR0CB6jnXYG14Q2Zzl6iBpsmHNLUUwEJADC52j55qpzVL5tEcDFS5pEaovstL/fTmgcuNAi/BMZdGClz2ErrT+M+DPWsHkjYHviRVaYIA7zI4da7bMBRkL4wcyKgWvgnyLRhx/Q2wRdi2ZqFB0/EzXVgawF6jNNoLDKHR3CU4FoMAi21eQneRMbTYBUcUuwRHR1CUHRGX0G0T/6EBaIsNQQBIxIc0SY96vf7EdZ/+XS3YNUSdr7ySHWEOyVUYs2cbO/uX/f3GFrAyLAEkdF2SNRnjoZcXx89/xS9t7BI1EO+hKULKR6uKl43msM4Ng7bT7d301Qd/SWe7enPqHb8fd129lj54yxWGRXw63ZfgmFMrhS18Cd3j8R+dZo2AFz4KEEzKwBTPkkEk+xQYhir+p7/5Lf3hF/+dHvzl8zQIb4yFSLMgbHz6vlvof9x/F7H3RvaeWMx0CY7FJMRk25fQPR7/TdZnJXtxOWeF4svLXILj5bcde+USum3iP4TxAGzPFOzIkiTVI415EjS0chUNB9kXnbuS6zQAH/3852klogH6li6SEiNxLxwywQZAL4UfgOshCKx2IvyXPIRpBPKHYaJ7adnGP+WBC5bvHCwI+wOx372XwnA3u23d8py83rFR2hJEtjuGmWdre29WW9PGJ9BlV4Ena1bYRoBxZUx52yXPvPng7YPsS+Bgyxk4Eqo0PBYmHRDlr5+8XZBtM9YtaaJzvYN0pouF36SpQ/5aFTXbjcBE73hO77/dRIr6skdA1zviw71PwTnbgOyVoxWBivjwnhc0+Wwv9e/bl309DsjpOgFgZM0aevKxx+ibD/5AJggAWkIL6JLEAsAN+HCvcgCmWZMw0Ych2wp4Pz0btPFSAIffPYalgDIE+9m4YqExaGVbT2Y+do4zr6Gath86idC2o0ZdM+VjxYO9YTjIRoMQCGBgaggDfF3FLLzlTAe9susgjcVitGhuQ0EiGtZjSeBKxBTgiIrH2jpNxRPI5K3V3zOF/1bxsVIu1/ffSptWywj+pyGna92wAXhKUyMD8FAajY5GE239Z7T+IRjunj6dltH5p64TACQYWfzNhz5FVd/8Lzmu6158lf0exRfyVdbfjMFwufMht5fCC/YA2BrIOwIOYYa6EAPTormNOTXUUAOVOIwN3zjQAr8DHNc+p+pcV9gQBHj3gCcZeImDGTEEfJ09J+44cJz2HztN9XA13FCLpQPM1vOZOMLglpULjGiOR051GNEFOQ5CoVLhWipUj0Q7ZhAQ/E9HS+tPhAd+g7gmfYouRT3lcnzoilVaKXkpfuBAekbHn7tOAOiFDcCnr/kAnXzlCRkucbySJgc0ksv8lfU3QABY5njE80Agz1iNLW3wEhhG2NkTiK63YeVCw+d9Ls2xt7ouuKo9ePKc9aUKkwQYLn5RhlXdPOvggxdKMse6Qs1I2KkQCwGSsSwAT4zQtLAQYBgJwvbi5Z0HjCiNLHSVIwBRPhPvEuDIgs0NNXTibDdCK48YtOSzTafWXSj+O7X/M52uovJf13rj4d4nEtHRfqwbRhGALF5WktBCYyoNHDrkKta4TgCgK6+kN176Icn+gCLFEP6NtCBmwSF/xcwVAHh0TNoDcMhdlbrgzIZ9BGxbv9yIjGf1ifRhwGEnNTsPnzIEAR748pXYyI232lWVlWJbY7mxH54D6DAN3C5rN1T4+2dJhH/nj5JxemjgC38C7EMA52wbwBIKn4/C7mInnAjtwFEN50HsmTGf2gBukwWztYvnUFvXAA5zdgFF/XCOA63VSwXlv1UiHVhO8N8Gpuh6H3YBPKHGwn3wPB+NeaOJc7vf1gYQsp26umxooHBVuE8AqKoi2nOAgo3zZS95vQgCE8AMrdxXUX8rBIGkc/XC4eeYli7YA2ApQCKNTmF2yuF2r1ybm5OgSjio8fs89OreExiE7V8K4Jk+72RYv7SJ/uDd19In776ePnrHVnrfDRvpfTdupDu2rUHwnMW0ornBsG+IYB18NBIzAgDxIMADYqGSEcOAjQThWZA1LikjQW6/vauPXt5xgPqGRmBE2Ujl8KuQz1RXxXYBC6gPuxJazvZgJSypmZiqzcKhNRUl4n4xEBD8twF1XR+Jh/sfVyOjvXoc7ug0JR4OwSVdsIzo7FkbGihcFe4TAP7iL4iefpiqfva8JI9FvaquBxXZV+6tmHULBIDk5unz+Nkp7dpZV77Ym7QHgOEahAANA8KR1rNUi4FiLTsJymGgnA+V88lzvXTkdEdO9WT2mzH1YwfnvTdtos9/7C66GlHyZlWVGRH6SgI+4y9Hz2turKGNy+bTTZuX0Y2bltES+M7H8IvBNozIf9B6jLNEwG3ZybP0uhhnuJ2G9k++oA3g9Xg20tt9qNXQCBRCG8Aakm0wDmQBav+J9hnlQjidH8zr8VI2ecYrN941O+sar35xzRwC2fAjmzzZtnpJXToNxYf7fq1Gwz0IShsNlMnxQHWpWqH4abi1NdsqHZHPdQJAaPNmiqljFHxjl5IYifkw2gUQNKbMVzHrpkwBwE5p18668sl5tgfgxEGDOPodCwGr4CSIHdlYTbz23FBTTq+8fYKGzocOtlpXqlzqhboHg//nPno71SIa31TJA6PE6vJSWr1ojiEIrF8y17DM57C6sfjl/vPt5FlmXSxQGR4FL2gDktoRlrPOdffBgdB5bcD82Ybh3lR9s3rf7/Vgm+BcqoCm5jBsNUZgA5KLsDcZHSmeTZanUPcy+TFeu9nkGa/ceNfsrGu8+t1wTfA/xSV90BAARiEA+PSo6lPjnYeOahEEadN6elKZXPHXdQLAHXffTbfigzey54w8Nhz2IqwbR4LBEsDlAsB4HHDSQzwefXZcMwzWeJ0aluuDI2E62d5l+AeowPq61VSHdfkRtn4/dMpqFZeU07Hmz3vc/wdm/jzrN5t44GPNxLXrl8BRTg119sELFwwWp+LvVPfN0mFoA9g2gLUBMMJM2QYY2oDDrfT24RYEF6oy3AnnK8ogC2hrYBMwZ1Yl7W85mzdXzoUeBO3mFfM2H3WafWbcml/w/zzndG0wEe7/tRYb6/XIUgTLb/Fws+rviAAAQABJREFUdEjTAlj2EzYA+X28R5Ysof3+YYq9fFJW1RiWADR4ZfKU+8qzEwCsPsT84eBktXyydGH+Tc5OLzoJaoeh2Gg0RlfBKNCHgdNK4jp53fm1fS3UC6c4uc4yeU/9u69bZ3getEJPqgwbCS6b10BXrVlkOEJi63i2fZiIPqv8m4z/Sbw5ciEUUinbABDIbbGDJg4uxLYL+fQbwDRwaOcViOzITpw6e4cmxCCFndP/WuXVZP2yWudk/J+sPXHPOgJWeTVZi1brvIT/OmsA+h/X4mM9Glb+SIYAMNKrehGZVOsWGoDJ8M/5XsOGDVRZWkqR1jNybDQBl20UhNq7LFsBwCoB/OBYfXgy2+SHya66MutO/b5gFMhOgjAonTh9jmoqy2ndsmbLAwNHrIsiZC37BsD4nVMfEMOBrl23hLZiDduOVA4HSFwXr8XvO3HWdoPFbPif1AawAyG2DbioDRgZS/oNOHD8tLEUM7uu2jIPJsOKhYCmuipatWA2HYcgdM51kR0n611x72XD/2wpLMT7ny0tIl92CFzCf7YBgAYAuwB6ZI8crQyE4qvnNag1cCXefuJYdhU6JJfrlgAWb91KFfNqST7Wo4yFI14MJH7Z46n0lc26DbHkmx2C66Rk5HvwTzXOAxIPChqMAtkegIMGrV22gObUWQ8axFv0XocWoLt/OKdBTIcytqzETzduXGZZK5HqZ+ovazd4e9wwtubtO95mqHtT9wr1N6UNUOBECFIAlgVYG8ErAzqdPNtFr+0+jC2bsqEN8PtYfrU/8XLN5hXzqQPLIq3tPULtbT/EOdVYqPc/JyJF4UkQ0CPx0YHHEpGRbo+EPYCIyNbT3aMOjek00ik8AU4CXO63tv3pn9JDv//H9J8/ekQeHhryQpoOwiK7AhqAd2Addm7uLRSuhkLMBJJOgtCSFkcgm1HMCvvo6g0r4B/AWuAKtjzvx9aztw6ezAko/gi2tyOUcRWM+hbPy0mYSCeE18MXN9XRrqNn0NdB2+pNbyOb85Q2gDUx6dqAwZFRxBQ4TK0QBpbMb0SEwfJsqjOdh7dvbl4+nzohqJ1o62bTBEMQMV2RQwoU4l0pdFenY5/yhaGzsNLH4iMDj2qx0R6PNxCJyYl4ZyWpYxiN9DNn8gVBXup1nQbg4LJl9HcNCvmeeU1RR6I+CeGA4Qeg0ldew34AXCUAWJ0JmHoZMP00hABDJZ2gto5ew+HO1nXLDFW12aeKZ7McFvc1+AXgbXg847WUMCKNDvcbRnIKrPsXY++8XTNiFlIGEcXvjf0tlkizq1BKG5DpN0BVdWhjztL2fceMZZn5s+vy4jyI3QdvWj4PEQ0jdBR2Adn6CrCr/3bWY/Eps5ME2+uy2idT77/tVBenQqtY5YdaCADh/kfVeLgbAcEipSF/fOHm9WpFoIy6396dnybzVKvrBIDmujryPfUUVSRKlWhYhQ5VD0geX4W3vNZ1AoBVnpp9GQx7ACwHcNAgDbsDWto6aMXCubRgTr0lEipDQSM63a7Dp3MQADSCFS182mOgfvswBsRzxla2umrEIGAHjzkmHnyf3X6IxmD8aFlIyZGGVHFDG8B+A0CTsVMASnk+74aK/re7DtAQhJVlzXNy8tqYaivzb2nAT1esbDYG/wOt7YjrMLGBZGZZ8duZCJh9/53ZCzdTpYfjo/2PJqJhXgKIBLz++GK/X9WHYnT68B5Xdcx1AkB0wQIalBNUGQ0qKhwBJdRYUPH6q2ADcDs+tE1OR79Y0jsPQjzosD1AGNv52rF3/tpNKw3vemYx43pK/D56cfdReOWzuu+cB0OEMoZAwjsCjkMAeO7NvXQcxorsTpcFgVxSAOvrL+06Sh0OsYZnzAxXwhy3wdiimfTcx9sF9xxqwR7+s4ZA1lBbabvAwlsm1y+da9S77zgbSAohIJdnK5eyxXr/c6FZlM1EQB81lgAioz2ypEQkKRF/Pd6hto/0k3bqVGZmR/92nQCQWLGCaFYZKWcGFVnVseqCbYC+kmpfee2dGORyC4FXAFalpPdifAiS9gDwp4/lAI4V4MXAYHUpoKq8xAgSdPR0l2F5bxY6HhBZKGGtBC9Q828eDA+1tMGbXgsi7FXSgqZ6y4MhwnQihsFpwzkOe8pzSmIeQGAFOVgvBB+YMn4WWtu66FXYBpQGA7QIyyFsy2Bn4vo4kBA3uBdCgFVNQDGeWztxKHZdqSfRrTi6lW57+a6PwQ/Ao3os3IUl6IgmReONyxeqPh2RQg8ftrepPNdm71cmz8Qa1a9di0XocvKfG1aUeByb3YkFgCp/WS0bATYUggQ72kh9COyoK+s6eBbKM1B4CVThtKYVseXXLJlP82fPyrqKVEb2ysdb+V6GFiCbcMHjfThYAEjZJ6Si7PE2vq6+AXoL6+NN9bUwlJudatLUXw7Iw05x2FjRSQIAd8KIKYAlARkYpjsPGoBNxRtvHzGiCy5f0GT7kkBSCJiDXReKIQREsTOEBS8zyVzuizWPx/+Ld2femVUci42UVbqnF//1URYAtOhwt4ZogKV+f6xmaFj1jurUeUpsA8zrM1qKbYDxpXU0+wg0AJrqjatqQPGX1MII8C58WM2PZHml1nmV8+CDrz6EgBg8+43RAILXXL95NSGkpWliKxHwho0B2QvfVAPJRB8OhHC+GGUP2+Z46xzXNYzIWvuOnaIVi+ZadmN85HSnQZ/pjhWgAPeRIzgazoOwJJAKLBSDn4U98CB4FEsCHGK4AV4E7UwpTQAvkew5dgZ+HcwLAVbomYj/VupKlZleg0qqV9Pz7/Tif1IAQCyAbok8EajrYme7W9QotGzhs+7aBojRwF3pPdXV9OM7tlBpVKYY722C2iUZHFZynzYjDXr+mBUqKT54T/YFDdU9e6n79UvbLTVdBxe+VyGAj6HHtlRDshBrAjyIpOUrrSKPH+40eXCEMx2OaPiVb/6cTpw5Z6l2HuRgpWuo2C1VUIBCLAR4SyrJE0AsBAhnKUHqxe376VNf+Sb98vk3DedLdpLC/hJ+BxEX/+TeG4l3CrAmx40pH4NKsXBwJweKhVay3WLy3xh6jPDkGnnhYX12w2yqrakuLiAWWnfdoHmsr49++t2fkE+pVkghdgQUUHwlNd6ymjsxu7Ue8cYCeHYWMfsw8wfDbJmL9F5cCojHY9QBj3HXbFxBVeVTB+S5WEfyjNXJz+84gqh8uVvbsz99NpTjgZCXKSAHYC9/Pw1h7/y1m1aZdhh0oPWcYQjITnicnAxtAPoNR1aGXUBKC9I3OAKfAYcMJ04rsWsjAMNLuxIvkaxeOJsKrQmwi/7pVo/Zdzm393+6oVfo/kADMMI2AKPd+GZFvLoea1SqVSnqpfbTBwpNTE7tuU4ASKxcSeSTqTw4C0aAqlfVEA3QXzrLV1b9HggA9upLs4C2WC+i2Q9GZlcuLAVgV0BP/xBVhErpSvgGSM1AM/NP9Jtd8O48fIpOwr8Ar9/nniCcwIseawU4rDEbCHIwo3oYBa5d2myq+l1HTtHLe46aKmM2s538Z3sI7jvbQxgGgsCTDSN3HWyh0x3dxHYB1VlETcy2D0IIyBapifPZyf+JW7n8jh1v2uW1iivZIcC7APoeZU+A+FBFAiW+WF11mZpQJDpzfF92VTgkl+uWABoaGqhuw2aSghLFZYRiwBKAoTMm6AOKlPgj4MYkezmQIlTAGHAefuY1wwLfbD9CcOd77frFxEaBdiZeovDAsQZrBcaw1fC7jzxn+C8w00YXogPGE7AryHOyk//GkkBphbEkwEIaC2Swc6HHXniLPvOP36bXsVPATo1GNssBdvYvz6woSvXTHZ/p3j8rDw2POhq2L8scFIVUikN5OhZEBFaXJXu/2gXofKyykoba2qSQ5MUuAM2rJ6hEDoZqvWXV78bHMrfN4xboN8QPC+W4CD86xZTkeXBJzbQH4N6XZ/DXbV5prJub6VIJnM08v/MwnPpETGsQJmsHMR4MkNhfAKvDKxHOOFstRSQap4ee30nHsb3OHs3E+JTmg//MFzYOTPIGvhKgBeFr5xDV8fW9RwzvgRxZkGfwdqSUJoA9MbJhIMeN4PZS6eJZ6or4m0IgH/xP1e2Uv4L/mZxgI0C4Ao5iCUCRI1ElGouVKGrP8BCFT5zIzOzo364TAJT6eaRGVQr5AooCF4CaCj8AgVC9N1R1Dz5a1gPeF4FNTnixeJDhAYb343f0DtCWNUtp9ixzxixl2Lt+oKWdjsLq3t7BFgKKh8MaJ0hNwI1xZw9tWb0kK8v4dtg1fOexV+AS2F6hxM7HZHL+s50GdgnwkoB+cZdAKpYAC4+rEEPBanjnzH6wELAKNgHMv73H2oSzoEyA8vB7cv7noUFRpU0IYAmAXQFHk0sAmleJxTeuV+Nxncb2vW1TG4WpxnUCwPLVV9HK2XOloeGooqm6T4tDAAiG6iAAvLeYAkCxZ/O5PC4S7+mHADA8EsZ2QKj0YXBnZu+8B4MH+95/5e3jtqqnuU88E01pKQahpRhGO+zBcKq4AU/8dhf9+lVejyvMZzZf/Oe+sxDAqpCU4yC2C9h58AScOfUhvPMC2/wFMB9XL5oDzJPOgoTHQH4Cs0v54n92rYtchUUgaQSYGBvp9soUCZX6Ymur56iloyq17bO2o6qw9F9szXUCQKTCR50dLRIF/QqpXh+c2wY9fkMAeA++XEXTANgxzJj9iJjNf5Htl54ZBoGoTE1EqR+q9uuvWE01FWWXZpriF28ne2n3MUQKHL1EfTxFsaxuG1oKQuwA7Aw4ebbTsAvYuGKhEdRovArOdvXSV7/3GLX3j1oKeDRenVNdyyf/mT8IeGWYuiRjCRAlsAXpcGsbtZzpoKXNs2lWlT2rX+wnYA08BvLWQMNjINpJWw2YCoYZez+f/J8IVLve/4nqF9cnQiApAGixcDfJekT1xGMnD+9Uh0b7KNzWNlEhR153nQBQsnoNxRrrpFBYUrS4hK8iNAD+0CxPaRV2ARRPALCDu2Y/ImbzT0ajMchirX0IjoGqEe1v69qlpgZyNgZkt8Dsfc/eZYAk1UwfaykSWArYd/QUhACJVsOLYaYKnDUE//qDx+iZN/fD10GJqT5Mhk8h7k3KT4zCF3dHwC7gvHeD4/CRsP/4aVoKj4mz68wt3UzUp5QQMDIWNfgJG1EhBEwElo3XJ+X/OO2YzT9OFeKSJQSSAgA7AtJkJaJI8ZhveERVNJmGujos1VisQq4TAHxzZlN8sFeqpJBHT2AJANsAlQA0AEUUAKaDJG5oAfAUxmMRw+Du1qvWmwoUxI57eKbIWoBYnIPN2PtIGxbxUOdzMKM4jNQ4XkALXBmXYRtiCWwQ2A/BwRNn6J8f/CX98rk3SVd8533u20vHeLUVkv8X7AIQR4C9B7KwxXEd3tx71LCN4LDKvGySa/KxJmDhHOrqH6YjpzuKbrCaa3/yWb6Q/M9nP0Td2SLA2wARDRBLAPggRXwBf+zOm96l6p4yOnloZ7aVOCKf6wQAqaGJ4rokIQ6wQnGC9xQKKv5StgFgDQDcyBU+5f65tY/mXD5GvOWOHfAMDo/QwqYGI06AGcqqy0sNnwCnO/vyowVI+c7HwMcq8CPQNjz3+tv09Gu76RfPvUE/evwlehtudKG0Jm8wZNgOmKHfat5C89+wC8AuATbe5CUBHvD7obnZsf84dgiUGfET2ANirino99K6JXOpA66ej5/pyrW6aVu+0PyfDMhc3v/J6hX30hFICgA6dgFgS26kxKfE/LKsjsGG6rTL/AC4TgBoal5F5Rrmgx6PgiA0MJGWAtgvXu8JVfE2wKIIAOmPRrHPc/kYGVoA+OKPRkYRLEilW7atn9LYLr2/7FVuNBIz/O/zGvJ4tJj9QKXn54FOgmV8MozwxXC6PZildmOQSnkjVPzwIcAuhcelIJ1i954zr4ytggBI46iCwGYYOx5eRzAh1gqsXjIPLsqxjTLHVArbjrWL59CJtm46ea43Z+1COj+zIW2q/FPdz6aN6ZRnvHfOSf0zy6+p8k91Pz99xxLAcHIXgAeeAGXJH0tU+GADMEY9LYfy02Seas19mpAnwiaqVg9pVD6nghIE17NwnWrMgvifHFJOhXNo14lFjTgB2Hq3+3AL7TnSaprEazcsofmNNVBPj4+q2Q9UZn72lucJVmA9HDogJB74eMcCH8Y5LOYNv/omBv/xKTXd9YIXYCGAYygk4wgkMeBtgv/7h4/R1x96CsJY1BaaZsML4wO/8w5oA2AcOAFfs20ok59TlZsq/1T3p6qf77uV/9n0zWl5zPJrqvxT3c+m/5b4j4ahfzMMkgOlHuoaHaGox3XDafG852XDmPHylNUtpoExFdZ+EjQA5NN1DdEAQ/W+UPW7MQJY0gDY8RCNR2shrvHDayf9SS2ASuGREaqC29nrsOWOB9ZsU3lpgHoHw7QD7oHzlVIqcKaLveIxdbx8wUZ/3pJy06r/7HuXrx5ZrxerYYYwJHMcARhxAhFjDz9HFGSHPrxNcKotk9m0XoNnYcm8enobPgJ6BkZMPRPZ1F/MPK7mP4BzM/3F5HuqbfP4Ga6AH4MfgC58g2AEqMeaaqtVLz7G547uT1Xrir+uWwIIzZ1NVT5dGhhhPwCKDzPNIGZAdR4IAGCGJQHAFZyahEjzD/AklfEtzCzVeITCUGndum2DKWNAHpRZbfzCriMUhhU5/85HSqrA/TD0C5CM6IYef6kR4dAQYPLRoIPrhO7DcBrEgpGxPAIhIJFQDQ1O78AQbVixiNhbY66psaaCGqorINydpOE88jZXOmda+fy8YTMNxez7CyEbwYAGfqViGyA+lREVQUtOte5Xewb7Kd7TlX1FDsjpOgGgpLGO4qPDkqSUKLIksyVUQPZhF0DSFfCMEwDy8fLzIMpOZ3hL4LIFc2jlormmHlU2BjzT2U/7YKSXLwEgRRDTygPfTBz4GYN0/ieDCXlhmJzAa6HBjkMzdkb0GELAQghmgRRslv8umF1jBCTacegkjcHdcr75a5nQGVIwnf8zpMsO6CY0AMMDjybYE6AsRQieAKM9A6rXU0LRvnMOoC97ElwnAFRu20aBRQuleH+/AjMAH5YksQtg5goAmay2ZUmAZ+04IqNhQ31889Z1poL9sAV6ZShIL+46aqxDi0Eik0t5/G14DjxvKAkhgJ+HQy1txlbBTasW5ew1kHm5uKnO6MDuo2egaRCOgvLITdNV2/L+m251ZhXA2v+oyq6A2RGQLkfUxFhsyId9SX4PaV3uEgBcZ7UwDK8k7fBYp8EXSgLBANlJCSchCduLA+83V2Bot+PAMcPbXLL27P9dCb/y29YsNDzKZV9K5MwVAX4PjIiCJZXnXQgno5Y99uJb9OWv/8wI/ZxrG+wy+Hfv3EofuvUKBI5iqwORnIJAob6DM53n3H8jKieefy0AB7Q3Xk3xRfOc8hhkTYfrBAC5A+vKLX0UiPihfTnPBbYFy7rL9mQsdHv2UJ19LaxW5x0BnQiq8/KOA9kXPJ/T7/XQO69eQ+Vw1FNw5pim1nwBp/Nfwm4Jb2mlwcOUGcZjL26nv//2w9Q7MGy+wxklgn4ffeK919FtV67kL2HG3en/c+b1+FKeFkrQuLRVB/0CAFgohaJUIyWIp4HDl4eK5oneMjCuEwDmzl1EazZdBUcvPvJh2wWMnyWoZAr+PBa8Qcsstl5Q8fpJxbP90o79xNvLzKYrVy6grasXJCVls4Udnt8N/GchzhMsN4QAhpO38P386dfo//uvX9EIDDxzTTUVpfRnH7qVNi6bn/P2wFxpKXR5N/C/0JjMpPaY/8ZKKdyOlcAUbe6ijTSveqHrIHCdDYCmy9R/YKeUUPwK1P8+DP4B7ww2AsznE8eGdex6d3BomDavXoz9/bNMNcd++gOYKb60++hlMeZNVSQyW0aAeShzICG2B2D3wZitH249a3hS3LhyUc7OgirLSmjRnFm048gpeCO0PxCU5Y6LggKBPCFg7AII9z+WiIW72AZAUmOx+t52Vetop54TR/LUan6qdZ0GQKqQqGxOFSWUMNaXESFO16EBKIw8nqn2y/ydHxYVsVaIuB4sAwwMhen5N/dilnfe4MIESVtXQQuAw6r/GMbYKThn0pH52wQsBc3KPhI88I+gQE3JRnwcTvg7v3iWvgFnQRFY8ueaNiybB03ALdgdUGq7zYfgf67ccXd5J/LfoAn/pFa+fAkfLQ3Opzrd3ATJCZxxnQZg+ZYttGj+XKmnb0hRY7pP0uSgJ8jhgPPvB2A8MWO8a05grD00YIc5DC1UBAgKj47SrVeZ8wnANKS0AC+zFgB7083ixfnNlrGn75fXMh4d4127vGTxr/DAb3hP1FVoAhBLAbx4++hJqioP0dplzYZgkAuVzY21hqS2Ew6gVKwbsXrUjsTV2FRVzuSMR8d413JuSFRwAQFn8p/9APQl/QCQFInp0dg+pU9tj/RS/FTrBdrdcOI6DcDo8DCdOHmSPJLHsHbm+T9LZMVI0//lx4fcMAb0U2tbF72y66AlmC9oAcZRAxSLd5Y6klHIbfy/YBMA2w4WCMKjUfo3hE5+/KUdOdtp8M6Aj7zjSnr3tetMDf6C/xkP1Qz76Vb+M90STM845pYH7jXi8SjJesx13HOdANDb1ERnly6jRIB9wSdV0ilVjOvQLzTBJqdlyZdTMrztReFW9llE3htDsB+ziT0D3nPjJiorCVw20GQ7iLr1Q2EWq7zmB/85fgYbBsqImcDxEziI0t9/6+f0xt7c1y5D4POfvv8m2sJLPuMIe+P1TfB/PFTydM3S+58nWs5X60b+J2nG9j/0ATHTCNHPKd40hyIVlfkFKw+1u04AkIeGyNfTjbFfJq8XBk5wxGzyuZ4QxsxBJvP3hAXdcsOkpJR6OTnqHPsE2HnwBAzI2iz1ln0CXIdAQSZJuNBWipYLF/JwksnvzN95aLKwVRrgQ6vDAZVgE8BLAiwEnD7XQ3/3zZ/T0ZPtOdPTWFth7AxYMLvWVnsAwf+cWXNx0TrLqgqBeZakFGQZKPN9z/ydovXCdWgAFPwwYm729lIC2mm3JdcJADVRlVZ5S0hBpDNNZZe19q0RZj7wmb+dytwLD2QGgRNdz8g25U+2JPf4/IYTmRfe2mdpEC8J+AzHMbWVocu0AFMSUKAMmfzO/F0gMkw3MxGfJ7rODbCzINYESIpiCAEcPOirDz5ii6Og9Uvn0v9z7w3wAXG5xsd05wpYIJPfmb8LSIqppibi80TXTVU+gzJn8jvzdwqK1HUJc09Epoegq1CgbjYFK2tSWVzz13VGgEFPOfWcOSt5FK8SjetGLABPoLQgRoBO5Wrqgcykb6Lrmfmy+o0HPR4do9GxCLFr4BDU+WZTfXU5tXVxjID2nI3OzLY9nfNPxOeJrqewYJsAPvQElnWgHWht6zRm7VeuXWrK9XOqvtRfbnchtgbGYglid8HYqVOQGVyq/Zn2dyI+T3R9puFjd3/ZFXB8BK6Ao+EuvD+RoOKNLVQ1NTgYpZ7Tx+xuLq/1uU4DMFJXTgNzYXHsh/oSTzj2NRdsG2A2nJiuUrcxY4QW4Oipdnptz+FsoLgsj9ej0N03bKT6qjLHagEuI9rkBbfxn6MpegJlEAQQARLbPH/0+Ev0KNwG59oPH3j9u3duoxs3LZu2vB7v0cgVt/HqFNeciABm/wiDwWOQx19GS5tX0Ny6BU4kdFKaXCcAhGY1Udn85aR7ZB747TMAmBSm7G86Req2/UMEDQAPFrxv/Inf7jCC/GSPysWcaxbNgYvgtbjgFKQu0mbHmVN6ZYb/ih9uTBFOmZd6hsMR+toPH6c9h1pyhoOjQrJR4LJ59VkbBebcaJErcCP/iwyZ65o/z2NdkfGWYRSKeEaoc36IOqsRhdNlyXUCgMTWy8EQgD8//pv50rmMObmQa/VDNBmcbAwoezy0ff8xI8ysFfp4u9gHbtlMHFY2ZSk+WZtW2hBlzIpXEO4Q0IRjP7BRYEtbh7E9sG8wd6Om5c0NsAe4Ef4GSibUBAj+2//E5uP9t5/KZI1u4z/Ti/00huYZbjVIg0+NXdtfp7Ptp/MFUd7qdZ0NQLyhjqKJsCQjHLCiKj5d04JKoGxG2wDY+XRM9uHgGSI7kQmHR6gk4KdrN63EgGFehqyC+9hRaBLeOnhSrA/bybwc6ko5CtJVeAYEj9s6e6kcIZ03rVyMT91kT8XUjS5orDH4vQf2AEYEtYwiudWeUZn4mRMCxeBFMdrMCaTzNgCJaLhbkaSIpkVj4VKvmojGKN6Su+YsN9rMlTb/9TZXv+2562H2Nz8yQgHsOWbPtDoGJZEKhQBmipgl8oDAEQJPtXdZapjL3339Blq7eA4ECrfJ/5a67IpCSUdBZdgh4DFiN7C7YDv8A3jYHuCObXT1usUXtD6uAEQQKRAYB4GLAgs7oieExJZpcXMzNVRUjJPb2ZdcN3oOd0fpTOcIyXEZW5g4JCMsMYDxRaY4G3B3U6cb28c4SuDJs53E4WXHm9Fl08c6GAJ+5PYrqRRRHa36BsimHZHHHALsIIiXA2Qs1XT0DtDXf/Yk2bEUwJED/wRbA5vTln7MUSZyCwScgwArxQytGRxr+eUQBXoi5Btx3XCK8dNlqc6v0dqqIMXHOJypGPYLzj48+RxURsWo/fjLO+lsV59lEm7evJyuW7/UshBhuWFRcFIEPD742YDBpwxev7LrEP30yVdsmbmvWzKXPvauaygIL55C7zMpC8RNFyAgaZj/Y7ksImt0sNJHZ0OuG07dJwAMjurU2RclVcHgj0GIPySpwwXPzLQgUYYGQMFM8cSZc0aUQKudYhfBv3vnVmJtgFVNgtW2RblJEMDAD98ahqfAWDxO//XoC7Tv2MlJCmR/i2MFvOsaxAvIvojIKRBwJALYhaZrrAlAtO3Z2JZeVYr1aZcl14ksHuj9WT2pSB5JgjczGAG4DHL3k8vGgGwLEEd8gEeee4O6+gYtd2r90nn07us4gIzgo2UQ81CQ3y1PIIR3TTEMAr/18DOWt36mk1cKj5Aff8+1tKK50RatQnrd4lwgUCgEkhos1pFhEToSkXoOHKDBk6cK1bxt7bhOANCbqii4bgnF4AZA5UgM6AGYkeSHbbBM74rsGGxZAOD4AG8faYUtwFuWAeNtge+/aTMtZN/xwiDQMo5mCmbLf14GMIw+UTkHguLDjtSMXQF/+N7rjF0GQvNjB6Lm6siW/+ZqnXG5oQCAFTos0culMtpQUkvLSupdB4LrBAAq8ZJWFoTehYd9MACJtTBi/pj9s2fHR5ejyrEtAGsBfvzEb7F3vDN7AjJyLpxTSx+6bQv5vK7blZrRE3f8zJr/eKsUOAjioEHDo2P0nUeepfZu6zYf6ejcsmUF3XvjRqH5SQelQOdZ879A9LixGR5vIEjpKk6i0pie8EuUgH2a25LrBAAFiGtxDRGYFEmB0xLeh8HMsKICEJJwbo+rfF4LcAzugX/xzGsQhq2/AHdetYbWw0iM3dEWKgn+T4204QIaQgBvdWJtz8PPvG6LvQa7hWb7j43L5hVN8yP4PzX/p3OOXPjP4S344LFH0+PSoR0Hqe2YtUipxcTYdQJAdesY1e9uJ28YwOM/XoUxVAAWUBSSsAXQ0orwfnE2CORgLw89/ZoRLjjttqlTjhL40Tu2UhmCDKG6giTB/+xgZkGP+ZxIaPTzp1+1HBI6s7U5s6rok++7nqqxRbAYvChGm5kYiN/FQyAX/mPUSX6lVBXmMh5a8M6bqGbtkuJ1xmLLrhMA+pUxao30kl6iw4cMewEAG3k1wCIAolguCLCKGFvGIAi0d/XSN37+NA2NjFqu8Lr1S+iqNYuKMhhYJnoGFDTCQbMWALN2Xur5/mMvUjxhj9/zq9cuovdev14sBcyA52i6dJHHGh5zWPesYxkgFonpc0I+CiruG4VcJwAMlvioB2FlsQUgaQbAqpjp8mS5sB+sImZbAI4m98Kb++hnT71qeQDnbYEffceVxNqAXKRzF8LoeJKNOBBe8BmUPvXKbtpx4LgtNHuwy+Cjt2+l1QgSJYxAbYFUVJJnBPgd4NEfbuiNNQCPr5R2nxmggbDrhlP3+QGokUup0VtOMkQwZgC80xuHwZQ8M15UPz4CHE2OtQDRWIy+9fDT9NY+6zGxN69oplthICaEuvGxLt5V+AaAtocNAjv7Bui7jzxHI6MRW8iZW19FH7vraior5eUfwXlbQBWV5BsBDDx4J7zYkI7Jz9xF86imVrgCzjfopMF1bMkcBATSMPRj/d/4YHBgJpGKhoCxI4CtxTGbY8+AX33wETrT0WOJHjYOe98NG6mx5v+y955RciXZeWCkLQMUvPem0QC60Y1209Pd02N6evwMOSMOhxSNSEkUz2olkmeN/qz2x+45u8s9onbPWXH38JCiRFISRc6QQ3Kmx3A4tjnT3jfQBt41fAEooFAmKyvN3i/ife/djHz5MrMqq1DZnQFURsR1ceNGvPfixYu4sdSuLZiRkB7TnFggJYM8eAnEAVBPvfq2eVr+OhU+9r695rOyELQXehboBgvgkYN30NJ0pVoZnzYXnnzTXD94sRtUr9Gx6+YsroizpaM5ed+36y9RFwwC7MxkTcV6mfm1gPML0GcXZWIG4P/6478RH/JjM1LiLjkkCB7j7ALPGUnoMc2VBdKY7REvkDdlrcd/+voPzdXrsz8yGLr25bOyK+Bhs2Pj6t6ngLlqvJ7cjlnAbgBI4RU0bcpygubYyQNm/NqZjsmfL0Fdt/F6w9bNZlllKmVGbmRlAWZehgJyHPDiNfnFK35aBgWD82W4XjmeBeRSwGlylVLRfpo5duaC3dL3wJ23mVw26xEnZ/HgX7dyiXnm4HEZRIxLs/Y+8CRbbP6wti2kParSzhevjJgt61eZu27f1hEFcGAQ5D/7xgnpO71RfUeM2hMyBxaoTkyPXXuiXBgfzmZyhXyuNL115dJyXrxcXjx7cg7KmzuRXTcAuPOjHzGr161K3bg6milNFPOyb3wg2z/UGwDMXR9pWTIGALiBV8pF6xPgrWNnbP6e3dtlENBeV1s2NGiuy1vmi2+farn8HuH8WCAtTqAq5ZIpFgvm+s0J89H33y2nOvZ3pPCt61aaQ6cvmpPnrvQGfh2xaE9I5y1QnSiNXf96aWrsctbkCtNyNu2N8fPl63JNTFy60Pni5lBie3flOVSkVdHZNTvM8PXxVPXmaKZSSuVlG+BAWmYAcjIDIA+f3gxAq4acI7o03vbl7a0q02LTpbI4jzklCwTT5p692w1WfLcaMJBYLYcEPXOgNwvQqs3mjU7aBlsDq6UpOQfiuszWLDf37t3RkeL78zk5HGqJ+cnrx+zZA+gHvdCzwMKygMwAjF/7Rnlq4rJ8BJBzgFPFK0sz5aLc+8rvvLOwVG2iTdetARifuiEumCfMZHFKppzlC4wsAEjLEsDebaJJS88bWnwDyCEy8COPm/dEYcr8/le+Y/7qu8+2vahvu/iMh4fAtLRzLywsC6RlHQDaGK6gcVzwyXMzdwXt1+z+PVvlxMC71Tofn6KX71ngFlugKo4AxWmpHEkjXjLLqd0Dg2Zjf2dmweazZl03AMilZC9yZsCkyzlTLFXFEVDPCdB8dphWyoJPgOzAkGwZy9uFfDfHJ83v/tdvmlfeOt4Ke0iDAcTjD+wxa8XvQ297WGiWhZGQtrFOoOSt59DJs+ZrP3i+Y22EA6J+/mMPmJ29BYELo617WtRYAFvO8M6Jg2jxatJfypvS+TGTGZk/N+Y1Cs0i03UDgKVyAtOagiwMswfHoCkkYD+GS/V+F4gFsGUsNyj+GmTfON7gz166Im5knxF3snKCYxth05rlZoPsr5Um7oUFZgE7wJNZADjweeJHL8zqQCi/atgN8EufxAFR7S0g9eX08j0LdNoCeOjL+LeakqnndDZlitlS9dwlOAIqdrqoOZfXdQOA/OBSk1u22livi8FTAW+KvUniOe8rbRdgz5SX9oK3QLQPZgCuj8khDm2EG2OTsuZDthP2GrgNq80fKWcBTpy9aJ6QY6E7OVPz6Yf3mfv33LrDgubPir2Sus0CeB+B95npYsmUCxOpsfIVM1Ls3Gew+bJH1w0Ajo9fMK/JfsspORMgg2GYzMP0Xg7nq7u0X449TW5wSNZrZM34ZEH2zLY3TYYV4VdkANAb4rVv+/ngoCtoHAj1tR88J58DznWs2JVLF1vfAD0PgR0zaU9QByxgnzdwBCAJrAHIpcU53dAaM9S/ogPS51dE1w0Ali9ZYpYuXWqW9g2ZrGiPSYBOvnXMr/nfG6Wls32yMHCRWSWru9uZ0kW7vnb4dLAa/L1hq26spXUFLZ96TspBQX8lx0J38khnHA6FQ6KCyb5uNE9P53eZBdxkJA6jwwggZwqDuWrpZz9pSg/s7rqadt0AoJDPm+yaNeam7EEuiv3tMAwzAV1n+veWwmn5Vrxr+5a29ouPjI6Z5w4c6rXtAu8q1hW0HAiFa/Bbf/+Seet457ZCDYpzlV/+1EOyNXCoN9Bf4P3gvaQenJVlZLGzLH8xZqKUWnLwpBk4OTP357fSbl03ALh6ZdicPn1SPr6kZTsg9iOL8xmxYO8T8a3sRs3Lzslirrt272xrBgDTyXAIk5Y9572wkC0gN8N8v7gIzsliz6vmz7/9444dF4xa79+1yXysd0DUQu4A7ynd8MyXt/8UZrqqlZLJyt/tE9dS68qdcYs9n8bsujvr1soSc9vABiPvG6lcDgcyyTdltEgvLFgLYCp/2eJBc8/uLW3p+NKbx83NQhErbnthQVtAPojKGg97LLS01Xefec0cOHK6YxrDi+SXHn/AbFy1rG1fEh1ToieoZ4HAAuHtSBJ52bKay/RVTwwsrV7KLu46G3XdAGDN4ozZm5OVl/LULxQrsqis9/Rf6L0On8q2ilOfretaXyQzKm6AnzsoZ86netvAFnr7Uj8MALA18NKV63bL53SpRNSs473b1pmf/tB+mXYNb7+zltkT0LPATC2AXoi+WJUnUUbcAa4aL5tlU133OJWjjLos3ByryHnkE6aM5ZfyaoijSbEfozcMWMANKVfLg3dst7MArWp59PR5c/jMJXvEcKs8PbpbawGcBZGV0wIxY/O9Zzs7C4DvrV/48L1mmxw+BL8DvdCzwC22gCwCTKemy2kzLQ+gi+MVM17susdp9w0ALoqNjw0OWA+AWTsCk5sBXDL1woK0AKb/hwb7zQN7t7al3zOvHzY3JjD932vbtgx3i4nTMguQyfXNySwAXEN/9gM919C3uIl7xVsLyH1J1gBgQirTLwdjZa+a4qLeGoA57xy3ycP/8RVLTV8VvuYz7s1fZmJ6j4k5N/2MCsD0/5a1y82d2ze0zI/p/2dfPyqN2pv+b9loC4QQhwS5tQCpjs8CYDD42Q/cbbZv6M0CLJDmfs+qYeec5TiAVEaePLm0WSwOgRZ14ctK181ZXLh6yTz/6styHkDZ7jeGzd3/92xfXNAVx4Vy967NZrkc79tq4PR/BicL9kLXWSCNHQE5rAUY6fhagN4sQNd1h3enwvZhL0vQxbN5dVR2pKUWyfk0rd/jFopRum4AcHNsyly9OWmKU3IaoGy/wBYAfBHEXy8sLAugTXC86z0yAMCRwK2Gn7zylrnem/5v1VwLji6aBUjP7SwAppd6oWeBW2EBuw5FZgDSFVPJVswd/+DzZuntO2+FJrMqs/W78qyK6RxzdeN6k7nnLvuGgTdEGXt1TnhPUmctIDfoZYsHzL4drU//j9wYMz9+5ZD1sNVZZXrS5tMC1i/AHM4CfOL9d8iV37v257NNe2VFFsAgF6FaFWdAefEFcPGoqYyfjwi6JNV1A4D8+FWz4vqwKZhJI6cBB2/+siGgSwz+XlITCwC3yqrtdSuXtFztA0dPmWNnr4hTmd70f8tGW4iE4VqAuZkF+MSDd8gx0T3vgAux6d8bOsEHjduFVpap/xdk++tpOaa+20LXDQAuDWTNKXmrnIYnAHnAWH/M3Wb194i+mKHds3Wd3QXQSpUxofvc60fM2FSpt/q/FYMtcBq4f3ZrATrvF2C39KvH7t+zwC3QU+9dbAFZAlhNVaZLZqicMh+SRem7S9330tJ1A4BNW7aafY8/ZnKyAyAr7/8Z+eemAntzAAvtYsvlMua2TatbfphfvT5qnnrtsHUms9Dq0tOnfQukZO/+XO0IgHfAL3z4HrNiyaLeQUHtN02PY9YWkJfPCnzRpE0hPWHefOsFc3HkzKylzreArhsALB29YZYfP2Yyxaz4AkjLVjEuBGI83ybslRdnAczOLB7okwHAmjh0LOzA4VPm1MVr4vyn+0bSsRXqAeWwNM4CdH5HALwDvm/vtt4hQb1+Nv8WkPfNdFo2KmcyJj+QN0MbN5l+OaW220LXDQAuvXjMvPnn35aP/zhXXnYA9I4CWJB9DsOxxeIAaOOaZS3r9/zBo+JNq9LyjEHLgnuEt8wC0SxA59cCDPTlzU99cL+cMJnv7QK6ZS38Hi1YPM/AI2W5NG0m5GTag1evmvOTk11njK4bAKzZtM+s2f8hsyiHqT95zMhIrDf5vwD7nTTNxtXLZBagvyXlrt24aZ4X3//pTL4l+h5R91hgLmcB3nfHNrN323q5GeOFoBd6FpgfC7j5Zjx8xAuduAPetWG9WTHUOwxozq2/bF3JbN+aM+l+PPxxGEPPD8CcG30GBWBwtnXdSoPz3FsJOEP+1MWRnu//VozVZTRzOQsAB1Mflx0BmIrthZ4F5ssC8EqZhm8T8QWclx0A6y5NmqVXivNVfMfK6boZgEunL5tzb5wwo+M3ZQYA08XOFr1ZgI71ic4IkgZZL9v/si06AHrl7ZOy+r/cm/7vjPUXnJTaWYCnTSdPCvzIfbebTWuW93YELbhWf/cqhFdPOQOomirLzNNUwQynC+ZqaazrKtx1A4CBFQNm+YblJl2VPQDyluke/G5Cpuus/y5WuC+XNevl/PZWwvhkwbwm58eLY+1WyHs0XWiBaBZAzgh4prMnBW5Zu8I8cteOLrRKT+VutYA8ceTxI2sA5A20IscBHn7+DTN6fqTrqtN1A4ALpUnz9vS4nANgTFaMj5EYBgHtDwHa5+i61r1FCuPC6O/LiQOg1lbFDl+7Ic5/hud5+r/X/vPdPcJZgKud9QuQlS2Bjz+wx+46Qd9rLbRK15q0HlW3WWC27S+rAKvyIUCeoMVsubrt7tvMss0ru80I3Xcc8CO3P2h+9fGfNf1DfeIMSE5ktO2onYImNazGtfPRQPPNpo1bkQOaZnTN8O3qyDLj5BLny4yDR/w4AwCe2loJbxx7x1y7WZAttWyTSE6yLTQdS4qDxeFYFnFJcZLMJD4f14oc0DSja4b3y22WZ5lxconzZcTB4/jJhy3T8AswaD/zfO/ZV80BmfXpVNgv503s3rK2yWcArV+v/SPbsy21fYgljnnGcfA4fk3PdKOY/IxBp9M+XxwuDkY+jZt5+0OKjDPl8W+qWTkNMCPO6YbXrjKTLb7wUJuFEHfdDMBLF46bv3jlKTNZksOA5IZSEUcAbhmgNqduaNtcaDL5Y6NrmE77MoBDaMZHGY7a/fowyiJc58HBPNIsD2kEzUM6xo7C/ZKOsGZ50jFGuT4Pcbo8pON0dLR4CVsiWwCXLm7tdKw3ZAHg5LSs52BRKhWCQr2oX6CPfeML0iGxzmt6lqBhOh0KkAThgDXj07SU4cOQRyBc5wm3BPLD8pjXPD4faRCTjrBmedIxRrk+D3EsF3mk43QkLWkoi7ziPjXXp7wDdm4twDJZDPiR+3ebjB1EsjxfD+qs9dLpOP0Ba8ZHGY34AadOpNV5jUea5SGNoHl8PkfhfklHWLM86RijXJ+HOJaLPNJxOpKWNJRFXj9PeuKZ92XHyQt4bsn1D31ER/FBUyqXTLWYM+NjN8zU5AQr0DVx1w0AMmMjJjN83mSqzgegtIP8w4cAP7CzabiiUsmIgkDE7IRI8y+ijCkwQPq0fl7JCIWABkHHSXyOOtLLp201H0fny2YesaZHGkHDovzKpYtMn3gCbBbGJibNoVMX7WDO0VIe5VOmxERpoWymOmQcsZKpkpE4AhFTMNL8iygtSGWjpE/r5yNKJxd50CDoOInPUUd6+bSt5uPofNnMI9b0SCNoWFyednTxXK4FeOSunWbV0sV4O4vRizDEEqi+ywW/BCKm3kjzTxGTVIFc0qf185qBQuLiJD7KIA1jH94sH8fXiAdwTY80gobF5WnHIA7JmZAYSfej5FkgEBKCNCINBoriLUIj44gVXiUhxgUCEVMw0vwLyJCXh7/93CTPITx9+i5eNebKKAm6Ju66AUB2cIlJr1pr+ory3C/JYczwBBg7CmzUBmhMCWjfIGnz4Q+BjENEbYL9owbq8XjZGlJkgG9EE8LDhGP3sg4Y89uIDvBGuBgxDUEJMnBhrJQbcV4WAjYLI6Pj1vuf/ZimdbPyVSFIwuaxdmcpiciAKJAJUiWeEiJgLDIiiy3K4/GyEXOQAr4RTQgPE47Jy9bJJKARHeCNcORtJW5ZBgkZ46BH8Q6YzZlLV0fMN558QdbzdGYPP7xO7tu5sYlPgECPXvu30sqNaaLmbExjMSRUdue1Q5TOE2ZjZkQQkqAjrZXt/yQiA+JAJkiV+EgSgYwjDFO2FEFXZQVgCjvRRNCOZRvN2oEVJOmauOsGAJUrk2b63IgpT5ZT8vg3poyRGJsSrRJje8Di/nxS8mpaTdMIrml0WvdHyiaeeXZE5olP4gUNdSE9YUl5H6fLpDzGSbTAxekd8CJasWRQ9sc2HwCcOHvJXB+Xzzkyi9M0QLAfavSVTBINaRnHyQKMeF9WI7gvh3ldpThZoIuzI+GU4/MCTl1IQ1hS3sdpuZTHOIkWuDi9yUu5OlY4DPYyfW4twHefftUcPnlWlzbjNHxOfPCeXXbg6WYBAlGq7NBu1E2XRpim9/HEaXijdK/9nWVoMx0Do+3TyIYaDn4/UKaFSyaJhrSM42QBRrwvK4DbviW6pzPYB5g205kp89baQXNxVc6XuODzXTcAEJubRfKXWSQfAeQBgz0AdjMATR13YyIuLm7U2KBN6qCaLymtyySdlg2YDjqv6Unj60Qa8jEPetqCvHEx6X25oCWOfMwzBjyWryrf/wfEV3YcksJcfPzsZTOJ0/9qwY11Z9mMG/EB30qgnDj6OqWUQM2XlFYsNfakbL9cnadcLYN8hJGGfMwDD1rCSe/HpPflgo448jDPGPA4PtIjBm1McLMAeXP24hXz199/tmOzAA/esd2sWobPAA0K9nVhXeLIk+qm+ZLSujzSAUbZfrk6r+kph3zMk4Z8zLMMwknvx6T35YKOOPIwzxjwOD7SIwZtXCDcj0kLucQRhhgw/adxSJMvjtenRb6ZrDiegA8L0FOyGSA7mjK5N06a3OnrjagXLLzrBgCTq9aZG3vvM1PZiiwALOM4IHets8EZB41U04nQOdrpsEmdI65JKZtxnA6NYISDNyjXVoWy/HqBXoeALpwMAY48gbwwr/mYJq2fZ/mE+7EnG1lsy1ohi7KahbLs5Txx7oopua0cteTUh/JrsfU5TU+sz4u6tFIfn5+yCW8UUzZj0Pk6NIIRDt6AxxZLWVoHnQYfQkB3q9vfKSO/0JG6h8AoYdcCyCwAyL7945fNkVPnIuQsUnAIdOf2DW4AAOHaVtAnQSdbrKYnv4Yl6UbZjEFLGZovDkZa8AZ4Wyxl2UwgRKcpN6Drlva3aqMerC/rwZh1RMw0cXExaRiDxudFWbRnnAzyEEd+LZM4G8s5wGl5GV2RN+kleZNZ1prX0xoRtzjTdQOAXdlJ82j5msmkSjIAqNitmGGbNmooErBBZ2L0RrK1rFZoNL2fhp5KhlVb5es6tOYP6LAmsqNBl9+S4Kr1/rd4sK8p9Zg4ADpxfrh++j8os+Zm1lSaEDTSlSYBvhFNM/mt8LVCk1TOu6L9pYLa3o3qK7bijoBzl66av/3Jy62/tTeSKXB8BnhATgis8UCp9ZlpG7XC1wpNgu7+w9CqrWUirfNaVgC/9de/KKXtrXVsNR3UZYFf//IlS9zRSV1z1VIqNSL3sfHeDECrTTxjurH8MjO6eoss9OmXawHjF3QT/6pAPoLVThGgaOIjGkBrQyMcy6vHOz0EXo+qFR3mQKiIVTIkCRP1yKjeGqfTIXOQ8HHI8w8kPj5gayEK6y60uPkOyVHAzcLYRMGcH75ePwAIGFu/mfl66zpJrex0sKYhXsN8bRvheu3vWwp53f6tdqOUeH7M5Afs3v1vPPmiwXqQTgQcEYxtga7de+0f2dTv0/514OMjzmapmbS/lZlQ5EK9/oP7pK1yRU4DrNyoVHP3PWBSq9Y3M9OCw3fdDMCJA8+bZ/7LH5rp8oTJwwlDSg5lDoecsG99j6rFN2oD8iHW6XqZHOA6uog2uRw+OOrLjy4ev2ydR6ksy+nk9HDcTqrDa0itjo6vHgaIlu3TaT1cSb4MV3fRSEhzcjAL1gA0C+eHR8T/P7//+2U00kfrxrQuyefDC0nUYpqyNk0+rYeGRdSRtFra5HJgYcqLZCHl4JRFGj+PUolzXE4PLdXhNcRvpyivZVEHyGXQ5TNNHOJaWNj+IVzLZ1rHLp0JdgSceOeieeJHz4cPbV1Su+ntG1eZXZsjp0DJ7ULp9bq5OgJPnKPttT9tEtllpu3vLFovz7d5bX9DuSybMSX5+c5f/64keAKUGei0DGIHl5s71t5m1i7ZRCW6Ju66AcC69+03qz/2YbN4+ZDcLMQTYKWCHZlicP5pnwCEIQYF8zYb/MTBou4VUTo6JymCuhShjAF19IyR4w2bMMfr4BGnf6MHNWU5jtobvJbr8E5CLY8rk/w6F/H42EgnaoySG8ulVJz/g7Pam4Vzl0dMoVhiBYScdWfJLMvl9W9Ey1JJ22v/W93+UbuzTQBxrRfFDpbCDbRPZgFkHcgTP3qhI7MAQ+KEav+uTd71hpK1PtQyDlarpaN0dKwFuSMcUhpLuREf2sXREGcBYa+PyzmOWvqFfv27ejjNI5ugDoQFydBexC3865+au6rIjU78ABRTY6b89humcrkzu1lqypjjTNcNABadu2zWXRg2lfHJVFkWAValBnAFgOAuEx4QFMFcSj1nCKiL2RE1bQQDubuIo25NEbVUtTnNR/pGsX9xazontbZ+Gq/T1FPDmCauXktSuJh0yDGNuJ4PEGoni2Jk9f9gC58ALo+MmakiHDpH3DYT/LCcSHocNtLN0dXahzLAyTpoKbXpiDqijWBaRi2U+lOaj22lbMfb7e1PC7Qewzsg/AJkTSdnAe7bvcUskj6oNwNEbdpIu6jdItoIBi7Ca6G99vct0MjC9XA9LKu1KnOImY74I4huE0hjHrQRVdR2kQw/FVFHMiKYTy0LAFMZ2elckTee66sHTEEWA3Zb6LoBwIlDp80rT71kCpNFOYpJGrWCKtQ2ks5FDVnbNJqGacak1HmdBp5yNVynKaPVmPIQQw7/wK9xyDcKLJ+8jOPoIZNyNZ4yANNp5EnPOI4GsIzsy8RirKSA77OXRkbl+6+Tq2WCj2UjBo5/wMUF0gOn075c8moaphkn0RBHuZpHp0nXakx5iCGHf+DXOOQbBZZPXsZx9JBJuRpPGYDpNPKkZxxHA1hS8GWCNq1nAX7YmVmAO2QnwPpVSxt+UtB6MM2Y+uu8TgNPG2i4TlNGqzHlIYYc/oFf45BvFFg+eRnH0UMm5Wo8ZQCm08iTnnEcDWBJwZcJ2jhdSIeYeF2uXwbpAdfpRjyahmnGlK3zOg28lSs+AComY2T4alYUJs3SVnyZUPgCibtuAFB5cI+pfPHjJiXfmFPyrRk2x9eYsFE8w/oNBzRhjP1OAjj+4ivLoK4AAEAASURBVOCaH2kG0OKPMgn384DHwQjXuEblUzZj8pBex9SJNORpFJPex5OfMfEsi3nEOAo4I+c0JIUpmfrHDECdkT0mXz7K5x9JkQedTwu8r6+GEefzUX4cXPMjzcDyKZNwPw94HIxwjWtUPmUzJg/pdYw08KQhT6OY9D6e/IyJZ1nME8+YcB1rHNOZfDALcLYzawFWLxsyWAwYN6PCMhnH1QG4ODjqQT5dJ9Diz8f5efDEwQjXuEblg1YH8pBex9SJNJovLk16H0d+xsSzLOaJZ0y4jjVOpzUN03HywaP5kAadTwsZmg55BMIY+3yA4y8ODn4XxAlQuVytVMpmWv4qGzaYsRYcn5F7ocTJd+mFoqXSI1cclHMAlpj+yoDJ4jAgu4fcDb3YoIq8Jkk8OwsbmA1eQ+xlNC1QcTyUnxQD58vyigrxuhzK1LSAaTjzPiyOR9NovE5DT8rUcJ328ZhyxRkAzZwATU2XzJUbY1JX/c0+kqxt5JdBKsB18PMahzTxkM0/wolDPi5ofYAHvc/DfFIMnC8L8nQgHjDQ80/TaBzhpEPMoNOAxdGQ1o+hB+l9HPNxeL9M0JIOMrVcpk1aBo1cC9CBWYCMTMs+LGcDYC0KPwNQL+qAGIG6uVz8r6ZtxEP5STFwviy/ROJ1OZSpaQHTcOZ9WByPptF4nYYelKnhOh2Hj5NNOsjUcpnWMpEGHIF8jWQ6KvcbRxOHpw5+GZrWT2ta4KQsuXWl7YNnqlAwlUuXZTfADZ9twee7bgCQuXzSLDr+upmcmEjBgUwqLecBxpiZHQc4pkHGNGIExJqfcOJ8esD9QB4tBzTI84804d3IExLiBc40Y480NgtalkUCH5YkDzj+aX6b5h0UGSGiHMakd3HVumJN46DshDBdLpsbY5MhBWUh5h+Qvk1DhiAB2jgaygCOabAwjRgBseYnnDifHnA/kEfLAQ3y/CPNu7/9pdJBZVlnxrAF0sxLMkwDF64FkFmAb8oZAdzGB7qZhHtu32LgGKgi/ZdlsnydR9kMhCOvaTWctIyJ03KAQ55/pOm1f9TmsBHtomOkmfdtCh4dQBdHQxnAMQ0+phEjINb8hBPn0wNug/QpOKGDC/OMDF5PX71ibk679Uwk6YY4+S69AGuwOl02O0zJZIrTMv0iAwAZh9nLmy2nHlZsWMZsOF6EIYtXzxr6EEdqAagyiGZHsXmFr4EHxPrGpvG23IC3kQ7UgrGm07Kohw+Lo28ky6krWDfB4i5Kp6RLB/VBpMsBecCiKGqTWPwHPwC+PjVUIjROtxoayeiyddtQNmPLB/sGNqZsxpRbQ09gqAkK9Dka6wBKn/rd3v66UXXd3WPYQXwbA4oVVdYvgBwOBO+A5y5fC60/k8Rq2Sn08L4dWh3Xdr32t+aEzfkHgG4T10qASqrN618LiuRAUlSaLgulIGhaAgiLo7c0AR/p9LVJHsZOplDOuv1hkmDzmWjd37/YbLheNisnmp9+Sp0XStx1A4C+5SvM2q3bTFlW+MouTPkEIM3rzwGggeUv/GcbHF0k6CbCYjtF0BHCjlHTKo6+pvMAH/K41aYOH8hlOQK0ZUs+4nc09tAbuaBsLsBThrtAnG5Ih7yQa2U7BWsfIEHZVjetn6TDpzBpWALyEQysCIS4sjRNgLU6hFSWx/1EMKQG+nJN1wCMjhdMseS2AKKetq6sI2O7vcPpAZDT3uWtthao8tQogIPe/rPySOcKqykPfJaGAiwAwKgNiArpeu1Pk9i2CDOwcxACW4XtK9Z0/8jhaCO8vFXZtQA56xr4b3/8EiXNKIZDqscfvMP6pHDXTKCbFNhrf7YTY7aJmNq/Xqz1hS6E+80RyVBSAnpna2vvZu3Pa4vxQrz+A1tIf5K7Kx744g04UzFHh7Lmivx1W+i6AcDU2JgZPn/BZFMVk5M1ALih1Ny80dPkzz5o0S/ZN3VatxI6GztckLY3i4DPpUEDWQEw4AfO4m1ecK6XO2xAGvIDGtA7MnmASIIPKYqwZIHSIS8YQtlBOYGuoV7IywVj6w0g8g7pokCmFuMQDmJ/KdMpEfBBDOQBqIMqwxbl8rI0RhM1TE8UigZnASDU2oD8QYzIJuVH/js9LVvt+IY0IJC/Ru0P9SpygiTKDu1LnW09gza18qTIAGZ1IJ0r3uIs3uapHJEuDvmRFX7kbR1E4Lux/SM7hQYM7eTqjWYUnLWrNYrNO5i0G3YEyCCgJJ+I/kYOCbp4ZcQZcoa/d+3cZO7iEcGBSjWirB6RrmwjWw8hDNsPJKBVATiLtzDBsYLIhyIlQb6Avtf+gU2sjdDy7p8zY2C40IC0JXgCEwckNe83FhYQiIEbXf+2DP2DtlHtg7Rrc0dU1/4BLYqTKWiTFm+Wg6lBc9/SNWZrfqmW3BXprhsA5JYuNZWBftOfG5CGkse/7gW2MdEyaFM0URD0hQmQjyfdTGPbGwJmndblKnV0B7P9XOGsFC0DAOYZB0XVRYLHpWTpNZ9KWzwZrTzQIyEB+vLPAuSHKNbF8kRwiycuBAdMlBETTxSmwgGAldGIResjaaoKnjBN+Uo3v/2RR19Zt3KJeVSOjP3Uw/vM2hVLavsJ5bQbs1zw6bSyi4UHct/N7R+aDnbwAupdU3fitc0E5mYBsuawHBD0g+deJ9WM4iWL+m1b9+fVUa1SntVjRhJjmLT+Ot1r/xpjtdr+NUwduv5rZM66/fHckT4kUVl2M02Wx01ux0ZjVjY/AK1GjwWQ6bo5i5R8b+mXLYCV0fOmKrvIyrIOIBcOAhpYFBflTEISXxzOh/l5T4cadE3GI/SzSbRJOMhpgMfFaTt1Q7yvREK+gQzNUZyWrTN1T3BFARm4+ClLpxVZK0msFcG2sJ/72PvMZz9wl9mwapk9sfClt0+Z3/6Tb5kjZy7JSB4FeIFle2CbjcP5MD/vyalB12Q8Qj+bRJuEg5wG+I62v69vUj5GnxR2BIhzoKmJm+arf/e0+cQj95rVK2b+dvXYA3vNX/zgJfPakTNNP03VqBqjW4iPw/kwPx8yu0QNuibjEfrZJNokHOQ0wC+k9rfVhZ76mtdpS9DGT4M6N5XQkA8DWTGl6FSW0wCnc1Mp8TolLoGTfZ80Le8WEHTdDEDabDbTax8y2UlRXaYJZSWm7Se3wHazL7JhB5u96JlISHoeJ8rT9bBXhgbEc2IbIAZvMY/diEGL0emIomkKg4x9Mjr/nd/8kvmtn3/c3L5lnVksrmLxRvjo/l3mf/rVz8iAQGaVZlz5pio0JphhnRoLnB1mxiaYg3qk5ZAgeAc8eOSU+e4zr86qYmtkMeDnPnC3yckx1QsqzIHdZlO/hdT+th7aPjo9m0p2gDdQBW9MVRxrnU3lq4veuWD6r93sgPT5FdF1A4B3jv3QHHni/zFTlQn5Xpi2hwHNr8l6pXXCAmUZvOGtYy4DHup337bJ/G//zRfMB2XaP845EQYBv/Fzj5vF1m3s3Oozl3V9t8m2OwJkFqAgu0UwCzB8bXZ7rD/9yF22L8jZIe82U/XqM88WwEuL/Mn/SiolToBK1yZTb33nJ+bCy4fnWZPZF9d1A4Bl2ZVm7aK1ZlFuiUzjZq034OTXyNkbqSdhLh+McyMbD//Nsgf8f/7HnzV3ySCgUcC6gM9/8F7zsx99oKnzokYy3v3wuWmjZnaz3gFla2AnZgHWrVxqvvjYA6bPrgW4NfVpVt+Fi+/Zq65tsJhKZjDL8h2gVDTVRY88ZFJbt9aRLXRA1w0A4DFsLCdbAKexBVBG8zIOw4tk1EWj1OyN78tCnjDGKEWnZ19qsoR2ygIt/xpJjZPnwzDmZfBxhLcfQyoWcrYeWinbLTTDG/1/+8XHzH17tjYV35fPml/76UfNfbu3uj4VcvjlIU8YYxDrdMg8R4l2ygIt/xqpEyfPh+k28nFxchvRAN4IVy8nlZXtpPm+js0CYOHnI+Id0HkPrS+vHuLrqvXXOJ2ul9JZSDtlUd8knjicD7s17V9vN1+veop2+lccdy3ML8/l8YvnP14e8uKOvr9/wOTHr5t+2Q7YbaHrBgCLs4NmY/+QKcgxjDgN0F7MYTsx4Zqo/uYXh0eTkd5vPvuIisFTDnk1H2XFxaQjvx9THnlJ78eaj7SMSUsa5hH7NHE48pGWefIz1nimnbyieMRq9k09J7M3bt0deeNiXz+/bD8PGRKk2T798F3mc4/utxepAyb/rpeFgf/8Zz5iVi5drD5N9Nrf9RnaLrBv2I/i2kzTkM+PyUc4834sO62xFkBusp2YBVgqi4f/6U9/0KySBaHu85PWlWnqhLjX/re2/XVbsH10HwFe5+NoCCMtY/LpPNI6xLV/KE+QkoavgiF5Gc1OYzGgZu6KdNcNAI5decu8fuw5UyzfNHmZDZAjGe11iqZyF2yc3dFo+ENg7HJR3m9szUNaP9ayWqUnT1xMGMuhTB1rHNOu9i5HWuIYa9mkIYwxaf2Y9D68Po+HelEW+DX71oq37ui8AK2/lslyG+lHeMSPgcem1cvMr3z2kaYnEuqSkP6ArAf40uP8FMCyfSqdZ/mAtUpPnriYMJZBmTrWOKaj+jfWQ8v25WkcZeqY9BoWl9Z6AE8+xoBpGsI1DDQM8pZlZwGwFqAoawGemvVagPfdsd38/MffJ4MKnkEBHRCgA/XRsUU2+CEv0ORpQGrBmoa8OmaaMkivY41jWtuPtMQx1rJJQxhj0vox6X24n9d6AEc+xoBpGsI1DDQMxCOOC4Q34icP5SBPHo1DGjJIp2PS6VjwsgDQBlmGfkMcmr26YoU5Ko6nui10ncaPPvKI+cVf/admySK5gGUBRlWcurhLmY020yYAf5eEOlXrALeoIk6PySlx8tNksVV/jbfA2eof8WfkDIKf/tC9Zres9m83wHPcL336YXO/fDZofZq43VI6QB9VNxBWB+hAITMR0YoecTRxMJYvntbsLEBn1gKgjX/lM4/IotDb5f6hy9Vplr1A4zpV6wC3SPFW9IijiYO1U4XZ8qOs1mVgqACHZ9IzZfuwMblKxuy74y6zfvnadpReELRdNwA4cPaq+ebBI2a81C+fANzDX5qufkF56+25IBri3aQE/Pw3e4AOyiltblV+5xoKZW7bsNJ8XgYA0exCe5ZdL4vF/slPfdAskeni+k7VnqwedScsIO6BM1gLwB0BT5nLV6/PSjA+8/zWz33M7Ni4umk/nVVBPeZbZ4HO3Vbq6gDRWLpUrVasO/PKRNmM/NFfmOJLh+poFzqg6wYA09cvmNKRA7L6X46SlfnmrLgOlWA9AtcYG8O0mYaZdJ6Z8MxUv07yJemdhEvQAWsApuUzQFLA99icHBvcyYCH/qfk2//2DatmJfZDsmXwcx/Y356MGdqqvULmgDpJ7yRcnCpJ9Em4OFkaJtcyZwFeP3zSfENOCpxtwM6Q/+EXPynrARbXDwJmoutMeGZbiU7wJ+mdhIsrO4k+CRcna7awubz/sy72qSMF9WfM6eIFc8HM7vCq2VZ5JvxdNwC4b9Mu84WP/ZRZUoYTwxT8umNBpl2LEWsANBb/fAI2ZByeOJ+nUT6uw8XJbcTfKpx6MW7GRzrGPj30TsKBHnj+IY/g5x1UflPWwQ9c/SaFRf19Bn/SesmB5TCOoxYcpnPx9o4BAAaGswnYKvaPPvOw2blxTf3DoZHguCKTdG4kpxkcMhEYu1zjX9Ix9ik72f6NbIAy43CAN9ILOATg5S9tTwrstwPLP//W35sTcmTwbMMnHrrT/MsvPS79MO99DgjKbaeAuPoFurcjpikt7cW4GQPpGPv0XdL+7Ae++jbfqG5AAsc/S6x+yBeHJ06RM4nbC45dMVU5i0bSeAnd8L5PmnUb7yRJ18RdNwB4Y2rYfPvGaVNMy5HAdgGgPP+lNWx7sSF1jKaIuzh1EwGvaXReP6GsXFuS41ZJLc4pUwNpnKGujSkcxi+b9NSBchgDr3GannDCdN01v8ZrGsL9WHhBVipVzM3xCR9bk8/nsmbFkkUC85UJQFoPtgdiwnUsYCz+e/iu28xtm9ZIbvZh1+a15pdlPUCf6Bl+CrBl4icIKkmQjRvBa4iUjFboQaP7ImWR1+JBE/wBr3HII2i8g9T2/Ub4Fts/lE855LN5+amJRQHiqQti8iJGAI3caTELgIHA0dPnzdfkoKBmO00sb8IP3D9j0eevf+HDZgCDANrXlhcwEoYsdadM6sc840Zw4nVsZWpAg7RfNslYFuUwBl7jND3hhOk20Pwar2kI92Py6ph8FiY/NbEIIF7L0vyAg4Z/Gsc0aJj2Y+DiygCcgbLj8nXtH5jVnnombx2Cz5XljJFyxiy3L6UU0h1x1w0Axo+MmBt/97opyEOmAlfAdhAWtLCNdA8IGgEgBjQoSdgxbF7B2eiAI9TRB7QOG+Gt7IAYEfUhnHKoA/lRAHAIpGHaAoMfDDdDAs1D5jgmJSAkCxKI9B9IQ5sIQutdg0MmCDX8khH+kizOHB2fJEVsjF0Aa+xhPApNWRaETBAIVyCnuMNj+Dckh7584v13dtTd62fFfexD3DeOsmtsQ+UkDvWTBGwGACJLH8DY5hYd4EMRKm/xAQJpHbqh/aEv7YQ06x3CUKkwA4oo6LpbAwaoAO5mAcQHiCww/ep3nzZvHj0d8c4wBZfQv/b5D8og4ENmQNJuW3Fg+CAK25dqs04sk3pbeJBBZOklQXgNHZkRgybIkyYAB1AXvcfbP7SRtQYNFlgItqa9wwYLcJqUbQdY2J6S1nCkEciHOKSXRJCX1Sl2trGSLZszzz9lbl48Y9m66afrBgCrV600q1etMv2yiKwiLZjCNAwtjobDRWIvFACDlmLMhg3zAQn5Q0GSsLTgB5AtjpghSNsowBPFOCwPMignQNos+ZCRYPV3SVskYSzDygtoAzKnm2Qs2BI6TKg/CVlWQEOZrFtIJggrS5cjsLAuLCtkCOiZT5npUtncGB0nIDbGjReH8ti3rlA2lLKKSczyNYxp0jjRmP7Hm/89u7fEljVT4HKZofhV2U64YsmgpyckBjrYiHp5JYX1Ql3wp/S2WfIFdQV9kAxJAbNsiJEgAcuyyAAcpIGytCpvhSAfwGzEfAAjny1ClyN4Kw8EEjQK8mrygrfi8GMTDm+TJAzgwNv6qTx5QqHAER/4BRAfEu9cGDZ/+o0f2S2nQjCrMCD3kn/2+Q+Zfy6Oo4YGZYAR6oRyoXOgg7YBdbKqBXhfi5AeMignILJZ8iEjAfRBkuKdfSzS4UMCywEml7B8QdqSU7amUzBLyrzNOMJQBypihQVlB7I0CuXX5IWmRrbkgbcwErI8iVFeaCfAidO0hBHPvJDbIHnKmaf7vywCTKXSmHs2Zro8ZTbducFk1/YOAwoaZO6iG+sHzfW7t5hiVs5zlz7ipv9Vh2BHqOuVcTqBj39IMq3khR0yib8RjnDKRT6QHXZ6wgBHhUjLmHjECAG/n66TZwkCes2j4UwjFhrKCHXQeJAENCE+kIuI16vIwUl/10abH4yxee1yk+dCQJZti4RA/llAkGeacUAjZT+0b2fwSYG4zsT4rPCpR+4WbVCWH3wdNV7Ta7oAHlvf7m9/Zyddd7GJ319gprC/BJlYe2g5zoYp2RGA44KxzuPbP37JPPPqWxAw64BBwK/JIOBf/+PPyTHRS+06FidU6+AX43TyofV8mi6QF1vfXvtHttM2AzSwmyMIfn0akAnM2ramg9VwRRnyB7ItH2GkCnDM2pdLgQEs688QLe6Tw8SWbDWLBhu7HCf7Qou7bgYgL9sAB946btJFmFIWnNkmQNprqLo8aBZ68Otw6/VtTSOhCtoBl11JpmivXm8+ANi0doXBjbe1MuJtgWKXyFGc79+3I55gllCcIPcLn3i/2bZ+1ay/OTdXZTaWaC59JhStaSRUqv1bKie8bkHdWimUm8kP2rUAIzLI/KO//p65dqN5XyNvUoz1Hl+UNQH/669/3uzeus5+DmhPsyTpreDmt7TOaTS/7d+K3u32qdZkClXUb+UkQBmG4jCgiQmzLLvCDE4PtCxmoRB23wBgZc7s2LPBTElDwI98tYJRcyujvWST+5een0/mbh87V/JnIjeJh5ZNovFrL3Nj5srIqCnJGo2ksGPDaoPtgOHiqyTiBjhM1+6QbX93ypG/cxX2bltvfuax+w2cyHQqtGPPdsqcidwknpm0fzv6zoQ2JauuM32yIFAWAD0tMwBf+8FzMxETy4OFgR+XtSS/85s/Zz7ywB5x9CL3mOimH8szE2CSzWcijzwzkZvEsxDbn3XtZOzbwM/Hl5WqwvGYuKs0i+EGOJu87ilexq2Fdu6ONk/1GB1aYs6uFS9vYngob90AsJfOQgdfhJ+fhehY1rmSPxO5rfC0QsOK4pjmy3J8KxwCJQXsAsBq+9ndYKtm/+1bzLKhwaSiZoXDdPM/+Mh99lTBZh4OWy2oHXu2KhN0M5HbCk8rNNSztZsnqWcWp3MyAMjmTVH62H/62vfNm8dOz0xQA659Ozea//Nf/Kw9OwAzTJ1qdxbXjj3J00o8E7mt8LRCQ/3mo/1ZVqdiv35+PraclCxEhyvAvkpq45o+s2QFtqZ3V+i6AUBpKm+uTaRNblrWAMhhQNiNITGOYUp+2nRXu1htky6kJNytripmAC6Jt7aCuAROCovkxL492zYkkSTiMHDAJwSc+Ic3tbkMOCzo5z72oD1fYA5eCGNVT2rjJFyssAUE7ITuGGRm+vApIGNOvHPR/Pu//I5p5nuiXROsXj5k/vtf+IT5P/7FF82+nZvsQHW2Ww/b0SHJTkm4dsq4FbSd0p1yGM9zXVLYMVLFfWc6Ux0/ftakL9+YZxVmX1zXDQD6cyWzKienL/VhC2DG7gSwH2er1UTXc+wkjH3TAe4WMDmMy/tUEU5jKFPza3xSOuKtl41HGmUy1rLI68N83ePoNA/ScfLraSKIX0aEkVkZuTkPyyeAkdExDY5N37ljg3MIFIt1QFdWfS0AwU163xxO/2u14GQIBwZVxAWoDtSsFRtqPqQjXodhHrlubX9/KKbrxHq52rb2C/4426azfSYtR4PjHvx3T71svvX3L7YmsA0q+KtAu/+7//EXzS9+6mG73gSzAXrWivWL07FZURGvo2QeuV77RzaJsy37GWNHHf9LuzL2qQDXZbi8T6XyQoCZQbyE3qyOmpeOvWHevHhMEXRHsusGAJVr18z0iWMmVRDHINIAcP8qizESrY3GdBdTHBmwDm89OwYkTqLDBSAV1cJZOvh1J1IMYbKW05ULJGWEhEGCMrVuEY0vjRi4qXIB+kTp6IFDSsbx8ol1cSQH5bq/2PpKu0wUps2Z88O1AmJyd2zfYFYsXRTeUOPkoVzqBzxpcBPG9r9VMgiYjzA02C8LAh+ynxv0A4B2YVsl6eK3WMQbz0WZrH8tlS+NWN3mOj1P7R+owXZiHSPtojYkjDF5mEfcqP1xA870LbILAscmCub3v/wtc+jkWc3asTQWgf7rf/I5829+40tyWNQ2OU0wHS4SZP3YVkmF+i0W8cZzUWav/Z2lXM9xVvRtGW9B1+fBHU/voMBrG7O0eJngwdQzDgPKmnz/MnNjx05TWd/ZbcjxZXcW2nUDgGWDK8zqNZtlC0bO7jeXhrItWN+4tpGCB4tL4/HsGhZMAR5NGfyLTOuk8eIj3PHojuJkBCpYMnYi0pLX0bjyfZwun/pFfO4GqPMu7XR0sqiHpnWwWnmkc7xab18n6qtpUC7pUE/IdvJdDagXbswTMv3firtWnM2+Z+v60BUr7ceyovo5iCszGmjtlQEEXArPV3hYHAN98qG7avqVthH1p50ivaL28HHOeq5NatvLccfBWGZkH58/Ks/XgbxRjJTjb0zrMKRLan/WR+tNGGLy6vJZLu2HPHkiOnf9gIa4lHgGtB4CZdbpiHgI/L0/+6YZm5ibxVjYJYAFgr/7r37J/KYcJrRxzXJRTWYj1Tch6g/9akPUHj6OdQG9thn542C0iZPlZNfyR+VRjuOJaCkDeF+nelonhXRsQ6ebq0FE4fJabwchPLKS44l+iQGEPJGete2vdQRtbXD1dAN12sLxU7YrQZdDCU4WdNFyo7TUzFZOZgKFdHE5bTYv2mrWZrrvNMDOnsZC+81hvOWu3WZJdSp1s1rMlKeqeXEC0y83gFW5xcs/Jw+epa7plAJBL0QEXJC1sZ93XGh0R2eva2Egb4hQcsAT0iMjAfQsxwLkBzQIcTjCScM8pVh4UIgvl7QBGtm6EHbkoAB5PtsQZENd42RrmqR0Da8UMF0syH7qxeax9+8PTv2rU8sCsM3u/JXr5tk33PSZloM0/lguJVgaAcJ96y9+8iG7kJC4uY7x5ofFiz9+9Yg8aApuGlAK1XpSb60L6xCHA53mZ75r2z+oOOqEwLq7XO1v2DcDMHmQpa18fsLDOC3umsvyBbBSMifPXZIZpSFzz54dtm1qS+tMbrHMBN2/d5vdelqS5Ufnh0cMjsC2QZSiXro01iEOBzrAScN8r/3r7ULbNLIj8DUBhBJo3yAbmycl2sHSBwny2gZyiInpsevfqBTHL2fT1UKpOlXMTU2WJ0evm2tnjjgxXfLbdTMAywcGzM5NsuWr5DwAcAegtIsah/PSiVqBFxeJbF5+gja2MdIY5aGNbZBEmBYAH5wgrpETkVuBkIPA2OXcL2GIKSMkJDLkhTYBUCkS8mnBIU8AFDY7mrbsSjDoPJHEMqZYP18HFwLKIs7F+DSTNYdlOrbZmQCgv3f3VrsdEMLiykTVVfUtDUb2S+RGfPsW2REyz+Hu2zbLroD77ecnra/VETYJ9GGs1SMMcWg7Dazh7db2d5VgHf32q7WHqzxpaApNQxxhVq5kSIsFgdn+RfIpMGMfxL//lW+Lg6C3ST4nMY6yxtbT/0V8Bvzuv/pl89gDe02/uLeuyICA7Ur9tAKE2TroDIiYD5O99odZmrU/aRAzgEcHmrambQQIOGgRu7/m93/QCZM8elLi86Qk487p1KW33zQ3L5wHpqtC1w0AslXxujTdb3ISp9JZOGMIR/rsKGHjR60aXlz6IW5bSmjYKWouQIHbjgF80KSM2cLMh+UJIpRPIolJZ0GSCcsTRuBCHi0IdMAFf+AN0UyAQNGBBiAGO/0V0NpIfliWprP0HoA66qJsGnSkBSAgIAiyMIcCv+1nLlwxp+SNrFm4TbYC7tggJ+8pIbYY+YEeNbpIHkXi1rhZHAnhONf5DpgFgF+AbeLHACuBAxNYNWhfrRPqEgZVHzACF/JoQaADLvgDf4hmAgSKDjQAMdyq9rdKBIqgboGakf4EBDGrQ70RW5T8NGr/UGjAlMrk7a4APJjPX75q/u0ffdXOBmiZc5GGS+tH7r7N/N//3T80v/0vv2Qeved2GQjknCdBVEJCEIUZ9ude+zvjdKL9YVzI4R/yYR+xnclComuNjSJx2B6EgVXSkGX7n2MN29HqK4iKHEovq1DlE+TS6h137jRbt83/y0ig2oyjrvsEsHj1dnPjytXURLWanS5M5SvFcn+6r39V3n4CSLtPAGhI20ot2sW2tKO1Nyw0vsBUf3AdR8slD2NVFGUoUF0SNGHQBRFIuRJbh9OEI9a8Gk6clgd+gdtObhMBQwCvraTDgSzUT8kKYSBAoD38WFAgmRy/afbs2GTu3bsT1A3DQF/OnJLBwktvnxI+DOgCUqtIPRvwePB+6N499ns8FoLOd4DfgYlC0bz45smab8DQA/pZeycoFdYRNMrGIQuqFNi169qfzcE6hJWKT2h71dgF/JSlWEET0gV4C5NZp4r9FCDT8pevWW+Uj9y7124VVexzksQR0vAe+FGZCcCAFp+Hhkdu2rMKsCbGDzWgXvuH10uNXWC2etPZtg/pFB5Ja8rguvFt3jAfMkbXLuTrZrHlUW61OjE9cf2JUmFiOJPOFkql6eKVkavlG4WKGbt0pmExCxHRdQOARXfebiamb6Sm0/3p6YmJvEy59YtXMLsGQKYElta0GiyuOkjDBgCNT4e87gENmMOO2CY+7FAN+KBPU5pGvBreYj00y4zSnv2g+3Rh0k7TP/7wPeJFL7mrwdQ/evHtwHmQE5ZUf3jl+5nHHpj1AUD29Dcxti2rjYrjpr5pzQrz8qFT9htw3E0e4hrJTaqbVUNM0JSmFX1hyhb6cSuiEmlckyWStItsu/4yEMSnp0oJ3+Mr1j8AZDxw5y6TlbUm8xHw9h8OBDbJQGByKnYg0LRuvfZvv//H9fVW+iVofLo4WWEHkgHA2PUnKsWJ4WwuVyhlKsVLy1PlSdmeXn3nnZCqGxLzc1V00BIj8rY4cv5kamBwTTZdMuJIHjMAwSJAIwOAXlgYFpALqFKeNsWpgvn0B99nlixO9tS3RFwCP/fGCXNW3tyaOfXB1PayoQHrpQ0OemYahsVb4R/+5d/at7XtG9fJDce/CyRLxmIwzFg8/frRjnuKSy65u7Cwar1pMSppz96t1BrrAOCIqiqDgLK4on5DPATi5NB79+yUwcH8ffGMGwhcFt8Y09OlwBadr3sr9rkVNPPZ/vNTv+pEcRwDgPHhbCZbWLR4oLjzwXvLS/sXm+HXX50fFTpUStcNAO679/1m76atqZvThXS5nJFdAKX+bH5wVXYRdgFwAKBvLvr1J+mi0zz11o1uYMl07nWrtXJqqVrVU+tGXRhrXKN0O7SNZLQCl9qJw5yJ8TFZkb3d3L4t2Vc/bpgjcoTwcwcbOdOg3jLKlgHA7bJ18Fc+++ispnf/6zefNL/zH75qnn/9kNVvu7yxtRuwDuHtU+fN8bOXg4EL9WwkKcK/u9u/Wf1ra9+IOoLTbowjjJ/C1kD0PewMKMoD942jp82alcvM3h1b2h7k+bLbzeuBwK66GQFIox1QLwbCmG8U0xaMG9FpeDu0mq9TaZbfah1ZLvkYEx4XaxqkGZLK1Dykj+Lo/g+YzADIAKAsnwBkZrPQn+8v7urvL1dGi+bModcipi5Idd0AYMm6202pMJ0qprOZ0mQpL59fBsQlqHwCWKYGAL7lkxqetKTxOwI7EPBMk4fxTHBxPIAR7scsCzFxhCGPQP00XqcdVfTbCEd5pKRc5uNiX5abVp+UAcDG1SvMhx7Y1/TmC5/rP3zxLTM6PhnQslzIjuRj3zX24uOv3bd2ao4T5P7tf/yqOScLxrBvHD4LHrlnr1m+pL1Fhfj2u2TRoPnxK4dMQfzS194oUFqkN8t2cRxc15N4xprbhyGPoO0Vl3ZU0a8vhxjKY56ymI+L42RpmC8zToaG+bw679MhTx1dOelsTsYAskhL/rBF7xU5QXSjfLLZtXXjjPuMLrXdtBsIrHdrBIKBwGVZI4AZAXQRpzV+8Ye6+LEukTjCkEfQNohLO6ro15dDDOUxT1nMx8VxsjTMlxknQ8N8Xp336ZCnjnHlxMG0DKRJAzlMA67lurT8TpTGR+wMQCaTK6TSleKzxYvl82MjpnL6NJi6JnTfAODTHzeLP/JQ6sbBY5lUuZovV8oDaZkBcH4AMAPABtSNuJDaI0mvJNxs69Bp2c3l4eFcnp4ypelp86kP3i9+9JMd9mAAcFoWAx4Uv9r1D1JXfyyuwxkC/0zObsdiq5mGp155y/zpN35onUlhavjSlRF7jPGj993ZdL2CX+YG+Qxx7vKIeeME9G5mlyR8Es4vtd18p2V3Wl679Ymjh07B9Y/DwmQmAIsCUzIbMC6L8l5686hZKT4Cdm/fNK+fA7SmeiCwc+MaM3Jzwq4RgD8B13Xmyq6dlttpedpKM02r9q95iM9UXjyflOIWAU5NDKfFJ201XSyu37OjnJeNgTcPHYpnWqDQrhsAVOXM5QvPPZ/qzyzKyEc++QRQqXEEtEDt/N5UC3c0eQMbHxszD96922yVrX5JAVu4lg8tMk++fMiMy+KpuIdpVW7m8P7361/4iB0IJMlrhIMv9z/5m++bF986ZXL9chyx6IjPCidlFmD7xrX2AdGINw6ObYHrVi61awGuj03E6h3H14PNrQXsegAZBFRlLQq2po6NF8yLbxyRBYFZc+fOrQZOqG5VwEBgjxwz/aH7dpv18nli+PqouTY6YdeSxPX7W6Vnr9w4C2AR4MgTZRkAGKwB6O8rrhwdK+cmKubS6aNxDAsWduuugBmapLxy0BTHLqcWr1qTyZRzuXKpJDMAfStkBuCTsgZgxQzF9tjmzAIpMy7bAdfKW/IH79/XtBS4Br4ongFfP/pO7IMUN8d/9JlHzIfv29NUViOCq7IY6/e+/G1zrVA1WTlXXnaP2IcEpoovSdkfft8+MyTT+u2E1aL3zYkpGVScbIetRzvHFrCDAFkYyEEAtm6+/MZR+VxTNHfetlW8SSbPSs2xenYQe/euLeYjsn1wSGa2zl66Jp/AClKs+JdoOps019r15MdZQFYh2V0A5cL4MD4BmFyueG74eHlKBpTj53rbAONs1jHYzp13mEVyCnDfsqUZWWDeh08AmXz/itwiGQCk06s6VlBPUEcsgJtYeboguwGK5uMfuFdueP2JcjELsHndSvP8G8flrehmzY6Airy54/jg3/qHn7AH8iQKSkC+cOCw+fJ3n5OzvHP2JoupYrsRWbx64RhjnAD30D172pomRj03r1thXj18OnFbYIJaPdQcWQCLAuEt0A0CZHtqqWReefuEOXX+kl38uWrZkjkquTWxeM7joKn79263ToVKsnvhnYvXzKQMUprtiGmthB5VJy0gs0myBuCG+AEYG05nqoWBZX3F5YP95UVLZSbn6OFOFjXnsrpuBsDc+aAZX7chlR2bylbkLIBKpSx+APpXygzAp2UG4D08AODahznvM+0VIHc3TLGPjo6ae8Qh0G1bNjTlXy6+9jET8MKbJ+w+avtlD9/+5W3tN37+Y+bR/bc3lZFE8Nffe8Y8/cZJmb3LBWSyYDEji8ZkqlhmlOyD4b47bjOb1rbXnXATx7TyU68dlYcMv+kmadJJ3AJt/05WcRay3CAAMwGy6E7errGQ9Mipc+ZlrAuQvrZ1w1p7wt8sipg1Kxxa4XjrD4o3QexyuXxtVP5uWK+CzWcDeu0/6wZoUQBmAEriCKg6PSkDAFPIyyKA9Znl5dRUzpw/82aLUhYGWdcNACbF21YxVUz1TxfTmYp8SJNtgOmsDAAWyQDgPT0DgMdkiwEr6Sx5uzxt0CtVUlLexMSYTHH2m480ORyIbDtkgdSaFUvM4dMX7NHCdt//5z9sfuGTD8/q2y3OJvjDv/q+OXt1rOYNHzdYu3+8XJRvxZPmxs1x89iDdxus8m8nbF670hx755I5+s7FeZ7CbaNt5rn927FfS7RW/zbqGwi1gwC7JkAGAbKWBD4cLsuMz09eflM+O43IDM4qGQzc2tkAqAqnWTvlmOsP3rvbLpw9Jcdq8+CpxvZpwx7v0fZvbLs2MeIJsDR+7Ynq1JhdA9C/qL+4ZvlQuZRJmXeOHWxT2K0l77oBwN79+82uxYOpYjGTKU6V8lWsAcj2yQzAiuYDgLDjw+i4YGYzagYvgn/hNZMZh4+TFQdzJdb91twQNZ8uS6Wtyr7ekEpepD085ikb2kvJBqsfhLciuwFujslD9f1329PafBI/jwcyPKo9fNdtZv+uzfbB/+kP7Ld+1n3advJY6Pcfv/YjM1nGA7+2jvheLD6G7VviuUtXzDrZvrh/9/Z2xNvPB6uXL5FtgYcbLGSMsxXtrvWJgzVQZaG3v1W7Ub39Ogf5ujopOOR5beeKkDLi4BYpPyITgwBuEaxW4ZQnZQpT0+b1wyfN8/JpaEq2cm6UQdziQVkbcovDYlkTcP+ebfbQofPD1+XT0nW5AmPWBtTZCorDXtrmKm1NGdizpo6gYfDw1q5KBsls3AiuieJofJjK19Up0AdwhLh2ruFxZDW/Fk8I5KnyCG4pxgDg+hPTEzeHs+lUId+fKw6tHizfNCVzUQ4F6qbQdQOA4sqVZvjqpVSuOphJl2QXQBnbAGUNQM0AIOgkvAh0NnywqQ4e4hXMdg40pep4NokfMqhkeIH4PKRnDHxSUHQoJpQLOALLDvK8IBwyVNclPJrwoqEsJc+WRSGMSccyNZwMjIkLaBXYPmjtZ4AbZotMtWJ6vZUAPnwKwHf/DauXy5vR7D25PfnCQfO3z74h5hFZfvWkPAwC8CmgKN9fcZDRg3fdLjMR7XkbXLtiqbkuMwivyHoAF2iMwDaJlYdS2obM1ykbiPZkksxWLsiwj9yi9o/6oqdraAfRkzdvfZOu0TfgBQzVQtZWT2cCHO1HQhYb0KON09m8lYFPAgDjb3jkhj1F8JU3j4nvgCmzWtp9SLam+gNFIZ23gC2qWBPzyP5d9rMFHE45fxO2Ms5uWpsAHNlckL32dxaytqGBGMM+gQHD/oZ8CHTIsF8Kn8wAlOEISD4BpLL5wlRG7haDmfKVm6Nm/PjxQFh3RF03AKiu3WImpspmUObJMmUjZwFUB1I57ALgDAAbLmhDtjNjtosisyAfTzodg6YRn8YxzdiXgTzkAK+DLxs43Slj8VpATBpl8A9oX4avA0UATlo/TRrEmsbChZgw5K18+2PPBpgoFMzHH7nvlqy+xnffv/i7p80rR8/JHnHp+nV6irpyw4XSVfkUcE0WIWL/OJwY5XOtfwrAt1ycE/DS2yfNJfmGi6nmMDCJspkmUutD2Lui/VmZINZ1Zxr11DdZsvg2Apx28nF+nrLB4+HwUMcgwA348EnAvVljO+hZmf3BZ4GnXnlTtuaN2YWrGAjkZPvgrQpYX/L+fTvFmdFy+bx0yXrNtNXy6lWnH/D8A5K2I2EjfsBJ66fJi1jTWLgQE4Z8nHzgCWd6ntu/RsdGegKuQ6CzHM5lXQFX5SwAOQ2wUMllitP33VOenq6ayYOva44Fn+66AcCefY+YvRs2pcZGJzKFQgmOgPozOW8RIBpKd0I0A2E6Dho0bCXmNS/pQ6KYBPl8VBxcy9Npn1fnNR3S+IsLSXBdpzjeOFgjeaRthNdwpuUCr5amzTV5y7pz17amroFZRCfjUdmj/8dff9KcvxZ8/6duLCTIY3AgM0vymdgtCFy7cnnbnwJwWiD8Azzz+hFjnbzoMtgWKI9p4uNiTYd0oGcdaRK8lXJ8gY3kka4RXsORjiu7ERyyNb9fVpws0jCOk02YjjEIkMWf+CSAYD0HCh4DNgwWsT7gudffNt996hVz4PAJMzo2ab/JL5KHcbPDrahKJ2PMgGE27J7bt1rHU9gyiAFLOEOBusUF1jkOlwRrJI88jfAa3qjsRnDI1vx+WR1tfwoPYpary4jV030CKMk2wFzaFIYW9xXvXrGxvGiibM4efNETurCzXTcAKK4eMsPDZ1NmcS5jSrIGQGYAZACwIjckMwDcBcCGhO11ejZtMRs54CU/49noMt+8rerMeuoLKNAVNymcoF2YGJdmK5uPPnSP/V4+n1V558Kw+eNv/Fi2V7kFYI3LDj4FyIAFnwLgJhiHyayXNQHthC3yLfnomYvmmEzbpnhkcau2bKeguaZtVeeE9m9JxVbLaSZMy9HpBnyYBZCpXLs+QJ788lBF/5BLFm+lEsYnC3bHwN+/eNB87xkMBk6aSfEnMCQHWGFb63weMgR91orTKayNGZfZtGPvXDbTMlilrsB3PLRgQ1umNZqkYq7/lnRqtZxmwrQcnW7Gl4RXcugHoCIDAJkvLJTzpeKpQy+XRyeumfGzZ5OkLDhc1w0AlnzgA6Z4152pocsjmfLktHgCNP2Z/KBbBMgBwEIzMzpP0kWhOtdCU72T+thV9nJK28Ur18y+XVvNzi3rOym+qawfPi/f/585aKr4/t8k4KGAUK3IrIV8Crh87bp1ZDQoC7NaDX35rN3J8ONXD8sq7njPhlbWe6T9W7VbOFhumWH2hHiAwh9EOtdnPwvgkwAGAggWhwGswG7ILNKhE++YJ59/3fzgudfswAAHDi0VD5YD/TKICAYNs9coWQJOonxo323igyZj3jpxrnZdQDLrwscu+OtBHAHJNkAcByxTQYV0ulzM3xwrZyppM3r54sK3r9Kw6wYAfdu2mamrl1PLi/2ZyrQMAMriCrhvEI6APhPOAKgK9pILxwL2LVgWA05MTMib9fS8zgLA+ct/+caT5sCJiy2/saWCTwFwZ/yOnFGAM+Xh0hjOiloN62RB4E05bOiVQ6dbZenR3UILuIGAfBaQgYB1EGV1kdG7PPwROBiAO2kMDLF74IfPvS5rBt6wawew/mOZHCjV7vZRK7zNHzisuuf2LfaQowNHz5ib4kFwvgYgbar6riKXoaDdBYBPADJjVMgP9Bc/8/hPlavZIXPq7Ze7qq5dNwDI7NljikuXpvpHR+1pgNVKtT+dGwhnAOw2mVvxClHT7LhZzOcwltML81lmTYVbzIh+8h9bAjELsHPzBrNnx6YWeWdHhu1//99XvmPGZAFpqzdJ0DkPcu5seTiOwXkGOEym1YAHwtb1q8VD4Clzbnhkjjy7dUv7t2q1mdN16vq3bY8ZgXyfOIzC54FgRsgOBOS7u6iIGS146sPgEn4EXjh4RD4RvGpelHjkxphZIutA8KYuy5VnXqEmnFhncrtsl926fpU5dOqCuSrlttq/m4juSnSn2j+p8lLGRGksmAGopguDsgiwL5MuT8rOnzM9PwBJpps9Dn4A1pWrqXJ5KjM1Pp1PlWQA0BcNAGpWXIfFtXKDnMlDO0lu3MM4iZ7KJulBnC/H3o7kKwNuTHHlUrYfU54PT8rPhCeSl0rJAjtZXDc5OSlud0fE7/5dbfvdj6S1nvrL7/zE/N1zb7jtX7Fs8fUKPwXI1sBJOaDo6Onz5v47b7Pny8eKiQEOLeqXxWN5OSzoiD2fPvkGHa+HE0scYgS2dfe0v9Pb/2W9fHhSPp4nvv/79oqT21ge+gB2DNhZAfuJIJgBsp8I3CI8O2CQwUBBXF6fksHm06++Zb4vg4G35XMBPh2skFMIB/rm5hMByobjrDt3bLSOsy7K4sXkPsb6x9eZ2Ph4JjzxkiLoTGTG83S6/SMddSrwAzA9PpzNpguZ9ECxtDQvawAmzZUTb2vCBZ+eu6HpHFV97Yc/bLbdf0/q3JHjmcpYJS9+MjEDELMNEDdFdBIdeMMEzMeRrhlNklwtM16O67ZYEOfeItxNXPNRDx2zTMpE7GBOnqMlFrkI7uhI7yjjfkmncX4Z0BuSfFpXH3BGF2CkgZYodyZ7c6qWp+wRvDgi+P37xe++wOcqwKnPv/kPXzXDN6dqp3VjC9R6BLWVN0E5dVKmLkrmihwkdGH4mnn4nr1tOYvZIm9oWLX95slzrimkbFeSb8s4pUhD3RA7mLYysZAQwR0d6eOkOxjpNIVfRgfaP9SMGiL2g6tJ/TXi4PHXro9zutdKJg2gceUC3pjGPuT1YCAjD3S7VgSy3B+6MWZ9sIvghji+evPoafNDWS9gtxTeuClnWCwyS8XV9VwsHFwvB27t27nJwFfAOemjqEp0raJejerMevt4xwMoUvh1aV9WG9d/IMHp4suxhdhykFpo7e+0szrbTwA4DCiXSRUWDQ0WR1Kysllebq4fe8uRdclv1w0Alq7fZ84O30wN3hjPTE1U8lVTHkhl+pbJLoDHZbp2XdRZ22+BiLdRx6yXGfHU4+IgvCBRQicC5UR6OAjhKCPC1ZeYhNPUjfVGSRzM8EahOaN0WJY9mKUkfvenzfEzF+QzwGazfdO6iLDDqT/75o/M15980WT6BxPfjEL97O0OORdw40/LjR5ny8tIwJw+f9nuZHho/96W3RJj29gG2cP93MFjdg93pwY8bOda3WvbIcKxRlGchIuoIK+2nSNcLZz6RPgo1WpZ5EiSRRodQz5Cu3yOS18nrk6Ex8V2MCBtmsrlTQazAthKiKc/PhHIf0hw/UY+EUyXzfnLV82zrx6ygwH0+X6ZDVgpHiPxHb+TAe6z7xPvgReu3JAzLYYTr32U22qb9Npft5JdBPiNytTEZWnnQiaVLorfj3JO3hEuHBEnY10Uum4AMLRtk1mZnkpdvXozUylN5ysyAEjn+mUAsPITGADgwmsUWu/sTkIr9EnlNdLDh+tykGagbB9POOkYA65pAffzpNVxI3mkaYZvROeXTTn25okjeGVHwJgsCDwj2/PwRo3FU50Obxw9ZX7733/F3CiUTVZu1K0E6qn1x1oA/FVEZ8wGHDp5Vt7mFssBRzsSBxW6PLgIxnTwszIIKMt2M0566HKQZojTQ9OSjjHofbyfJ62OWY6G6XQzPGl9Or9sH0++mcS+bMpIKqMRD3kZU0Yr9KC1D3qZJcJAwO0ikBkjCMNgQFJ2ViBo7Ouj4+b1QydkB8Gr5qCsC8FIYd2qFXZAAJZOBBym9b47dogTqlFzTLahQg32tTj5rG8cDrBmePL5dL79fDz5ZhL7sikjqYxGPORlTBkJ9DIDcOPrpanxYbknFMoZUzx94mD5yo0RM33lMsV0Rdx1A4Dlu3eaVGUqhbOAzLTJS2PJYUD55fmhlTgOOPY1UjckG1e3DvEah7TOa/pOp3U5TCNupJcuHzQM4CG/hlEOYYjJ59OTRvPoNPF+HEfjy9Y0dlGVvE1jPcCFy9dkav2GfAqQw0+aHBfsl5uUx0Ks3/6DL5uX3jxucgND9gEeR0+9tL5I6zz44EceAe5jsfXrreOnzfaN62Q7Y/MTDi2j/GyVA2cOyQFHJ86JE7HgrqzLYRpxI70oCzFoGMBDfg2jHMIQk8+nJ43m0Wni/TiOxpcdRwM5jeDEIfZlAYag4TrtsO5Xy4+jIV7jkNZ5LS8pbRcGymyAXS+AxYN2y6mUIE9hPIjxeQB/WCuA9SQ/ks8Dr7513Lq5xtkTmBnoRMDiQ5wjAE+UR89eqhsEoM4IjepIm4BGp5GPC3E0vuw4GshqBCcOsS8LMAQN12mHdb9afhwN8RqHtM5reaIxBgBP4BOArGkqmLwcS3PlejmXHTRT1y7Uki7wXNcNANb8zBfNso8+lrr51qFM6aZ4AqyKJ8Bs3/LcYjcAQGOiR+kRLxqSjRygEYUNTDxhcQ2v+S2z/LCsUJCSGUdPPsSWNwCwPB/mw7WeYEWeNIGourwP13ppeb4c8BEWR6flkNaHsewwDghCuTKFCu+A8MB27Mx5c02+kT6wb5f1thbyzDAxWZgyv/+Vb5mvfPvHMj0rK7H7xKd7IAtqIDDv149wR+V+WTd7bHC1LOsByrLtalL2gZ81d+/ZIW9xyzV5wzQWgm0Q2qdkQeBNcTOMjsryqBeYAfPhyDeiAQ8CeVwu+iWc9SAt5REfcUSydLmk03K0LOK1nDAdMMXRaFiN7JpMpFMoUxI+L4x0q69/KIDPRmn5RGBnBcTjIHTCDJBtRbS7DARKcmz0qfOXzJMvHAgHAhvWrOzINsJFOExo7zZxZzxuFwf6MwGwG7RB0DZ0kAgWR+c1i+X3YZQTxgFBUlmgrZFTk4l0CmVKQssD+dy3v3wCwACgKAOATLUgnzKLo/npcqUvayqXewMA3TYdT2c/+Ulzbe9uM/2Tp9JmrIizAMQRUP9yWQNgZwBsZ5Af3SmghJ+P6ySahheL7n8az4rhotbwMC2MwDUKGqXTvCLJqzu0TVOgkl/DD7zCIUs8+JlmbMuTDPOkYR78DIABz2Dzqqw4HsoDj7aVhePtSIA4fAfT6lgxDYc798phQXiDmWmYkIf/H3z5W+YP/uLbZkpusLnBIbkZe3v3ld5WN+inCmzU/vbzRVqmeIP1AJi5wJvc+8U/wPIWP2GsE09uE+JJ7qW3Tta9mdHA74X213a3z8WgAdiv2CDsN7p9wnRMO4IvxAdt6ufjrhFN06j9VRexSepGeChD6WVnBbClEJ8IZHYAeetkyBYiswIiBN4xcfjUj54/YN4+fsasks9FcEE9W5cM3oJPAABAAElEQVTDGARgTQCOEz585oIpl8XLoZSn9dT2stelVCbEs2IBDHgG0NBOgMXxUJ7FCwFpKAd5/HVX+7tdAHYGwMgngL7BYuHRu8oVnBdy6BCq2jWh62YAxsU168R3/takitVsZjqdT1UqfZn8wDI5DCj8BGA7VFwTSK/jBYsYwXbEoJeSDzHwtlMGaX3D0Dz+DRsyGVgG8lpWUJzt+IEaIZ687qoI9A2IrF5WWEjlrp4amNUuqICLSM2yLDmVQEbJ1/XhxU3drRzQCgA3EVuS5LVcSxP8WLz81NgBOJYtsXW2IvKwwA5vR/CydlweqNtkUeDalctsOVpmszQ+J/y7//w180d//V050a1ocv2LZS93MJgIdIG+1AmqUB9bNeACPOttaQNekMtoQvTGosBpa4tzl67agQucBLUycIHtsG8bzlvOir7I0+5WPn4CZYCy5QcggGtoLUDDbI0ck9Y54Ac7gq0beYNYy7YqBfy0g2UEkQA61f6sm5Xt/RDHWKODWjqQ1l8gVkVNzHRQH+Ap08rBjwDJRzzrbWkDXojSPGwLygOeQcOcvd2sQCqLtQLBDgJsJbTbCeWhLAxlceuL2TDsHMBZBJvkk9HKZUsockYxtqA+eOcO8VdQNm8cP2vPpggrDImoMCNbOQEJDDozdhQB0Xu8/cUydhdARdYApE2mkBrKFCe2rC9nxR9E5cDB0FTdkOi6AUD/tm2mVCmaldWhdKYkCy8zpj8rawDCTwC8atFXbe9lM7iebW9c7mq0nZsXe3RVgx4XI/lsVn7AD2AQM8k8sAHM8Tq6GjmgFQBFh6oSoGTZckgrbNgSo/WCXCsbYItDjOBuJA7keBycvxHM8ge84Q1d8s5GoHdpcrrYFhiAoIT9b/NuehN6yeAguEkA4cqRhK4w9Rek/bYuU+o4gAdlYpX0U+JZTSbVzDp5C8LhK3Vv8BAcBGh0U1y0/kimUf/33/sz862/f8GuvM72yaEtMgCwCgRlUzdoDb3kv9PPVot1czjKt0TWTqAGTXAjl4EAFjICZj9hiGc4bGnENH+zgIECjjp+6rWj1q889KJsxyvlwDbISPJd2/6onquqq3bwC3OE3cXaHAjXLmHfQlPY4BJR2zqotWlDmtm1v20YKxs/tpXCfmSb0urs9SPA0KZCbheVyjZCLByUjFRW1sPYgQBIUrZPvPb2cfP8gcOmT/rTto1rZ7VjwHoN3L1FHv5V86YMAjAYcGtQnIGs7QJbOjsiMw/XP0pxZrGl8wc2WpjtbxV2nwAwAEilCwND/cUlj36svGLCmJHnf8wqdEXcdQOAdfv2mZVb15vSlRuZ0kQ5L+fL9KXzA8EngEy4CNBekuhFNrhOjqS9KVhYdDOx2ZZ+wAOZvDBq5eoHYLI43hgi/kb0QilK+9gWdA/rTt5aIbQDY1DZsiy5qyM5iasTCZ4A6OpeW4bmT0zLDRAzAZhWx3oATJFeF69az4gzFXwbxba7KXEdjEFARW6SWICHt3s89PHg/bY88P/fP33C/MnffNcOHqBSRqbjcgPy5iRv6upOEuprayt0bLNE/UIk7O5sg9juAZfYfsKQuxU8BeLkv/tlHUMr27s2yWFBWEfwClaD2wdGWFCYsG1SZ1bo0UR3q2coRhK1QthujEFpy7Isro42GfwAVycSPAFwVu3vlQmZ9e3SvM7UBeJsbUOFo+ssomkuz6pV8wMeZxvGRCNPnaMyiPVj2lL0Qt+3TobcjID7NIBpetjWmGH5xPSUHE0MT5YYBKxescwX1nIeffLe3VttHQ4ce8cOkrEgkUG0CpKII5sBCJytekDBiHV977S/1LyKNQDXv1EqTF6W+0shXZ0urr16vly5eN5cOX6YpumKuOsGAKNyo71+5JAZyCzJpirpXDUFV8B9sgtgxSflYqodADTotGgZ23GjIeaCbqzowqxXkxdgPaYWwkubUOZrL3NiW4+hm3s7bc6DMlkuqHUaTjTssayyFgA7A1Av3FSuXB81r7x51B688sQPn7Nv99/5yYvmb773tPnPX/+++fK3npTjWl82x9+5IDe0kgwS5O1cvrNm5eFvv7c2UKtT7Z+WM+KhJwYB8A+PbYcYqNwjCwObnR8PXeHB7cAx+RRwacT1yRh93xPtH1Nvr4fEUjQCur4V/9ACT6fav1H57cLtOoFg94CtN2YDpF9BT6wPwKex5w7IfU+m83duXt+0bzUqPyfnWdy9azPujNLvMAhw11oj+mbwjl3/sQXV3CFiKRoB57j93SeA4s3LMndTGKgOFPdv3F2ujKfN6eOvNFJpQcK7bgCw5sEHTX7nRjN4PZMpT0/nqlkZC+TqZwD4dPG7kJ+fr1a5VeWifiibD/qZ6jFTPm1frQf1qsHL2xAcq9ggMwHQGjdA/GHKckxcbQ7LtiZ49oNjlZHRMZkqnbJ1w3Qm6LDQKitb/tyDuf4R0ol6aJ1Rgh24YApXdMbN+jXZ5w1dWhkEDPFTgOwKwBGz4Ot00HafqfSZ8um6aD0An6nMlvgCIp/Wz2v95jLdarl2ICDXgO1T6Nn2OhBbSb+AF8qnX33TxjiPYsniwRmpXDMIkHUouLaa9btW9U9SCDJ4HwLdTGW2xBcQ+bR+PknfxjiZARi78XWsAUjJGoBiplg8mLlePj95xUyfPtmYbQFium4AsEIGANllS012YipTmSjm5JOWzAD0N/QDMNsGny0/27xTcihvpvFC0aOR/rgRuW1TsuceD1W8CUmA3sDF/Vm8TPVn+xfZb/70308+xDMNLdkLesk2LwwAcMPG4TAYBIiy5u7d25t+Dti0doU9ye2Vw6dnqmbLfC3Vp2VpC59wtvWdLT8t1K4cd/5AcDSx9ClcB+j7+Px1QE4gxKwY/AZsXrc6cX0My/fjcBAgMl+XQQAGrpD/bguzrVE8v/0E8IR4AhyWk0ELmX5THMtVyjmZBSyeOdNVJuy6AcCW7dvNwOSIKV+upsenp+TDmenPyABAPAGGuwC6qgXmUVlc33oEPtdFx188rZWKhYHWsxr2T8tUOW9OksJzVf6cZz58P830DdoHPwYOFtlaER2lsm9uWMcgny8wcMEg4FVZxIVjj7GtMY8tQg0CPhngU8BBmZLFeQGsawPyGYO7qf1nXMl3E6M0GAaWtl/LlWvXxwT1wwzY06+8ZfvZ7TIb0MrCU980GATcddtmK+PA0XfCLYI+3Uzzs7n+Z1rm/PAF2wDFD0BVFgHCE+DYbZvlC6CcAXHkyPyo0KFSum4AsHrHDpPPp02xVMmUi+W87B/vS9kZAGwDjBYBdsg+PTEdtkBbNwW5AWJxILZMySBPtvMN2JshtvXBsQ8e/LIFVKZL6XGtw8q2KQ4ru7mYEYMAvFUdOHJS9vxPmf2yJiDpJo1PAXAQ9OzBo9ZB0FwNAtqsUsfJ22p/Kb1d+o4rvAAEuvUB8lkABw/Z2QC3UHZssmCPHsZCWJylAb8B7QYMAvbfvtXOLGAAinUsc9n32m3Pdunbrf/M6GUGYOKGnQEQ8xXS2XRxLC3Lf+XwJ3P69MxE3iKurhsADMvCmIuHj6T6l6xMV8UJY8VUBuTMbnwCkLMAMus7Y0e8Jy/MrteZ+sVJmc86syzGcfpomLQF3obsW78cwCI3QvsnecA7H1rVq75k6IX1B/QRUJKtjQcOnTRXZO3CvXt32i2N9VwOsnHNClORG/ALb56Y8xtxvQ4zr3O9rGYQlsW4Gf184xegXpwNkIWCdtGpDATwoC7LQBO7T16Q7YKLBwfMDlkgmJWnUjsBuwPu3rVFFtzeNIdOXZCNVbL2Zk7vf7Qv43a0nQ/aZnq5GYDp4sQVk0kXUulssbxjSzlXTZvS4d5xwHPbQrt2GbNs0AxO9WerpZLsAkj1yVvXEvkE8JjcfDfNbeH6YeN3Ej9PTRrBG+FJjxhBl+kgbiJfw8mj8UzrOImHdJqGMF8+4TONWQZjymlWZ9DF8RDWaT2pF2OWg7xfVpR3gwC5UVtHQVgcWDVvySpuHCP8wJ27Gh4jjBv6ri3rzOkLV8wROS/AjW10mdQjKstB4vKk1bGW5fOQTtMQ1oiW+HZjlsGY/CgHwYcD1ginddNp8HQ6aL38svw8y24Eb4QnPWIEXabkZICZkRkxDIbd5yZ4EjTmqiwQxLbZEXGnvWvrxrYXCPblc7JF0J0dcOT0RSmXekAHnUZ+toF1Ykx58XV22EY4rZtOU2YnY+qLAYDMAExPXpZnT2Egky/uKFfKAzemzJUzRztZ4JzLam+oOOfqNC9g9ZYtJivOV+SJnxEfzLmyuAJOZ/uW5Zes+phMwW52EthQlMfOwzxi0vg4wknr5wn3Y9BRlp8mLfHMtyqb9O3EcbI1jGlfp7gyQAu6Zjyk82WQj3DK0jFxjCnL59V4pv3Y54mrI2l8HOGU6ecJ92PQUZa8P9mZALcwEAu48NZ2VN7U4Klw/56dDW/QuBFv37javHLotOwBH7VveZFcv8ykfJzeGsY0dW4mC3TNeICPk0c+lkFZOiaOMWX5vBrPtB/7PEk6+Tif18/7ZTEPOsry06QhnvlWZZM+iOXhb7e4wiW1rDmpyCwT+hd8Y2Ab6knZEnvHbVvb9iAIj4H3yCDg4pXr5ug7GAQwsD7U16+HT8c8Y/IxD34tM06expNPx77MJFwj+eDxcb5cP2/LsX4AypPjw+KErtA/sLS4//Y95WxqwJx4+wWtyIJPd90AYO1995n8ssWp3M1cZrpYzFWq1QFZA7Ast2SlDAAywQCgk3aP7QBBAUm4VnQAf6syWqTjtZVYPGT5HT+RobPIlnTsbJEzl5Zk9ySctKxdE4BBABYGyk1alMDhQUfkKOE7dm0zq5cvjVULHgJXLVtsjw2emJoKBgHJZYWCWrJtr/1DezVNJNk9CddUsBCAv7kMebbbAH8b/z97bwIlyXGeB0ZdfU/33MDMABgAg4sEQBDgTZASKWplWZR10JLF9a6s06vV7nolr55t2fJqJXt3vd7Vs98+SV5SttbyPtqW9ESJpHiIFwjeAIn7GNyDwdxn3911Z+7/ReSX+Wd0ZlV1T3ejq6dipisi/v/7j/gjsjIrMzJCvu/sHSWUh4eHzdTUlKyWudPcJ9tS/8D995mf+MH3mg+8+z47J2AtOwtOyN4B99x2g3n55AXZpOhiNPac/XX77GmMrpu1K1SU2T+4APhk0Fi+WCwVasF40Bh9y23tC7UZc/6xR67Q3uaKu/1NN9fmFVlrzc+benM+HGrtk7v/cv1SkNfECvYQiQ6TVajPG4gpuqe2Ew+mCee48evEWL4wyQedMiivSAqIYh42j05x2l2hfxMJeT7ChU5t6+TiWuTyZFJ0VFTqxAOM8KiNeJsBixK1a4um3ZTd/4T/1e8+ZRb+z39r/vmv/oysFXBEKU+K3//2u+RL+Lz53T/5gszSxvNeKo5s5MUwj05xy2clsbeppTwf4QRc68TPc3QtcnkyKToqKnXiAUY42+DXiWE/CN9Bok9bd0RQynIROTpcMSNyZ2hyfNQc3LfL7N8zaa6THQMPX7vH3i06IJNHJ8dHBCd7DOB5wBUm2Pj1n/sbZn5p2Twur6auh86US51cRKM78VOKVGUtcnkyKToqK5O4aL3E3b2gGZjHvvttU6jLhX6fpb67ADi5U5bClL/hp/DLSA6eeLBkd1TH/oBsqrMVmupi/RHPr4OsdVAnVWXhyUNOPu2Rxzr1EZfFJ61TruXpL21QTmNA03zth5b3ZajLzymj6ZrGsrajsbpMrKb16ocvk6ULGNCRfL1+HRitg/6DHqWCrFFQksWJAAvkIkBu4JrHjr5sfv13/tD8xi//bfOe++5c8UurVCqan/7ge8yLJ86ZT38Nq4uJYm07zz8a9XNfNsPPlH7I0wbKxGfl4HdLOkbEahrLWj9xfk6spkNutamTLdhA8vX6dWC0P9QJOpLCu1/y8ttd8JgXAjEsYDUsk/CGh8rydlPF7Bgdkdn8U3J3aIe5Vpb9xckeJ+QD8isfdPxCx2OiXpaatvbX+HG7LLf+m3/3Q+bXf/ePZSvhM26tAbbTz3uxQRmN1TSWGT8VNy1iy8RqRie8xulyJ1uwgZSp1/Udzj3ynpJc3FdNtVWWDeqwL0h/pb67ALht925TetthY155wsw0lmRgluVOQEFWBPYCr+u6E0knDTlpngpbzeJRVvN0WeshnTLkkY46eZqmcZrPsi9HOnWwrvVQxudpDHjUQbrOwSNG58BkydFWHlbLULfGkqZx2h9tl7Y0DeUsOmm0BVxWyrJLWc3TZa0nouNxAFYoxPqGuBMgqxiYp+UVwV/7P/7A/FO5CPjh971jxS8t/OL7Hz/8A+ZV2QvhmZdPWZlUW7Qfugz7rNMX+ge6z9MY8IglXefgEaNzYLLkaCsPq2WoW2NJ0zjtj7ZLW5qGchadNNoCLitl2aWs5uky9QjN3rKXMz4meGJrXpzAscvlof1yUt+70+yZmjD75VHQvt07JJ+ULaXH7euiuCjASR5yr1fCo4Bf+69/yPzmR/7MnLs85zYPQjsZM53DyawY0P08rJahbo0lTeP8gJBHW74vWXTSaMvXyTp1s07dQpdeDdsij7s0t9x4o1k6c97I8l99lfruAuDUzIxZfmTR3FyRHijKnyy4YgeevR2QE3t0YlZHg76aRB3U10nW1806dPiJPJ/era7ldBlyfp26fDrbpPn0UWN1WWNRzuIR4/PXgs2SAS3Ld22X5Sys7xexnXLao75OWN9nqfMiQAqm3ajKCb0oyxpfNL/1u/+fLO86Z/7LD75P1nqXxYxUOnLdNeZXPvyD9pfY9Nxi+oSgbegy5P06dfp0tknzB/3PaKRzxgoxZIzSCFvDhLxAfuHjBH5ATupvvPmQuVvW37/9hgNyy36/PeljTQj86n89T/AZrq8gfeDtd5pZ2XTrf/13f2FXq0z5y7HEfIV0RNB8Xc7Caz7LzDUeNPYH6Vk48LKwpFO2l1zZQxFPnmVTcDNcGDcjl+umuSivJfdZ6rsLgGWsqCZXz/NPHDPy3qV0rXQFeqNb8geHX4e86uBMdVqG5W4yVEQc5VbYAyOrIUJPnnPkf7HTzmpz7Q9ls2jkIe/EZzuJx/3OzHYRsEm577Nfhxu+775rWoblbjLUQZy9E+C2KG7Xl+1FwHmZdf0vPvrHZlo2PvqlD/+w2SG//HV631veYH7mh99rfg/zAWTG97q+o812aINZtF75bCfxV1H/49c+mr9/95R52503mXe/6TbJb5Zf+rsMZtj3Y8IJ/0e/9z5z8txl89GPf9lu0b3ibqtu2FXS/zhEZBE6WZu5aGrDbXN0pyzUVB9cAOihsDHlZdl0+bWqGZEvyUarUZA5GPYEiatujL2VCV2VzVmBXfWXlejWJ+cVCknwcfBJUkq2Rx+dZPSZ17Y8ekpY6dB07YevR+r2TgvpyJkiOUsiHzzQdZ14RbMQVSdkRQ6MSqn45cnn0ZUeFjej/20TCqY8PC6hxPNDPMYK7KZG/+Y/f1pewZox/+AXftJcIycNJswH+K/++v12qeAvPvS03EBgH+W1LY9OjTq3DikCdYPk65H6oP9VrCQeMgbx3YNhfuS6/eavvetN5gfeebe5TZ6hY+LedkjY1fJnf+R77KOoz3z9CXdIx8c1WxiNGwyZ1LgBHUQ9rjyMhWRhgNPJKk8Ir9Pxb70Qn+VCXB4BBKZcKZiDMlGzPj5kFhLv+qLUd68BYgKgOX/O7CiPl0wzHArbgWwGVJ6SlQAz1gHwBkzcJXow5mEItqMzqugy+cipj7r8uo8FnxjyKMt6pxyyWfgsejea7wfs+jJZmCz/suTop8/LkieN9igLOmlZZY3TfJ8OHpLWlYdxyHQs8tpAfdTl16lL2ZYTKVYMxARBu2CQsNry6/7Zl1+zWxtjt7d98kuSCbeMsV/Aw8+8bNyjAHJ0nuVfNxp97aQnC6PxLPu2dF2Xic/LaY/xBI60rLLGab5PBw9J68rDOGS3/set/t3yHP9v/RfvNP/k53/U/ND9bzbXyrP9svTrdkoYf7fKI4zHZFXLC9NYnyKrdSDqeOq6LmfJahqV+7qIIR/1LL3ka3nKUob1PAz5Wj/1BtF2wFW7DkBYaDcX5i+2a5dnTH2wFDADt0H5yAguAAoTew4Ww2qhUghbI7JhxpSsBLhB6wBcSTs4YK5ER6+yeqB2kck+ejsI5eleS/vWItPBtS3N6tZW+Q0hJwosGmR3EpRfkvg6wtru2PENO71df2C/fNk6Pft3T8pM8bJdH8C9GqgbD0y3L7MIP+h/Hbg1l3Hyv/PIdeZ//sUft3do9snzfvbVmpVuYUFc6GDPim888YLsHeCWIl69u92OidVr3GwJaYGsAyDbATeqFwuyFPDk0FTz9l2T7cniuDn98tHNdueK7PXdZeroBz5gWnccNlPzhVJQq8tUwLZcAAxPDU1sxQuAK+qbgfBVEgGsFVCQuwGh3AGQKwE72/qcLBv87Sees+9+Y2lXru+OuwDnLs+aZ4+dTv2OvUpCtWWaibv+73vrG80/++WfsM/58ZjmakiH5JXEp2T74GPyZgpeYbwak1ymu6WAG8sXZBZgrTBsGpO7R9s1ecfnbJ/tBdB3o3ZMFgIaf+1MQbZbKZTcQxgZgz3+8lkxWuX53Qra2rVlqBqQeowA+iGrL3oUXyNs6/R/UbZ9rYxNRlu/ygsuMlnwzPlL5rd/72PmX/37j9u3BNDIMXlL4L/50AfMG286ZDcMWmPDt5xYP/U/Jvu99Y03md/6pQ8ZvC9/NaWKvNkwOSGTVNf5YO2n/nf9HchLADIJUK6BgrBZeO6Ro+bUS6f6bij03QXAgrwGuLSwIFumLoVNhFtasPbBkz1x8PW4rvXb0Mvx1QsGIdI4XQYvKwHTCy5Ldq00xDwv7hvny9bqfzwOwFoB2OoYD1lxEbCwXDUf/ZPPmH8kiwYdlfkBSDcd3Gd+7ke+14zLxYCdgGap+R86frqcJwFML7g8+bXQ+6X/cfLHwjz/6Gf/hrnh2r1raWpfyzwjWwY/cvSYmoi6Ps3pl/5PWitrz2AybjsslCslc9MHv8/seZNsVNdnqe8uAO66TV6tufeecO9OOfhkjxUMnOyJIP3VE/4B4NrVuQ29YBgdasqS8b/sfV8ou9k5/aLPrG+2H5thj220awWMTJjSiHtLALdZsUf7X33tu+bv/fN/Yz71lYfl7Ze2+cF332O+X2ab9xIT6kY7dJnt8nUAk4UjfrNy+kVfWN8s+1l24MsHZaLfPbcdzmJvWxq2tX5IHkn9s4/+qTlzcWZTbv+zv7dS/8cdLE7h54NcBYT1WjM8NDFkRkv0OEZt+ULfrQNQk81RZPKF/GEJhpbMuQnlJkB+4B0HXcVhtL59Av1as5vGtVHW8n33/chHruTQf/c60+b57vvsx45+0WO/TnqnvC/7X076paFRuQngXhOU7d7sL67nj50w//hf/5F5Qm41/vyPvd+uDfAdeSsAq7Rh8tla4oPYUW7Q/51GklvVDxs1ffC998o28H3326lz43K4jWbLvHrqrPmLL37L/Nnnv24uzC6ZynjydkqOWE/kvj7+5ZSC5Zzl8lzm54ybx0/JSolL/Tcm+u4CQKZBm4ochM3TslOV7LCGL8lOCV9u7iRAlD/shC+39ZLZu8lpyH0h4gtSa8FzY6cRdPflmehMsPxaTexi4lBiB36lL0zSfpBP+bQPoGo/UEu+yiOeIsEviwcNSDlh+MmRfK0iEOlha3051tketsOJRcIEqdz3gPrTcVcCUkx7l+Zl1XTUHH+lP/SXfIeQeNkOe336H/1THBq2bwi0ZK2AULbAxqYss7Nz5g8//lfmO88eM1ilbWpizG7f6gZiEtG4ryPSoP85Otbe/xgPePxy+MD2vvVfk22FL0zPmieeO2YefPgJ841HnzVnL03LdWggF6ZYqXJlDBHdq+X4dyMJJw15Al0qF7AU8HVHbjC1U+cGSwG74Gzc5yV5z7J+dE6WAzgkJ7GSzMPASkD84sPAdMMTOaiOghoHrca6Mr5sk5MAT0OJAjuwIzE3yKEPKdHu6pqW8NyJHyddohJe4pfj8SACHXCLlA/IQo9NWIoLZQKkHqsmRPJ4nQyLjTCJExHSKaWPEVH0OQNWr5VxOPBdrBTSCjt3QLXxhLz7H/keyYvCxFeUEr1sEF20J2CrD1phVz5ieYmU1Im1gOiDGtPaI+HYOuvQsXX7X35emPLYDhPIqoFYPhj9EtSr5hnZR+D547JJi/gO/5OYuiDYtpNomzrofze+UkGxweq1/zEesUnPMFYj3SapJY+Tlms1MzO/ZF6R108xzwR7VDzz0nGDFSrBs+NLxlhR3nQoVXABYEdXFAF37IDEyNp4buPj3zYc8bBfQe0wqMrs/688Ywq1wW6AG35YXMDa/7VqYUQ2XsIdGJwLMTEHKcpsWfrHJceypxkLJtnSocANZmS8COCJx45ox46kkkGuTz7ObmQoQsb2pe50O4b2wTmFU6D7ck5k3MkNEqTRJ+qK6YKhL87/nDhY89HBqvTCB14oMH7UDc+QqJd18p1dxBAYKHVYK4QqYmeTik2MA8PRiWMbwQGNdIsUKOqwY1VEup0PQDieKylZZyKSiSoxtj/6H/MCCpgTIOsFtORCAGsGhE3J5eKgre6AsZ9sX0SB0DGUqNi+BCumI54qlineoP8RMjfgEDP5t1yty5wMbOnUPxcBeH5fbzTt38JS1eAV07Pyd0Je5Tt57oLc4j9nTp69aGYXlsyiTDrF+ga424R/eNThjjc5+Q+PyV2pkXjsuGPv6jv+7bdIKMv/yF+lLS+im6qpH39aYjOOw6evUt89AhiWPa/rUxNhUQapPW3KN1nWYgb6S7BzjyQnW+D0SSj6/osHvK9Hn3zI4/cF7bNOPulybNmk63EZnEhQ0yIRJ4jP5HzmTsAgKZqFSD3+slcCwMW+6XKGDq3HysWCACduZNmGLNIK3x3ZftIXixMg6loX/LcmhW4xLkuVNR4Mv65EvGJ/9L/9Msa8AHldsFVfMoE8EgiadfnScfsGsL3M2UjUB/3PaGTlvfc/rrUwD+O0vJ55243XZSnbVBomh+IZfUNO7k35YYSLk5n5RTMzt2Auy74SKF+eXbCvkF6QtSMuyEp1l4W3tFwzNdm6tlaTMSTrTvAXPo4xlEvyfnWcpNHFcsXOSSmW1X4G0bF4VR7/clDZ40q+lbD+Q7kSFA7fcMgsyeJIZ16KI9cXhb67APjp7/ke86G/837zT3/pI+bkYjVsteWOgBqvHaOOQStY/0vSiuODgzoqs+rjtQ3y7JcsBRTAJ8VmhBGXYdoH+vVIJ3CwpfFaD2B+XR+kkZpUyPJ8J1bnFisEusc8hVF8TY+xcSHtq/VbeCv89/RZcaVD2+hYhowo17EDHvZSRiMHaMLHA85EXl4MqYP4uG3CiMvCpB7i4gBHhMh1u2BQpTRpT/5OCJfBeDCQJK3XUoWp+aABw5TnO/k6v5r7HzE7c/a8+bS8ifH3fxaPIHUUdZTWr4wfJMu1ulmUX+4XZcfIU+cu2RM5do+8OD0ny0InJ/u5hWW5IGi6i4Iox69/66X4ipw+o+Z+5ctKlJG7HCP2gqBYtif+otzyL0hZnjXFOMCJZR6psBn0ZdFjWlxIHwNWTnhZ8krE6dYEbbxTGTKi3D/WYC9lNHKAJnw8wBIjOfDAKcjv/2FzfOaMaZTSO3l2cmWr8PruAuArZ86YBz/2SXneIleucku0GMgtKvaUimruIMrAWjGhxywp2EGh9PlFX78bCkqHL6DqlI3tRTzSCdV1Xc5qL2VsrsFC8O0Ak6JJJVUXvqfC1X0QFGWkLFgWDaKkI+eJiDSq7hRbKycfmf5SQZRbvb5yYoQes6QAfZ2Sb6+Tj74eysb2IgDpxOt6XLZC8uVdkSWx81IMdgDfDqgpmlRSdeF7Kgb9HwUEPzj+/IvfMD/wnreYu269EaHckIRf908+f8x86VuP2efxr548a+ZlW96qTNDDr/em/NqU36HSLzgZOReSk7vUI2L+ngSRtMWJDrnVLxPa7Mkev/jx3Sof8TjAo1Z/jOQ1PAuXRYM86cj75/iHt/LgTP43sSFwuRRO75gyBbswDVrVP6nvLgBeOX7cmHNVc21V1t3GP3zz4jI5NGuagQHxrJRDttDoeIvLwPpfmFk6QcvTq3UC59cp59vx69YGwahIysJoepb/norYb1+XX7cGcz66YdN9Qa+cMvqTpSONzDGeQ07bTEC0l1CSEnxgoj/MSc/L8/RqnZD165Tz7fh1yPptysLQBvTiz8fQHnBIrPs4v+7Q2Z/dsGm/6ZXTlWcf3DQy23YeNW0zQdFeTIkIWJwJJ+P/5z//pfkX/9MvyKp4YzFkPQtf/+7T5h/+X//WnJLHDfDRLrsrAUQMcabk0sMuplkRYAvstyQFrSxO7iv/5PlGdDGg20EtzP0+9Ota1i93w6b7It2mPPuwkUb6VjvX0zYTLO0llFQJ55sQW9GWsBtgoV24bXTcLJfa5tUUbOtX+u4CYOTUKVNfnDGtA7eaUkMeVuFCzL4K4BYGZMi7dKCFdRuQThc1AZ2moEYu8s76iHA6/E/q0fReaBiJ0dEdnzR8Ob+ubbDcCybrUEvkUEpiRL06T7DdYgUpP5pOd54OTYe0XwfNT74Fn+/q1JS0jRTwWUbeWR8RTqv/ST2a3gtt0P8uYn6s/LqOK8ud+4soagIaM+ErMvGyZj731e+YO285bP7bD/+wXbGR6PXKW3IHYF5u+8OmeyYPP+ixK6OGkzb+2RyTFPCrHSdy5phAasvCk7L7VQ++/Bdc3gkQqlcm+pBwGJ2s74YE5UoJ1pqPjx0f5+riYAqB+koKdTK3IA9Hmp/7Fny+q1Ozsx/R6vKbE5MnTEEesVSaI6Z9dk4mTHa4K5et/HWnZs2fe92d6uTAofe9z+x5x12meKFeatZaQ/JS1Ig8rJoamtz7frmqvTl7ILIToTnVkV49yzLwHCq+LPDk+WXWkSM5Wa3B0eEbdZBLmkMkONaJR50yjpfUqEO3fSXeSfGT2ERLUuomC6STt19IViX1URZ14qiZmEQq6UNiIJWUrepM/SDSRoKiX46i9WRhtRzKwOPPxyZ+J/qJgxyStuXKmuIw1MscVF12qMQG6tpOWmNSow7kOiUITXVlYhNMUgIiXUvLg+fkk76iPsqiThx1EZNIJe0nBlJJObFLWepHThsJin45itaThdVyKAOPP4fF8q9hSybdyTP252RC4OGD12zIhMBD1+yVk3Nonnj+FdOUk0wRz+TlFj0uQPBcvlQZkol58tUnf1g0qjQ05nLh4fFQUfjFspQFbzebwq9+XhTgAqFjPJMYJSURyZQBHYkxQolSfv8w3swhR0wixVhre5oLKZcoi5q2yXIEi21oHMraD2L9HLrwl2ClX+Zay3OfltdyL5XKQ7XScNi4cOZSu1UcMsuXT/oKtnS97y4Adhw5Yprzl0z7clgKWq0hmYsxIs+sdlR28AJAx5sdp2ko6wGSh8mSyRpwPq7XepZd7Veveojz9fl14Ejzc+rw8ywcaDrpmGh6Vpn6snh5NN+exmmeLhOTZ09j8zDUwdzHaR3ErCb39UH2SnT6+vw69fOLTOd5flMHc+rQ+Kur/7nwWNhu2tn0R195zbzp9pvNwf17dFCuuIxn9/fccbOsezZinj95yTSMrAchJ3qc8DEbH394IwQT9OxronJyxy9SO4TQXfGxrl1hP/q5xuhyFs4qV6Crq/9tw8Nwvr08/5l2Y/mSPIOuBXJFODN3sl0vtUw4O61is/WLfXcBMPye95jlNxwyO16RJy7N+lAQYDvg8uTQ5J7oDkAvQefA7gXbOyb7KjVffrX4fE0Jx+n0D9KEn19ai0y+tmzOZtjItpymDvo/HQ/UNqNvNsPGypatpFxZ/+OXeIi3j2Ql0ml5zQ6vBt59283mmr27Vpq6AkpF1nm49403m+sP7DcvHD9rZmSWPyf65akdHP95kdH0K+t/uTUz31ya/YwsznVZJmfUyuWhptysaY+OTJnapdPa0JYv990FwJvf+U5zZPdu07x4udRcqlXkPVbcB1vlBcCW75f+dJA/KvvT+4HXVxqBq6X/5Zc2LgICeRQgDwRkUZ3L5qXXTps333HE7N21PuvksyuwEM/thw+ae++4UZbnnTcnz1+WhXrcu/vEbJn8aul/uQBoyQVAaB8BlGrh+FBj6YPvbRcmR03jySe3THf04kjfXQBclsH//LMPmaG58VK93ZILACMPwUo7hnbs+V7ZTvVIL40eYDYoAlvlB94GNW+gtksErqL+t7fd5eSM+QBoNt7Pf+H4Sbltv/4XAbizf+2eneb+N99uhipludg4Z9cG6HY3oEtvrT/7aun/MJhryxwA2Z/jsqwCVCuExebwcrU9dEEWWXrtxfWP6wZq7LsLgOY998gqnMNmfHSsZGr1itzyGpEXAcZlEuD98ijgtnWPFR9xbdbgzrO3Va6uN9OPzbSVN3Dy+iMPf6X0PHtbIRZo22b6sZm28votrz8EbxfIke+FQOYD4Ovh5LmLG3YRAPfGRobNW+WRwC03XGvvBJyXXSDxFsimXghsZp9spi0EOCtl9X8YXmguzn623ahNy2SM6pDs0nHHSLM91KyZcyeOZ2nZsrS+uwAwshKgeecbzDXHlmQSYKPSbgXDsnL1xPCOvXIHILoAyBs4efReumezLgBgB395vvp+5OGy2kQs8yyMpmXhfPsaj3KWDGhIWbJZeIfOxoOHd5fsTGYCvTxPZx7dE8+sZvmeCbxCIuzgL89X3488XJYbxDLPwmhaFs63r/EoZ8mAhpQlm4V36Gw8eFul/6U9eBRgXZI5ATgRY019zAl4o7wiuN5zAmAHjwSOXHeNec+9d8jyv23zysnzpi7LAfd0EcBYM7eed/jIwmX1oVaRJQMaUpZsFt6hs/Hgvd79H4aXWsuzn5O3AKbL5UrdVCqNmcnJ9lyzKHcA+mst4L67ALju2mvNyMsvyd7LpVJ9uVGRjSvkEUBZLgD2fI9cANxuxw4Hmh5c/iAkj/S8QQdd1EdMXr5CZ0TQ8taefPgnMA5q6rA2FI5+5MlrG9o/6gWNGOYax7LVH1V8XMo3CuTkkKUu6mGuRUijbsoQQz7ryBm7PCxlqBMyxPo80oFBIt/VXN2nkefntBfrjAha3vLkg22gDvZTJOLICgcd+MuT1zaoEzn1okwMc9D8ZPVHRB+X8s0X9OqQpS7qYa6hpFE3ZYghn3XkjF0eljLUCRlifR7pwCCR72qu7tPIs3i3NgDijDcDMAnvlNwJeFZ21cNFwIF9uzV63cqT46PmnXffKm8f7DYnzl4yl2QyonPHc3bQ/y7m7GeGh2ODdPYM+bru08JwurU08znZi+Oy/PisDZmh5j5ZDajSKJpLJ1+gZF/kfXcBMPqOd5j64SkzfrJQrDebFXktd0QmYI4NT+59t9ySe0N8ANuOlQ98WeAgsAk9ibLkthjxUcafTQpLGuX5xUMocsKTghBFkLIxFoQIHPsU4VL6Y4VOklibO9WpL0CotaohF+lzkrE5VmM5EGgzZkrBts+zb/kwgKT8d4SYtLK9kT+xnHUyshGp0n5n4uhLZD9SERuFv5ZFW5LbNkT64a+Nm9YTYa2uiI+y1QMnFJY0xoq6AWMiPJYDQwQpS5wlRODYpwiX0h8rdJLE2typTrURdvBndUT6nGTSFNa1/7RJHnLL9+xbPgwgKf8dISatbC+wWs46GdmIVFlSJxx9ifREKmKj8NeyqENyttGKRvW4rVQQyYFOHVYPGmUFne+kUZ66AWMCXOhFmbFvLwIC/Bo3dre9x4++bK6/dr+58dA1QqMyCl55XimXzBtvvs68RR4LzMhOfq/J3Qe79j9tsSk0RTrqbBN5yC3fF7KMCBXxUnoi1orm2cAoOQCERlmyrR8UjomeLxE/UhH3EXRZli/nTMX24rZSQSQHOnVYPXAXupAiDIqUp+9BcK61OP1XQas+EwZhbSQcak7LkkCBXADMnx1cACBkG5b233mnqeweMqMnm8VGe1FehA2HZSHAseEpuQAoV+6MOyv2IO7ZmJLqXFDRsexkhYoHq6axnJKBDc8OBwvxfm75HGxgevI+PlUHVg36mCd0yyIvZvRW6OYztRBn3Y/aANpaYujHAXXqp70ryhEQP8GGoq3V97i9UKYVourVlTlbtPwodo7gIzrUoZt97OmwLPI6qMhidfOZMsRZ05F90OJ4ECg5sYoUF8GzfNWGmBajrrCAgPgJdhUNNtfieywDfbgIkC2CpSkhLgJE/UV5Rv/Qk8+Za/fuNrfKTH4sI7wRad+uSfNeeSSwd2qHefnkObtngGue++zZpu2LHtDEXZX9LzEN2meaCzOfb7casyVcAFTkhbSxartQCczSiWM9BHDrQPruDsCOm282S6fPmrHyeKnRbFdkFu6oHLxjQ5P77pcLgLvWFFoM6FUeK2uys1WE1qOt66EjLx7Qrc4JebAV9LX6NOj/FaHsSlhrrLsqFkDf9n90ESBNwDoBGFbYwOdhuQjAyf/OW280eLd/I9LwUMXcc9th86ZbbzBnZevf0xdm5HVBTBDMsJZFy4B1JK2HjjwD0L2Vj/8wONtYnP5Cu1GfKVZK9aHx0caOofFgtDJmLr96NK9VW5LedxcAd7z//ebg7YdM/XyzuDA7X5FRPiJX3MNyAfB2WfZSXhHYZmkjD7RtFqpt2ZxB//dZt0ZzAqTfeBGwJNv5PvL0C7KLX9PuIDgqs/k3IuExwyGZE/AeeV0QkwVfPHFWXpSSeQmZVwEb4cHVoTMM2681Fqa/ZFqNeVkaulZtzTXa8yeDdntJHgGc66sg9N0FwMLb325efNcRM/HA8WKwPF8JZCngdtgaHZ665h1yC+7NfRX9gbODCAwisP0iICdcu6WuLM9rLwKkhc1WyzwmcwLwquCdt9xodk1ObFi7x0dHzNvuPGJuveGAefXMBXNRFhDCbZXBdcD6hFweOZ9szF/+UtCszRVDUyuHI7I780xQkL0XFs+fXx8jm6Sl7y4A6vIIwNy504w/cqxYaAbloB2MYDlguQNwn6yP/dZNitvAzCACgwgMItAhAu5OABYMsssGyz3tQOYMvHDspN3g55YbDtr9Azbq1zm2Cz5y/TX2QmC51jDHTp+3rw1ulL0Ogdh2rDBoH2suXHpA+nVerqpkM6DR5sXG5WBR9mowgwuADe7vc3KL5Y8+a0bGJophUJFpF0YmAeIOwP575QLg7RtsfaB+EIFBBAYR6DkC8mqy3Y0PEwNldqC9HX/m/CXzrcefNTsnd8iiPgcNNv7ZqLRHJga++57bzO6pCfPyCUwQrA4eCVxhsOXE/5JsSPegPH5ewF4A7XK9WT13OrDzFubmrlD75opv3MjbqHZUsUe2MeM7dskl9nA5KMgcgLA9Orxj392yTeY7hLVBT00xKyVLdR4dXq5n6mSnE289faCu1dpbDd7H+nX6sNl5nh959PX2r5OdTrz19gP6VmtvNXgf69c3oj296MzzI4+e6JRtyu3OfTJ7XK4B2vZW/Oz8kvnWY8+a5WrNvOHIDWZMbttvVMLywZwgePrCtDl14bJ96WHtdwO6tzndltXgfaxfT2vevFrih/ThC435S18N28GCbA1cK40Vm8vNamDGxo25dGnzXFoHS313AbB3717TWF42ew4dLobl0YoJizIJsD1S2bHnztLQ8LvkJK3etWGnIWfCSZx1ntCJA0aXKYNcy+XVNZ5l6mOu6dRDmp9rmcTXhKp9Ip86EhQp6Rx8JF/OUZM4aD3dZCjLnLJ5flIf8fRF48EjnXjySae8n9M+5aiLdcoTB74ua320SVpWnTydUx9z8lBHog+ulv7UMsRh8VdKaR/Ip4YERUo672af8swh3U0mbSGJZZ6f1Ec5tkHjwSOdePJJp7yf03fKURfrlCcOfF3W+miTtKw6eTp3+mSymMwLGBLtWDDIXQTUZVLgY0dfktX8zppbDh8y+3fv1ILrWsbJHhME333P7fbtALwuCPv5FwGMA3O4gzIS4+Zq+Z+U1bHSstRHDeRpPHikE08+6ZT3c9qnHHWxTnniwNdlrY827dLPzzbmL3xNTv6LcnFXHy0UGtdOBO2d8hbAzNmzWmjLl/vuAuAdb3ub+am3TJpnm9cXm7IQUNu0h2RSxujQxJ7bS5WR+2Ws5LSJnb3aPkk6Pi3p62Odgwto0ihJXZquaXmyxDs+a9San/eiO0+asnl80DWGXuk2dJPtxCdP29A0lGkT5W52NRb4XlOWfcj6+ljXfpBGW9Sl6ZqWJ0u847NGrfl5L7rzpCmbxwddY+iVbkM32U588rQNTUOZNlHuZldjge81ZdmHrK+Pde0Hac5WQX6blLBWgJyM3eRAmRcgr+phJ8HvylsCe+V9/psOXSt7m6nfML262SNux9iIeYesIHhAti7GWwIzcidCrk0yEoi6LRmQq7T/ZcXHJxtz578h/VkdKperk/uvabZ/8N1BcWKXmX700axAbVlazslyy/prbrv/fvNjP/Pj5hNfe1KuvdpYCnhY7quNlid2HikOjbxXrmjlCGPKHNlk5uYY9lqSdea5gimpXg4galqJtYeefLiZu45v1x2RImqdUzaiu/8rtVIGtjmLGDR8N+T/elipZzUUbauTHH3Lx2THIR/vOL5e1pnny2t7KEOil7QSayXlY9D/+fFbXX/k6/E5vl7Wmfv4pN5D/0uH2jcE5LEAJwcWhXZxes58/ZGn5VXBhrn9pus39JEA5hy8QVYQvO+Om8y5S7N2YyH5NZt5PLPN+pgE7Wo+/mXtmccasxe+LTtBVOXdv1qxHjZ33DMVNF+9ZKaPDtYBSI6HDSgFTz1lzt/6dvPal75eDC/OlOWG2ohcAIyUxnYeLg2PvV++Mof0iUofknRHD2bSdO7LoA4ZJOp2NffZTZ+PRT1Lj8bBpsXwCGQdIKH58r344LcLqrolLQObtKPtk9ZNVye+1qF1d5Lx4wAdSJRXoXOM6FPbSjGiim4zSKj7uiOozbrp87Go00fN02XYtBjViFhm0P8uVF4c/D5SodOhjcdwiqgqG93/6EdsIlQoyRNM2d5crgSkrwumWm+YR5950bx0/JS58bpr7WZCG3WRjTZii+F3yQRBWc7WvCR3A7I2FdKxgN8c6/FYFD2kqRCuuqh1aN0dFb1O/S97ADxUn7nwiJivyS2dWtCoN49//ONB9cw504zmqHX0ewsx++4OwOwHP2g+eN115uid9xYL00vlIGwMB61gpDy641B5dOID8rU5zAGEwasHlh934kBP4TK+OaDLHgz2I61J60lzXE3rBhZ/oCH5sitMe/ZQpYzW685SCc/++PRkrUH1kZJXdBTpH8r0mWXkOtGfmCaNsO2gfd0oXY4FIr9zeAqWKvp2WY9zQXdqI3FQmsJl+GHjDiDbhHKUtB7SdK51A4s/xteXXWHas4cqZbTeQf8ncWF8EKtUjHSnqDiCnMKt6ATX7bYrvP6ALO2hnJW0bmItTe4ClCpDIuLmBUAWrwq+fOK03A14xmDBILwlUJFJfBuVJmTy4dtlzYBr5GLgheNnzNzCsrRHHlEgBlGCz/SbOXnIV9BE1oaQsdLx1GWlxOrI4SlYqujbZT3OBa1jnxKWCnGgp3AZfqApFo+nNs3aN1vzl56QOznVUqFYK+2abC7sLQfNQ4eNOXEC6vom9d0FgDlwwHz7wQdN6yN/WBiZWSq3ZS8A6ZqR8vDY/vLo5F+TwSsvY0qKBh8y259R3XY02RENgHgwRJ2PzNKRC87WXTHWDVZWoo0VPgAMXbCHIj6UYtCRQEZSrESOMpJrn0FG3epGBYm5FKnbkhVdyxADWqwbAlHStJQdAphH+pUZy0F7rA5biMBRWdumGm3DlsGgUpGL1US0GKNwYFmch7HViAZA3LZIKTJLj3TZupRTcuBlpNiPSD+ySK1VQH4cC+gQEOhR0ea+TSunlGmfQUY9xmhFUqZuSwY4SlqGGNBi3QRKrmkpOwpji5F+ZcaSbQxAjIORlLVtCwZLcLRpy2BQqfBiNREtxihcbM7D2GpEs/2syrYvoAP2I12wFRUTHyKan8V+RDqRaV/Jd3GWBXpkcqBbL6BtG41HAnOyuc835S2BMzJj/8j1B8zunZO+mXWrl+2mQtfLMsKHzXFZOOjMxZlM3ewLMG0bGDMfrdqtWTYGqWBAkfwJDfqQ8mwwZq9//8sUzmbta7IXwNPSZ9WwXKoFwXxr+YknA/sGQLPpGtInn/13ASAj5K0/94vm7MR4odIwch+tKEdPMFqqDO8uj0/9oIygcT3G9IGXOtDZQdFgjQen0KOxaBEROzUwLU0+4kHr6WIVOQc0ZGJfIgB1R9V4bBNLOnJiNY+6yYz1A5QCJvLUSX1xXQjQZ+k+kyAvj+2DLsatfciiIClWg0JcsSzfPUeMPq0K+Ujpj1RgFrWvzFMd67Z6iI4qvk76Ffsu+Mh9KSWWtJy1Jx+D/rchch8StDiGUQBtnBjEuOLgqDLOHsv1nxB1zKlmO/Y/thCWZczt3AD7SEBeFUTjW7J64NMvvioTBF+0FwDYVbC0QWsGINYH9+2ybwlgrYBXTp1P7yzoui31meqfq6f/G+368pebS5dfkFVoq8WwXQ+Hiq3qpCzysOeA7AB1MRWjrV7pvwuA48dN9b3fZ9rNamG8OFKSKaxDMvZGZRlGuQDY+f0yM3Mnv1Bc7r5mcJAxOYpMepF/ruw4dkALDEj+pWUcXcs4vtNly0oedehxX1qsORpqTA7jan4Z9W4pwcCzqKUJcaVBq1D57BmwovJBFcjtH2gRMcpSkqQxPqwTpOsoUxf5zIkDnydZ8BydXIemDtpEtNnXDuk4pEHKUQb9r2PiohnFFJkEj5FGbv9Ai4hR5gSiT9LYF6wTpOsoUxf5zIm72vof6wW4RwIyRqMdBRGk85emzdceecpMz87LroKHzOSEvG++QWlyfNQuHITNhZ579bRZln0M8EiA/cU+Yx9pN0jbzv0v7a23q4ufby3PHpMNnqpDpUKtXgyab9xfDwvBpFk8c0aHZMuX++8CQEI6ef3dxuzaUxiaa5TbpiUv14ajMqlmZ2Vi5/fKBcB+fF1xMCY9AAqHpqMCpXFpBLCOz18dju90+JJpWUjSBrVEhJiDurNBjsvTPjpNcrLikWdBiW+0o33U+rIsQIb+O/m0TfASiisRn+hO03mRE39ZCBC0RBfwibdWn1RJcXqJcXniW4JCiX/sT+hKENDk1x2NeNSQfDnocK0CN/FBxzZuZ8qis5fIJu1yvmrvdNnZgLUkaS2gOq8G/e8i5OLJ+LpY+f3oejaJaCKZjq0v5yJNOdc3juaXfQvr2P9iEOsF4GIAiwaF0eqBeDvgcdlL4JFnXjB75HHADQf3b9jdACwcdK+8IXD9tXvM0WOnzKw8jsBjiXRKYg96fFzwYiGiITIO6WLodEQX6aIyrZUYlzseaU4SNP7xaPX70e+dRBK6kuTLQW+CSHzQx790SLW5PPfpdnXhlNyNWS4Xx+o7hgqtD995q3TXkHnppZcSA31Q6ssLgN0332tK8giguFArN4Nl2REwHJUZtZOViV33y4FzHeLuDsmVPeAG1Uq6o6SHQEJz+jjI86QTfDKMsjTmyzvv8nz35YCjT05G20147pCBNPnaAmnpmGkE7Sa0bBng2AL6RdluOXVT3vnqat1kwYe8RqdriQaNSagsgZu0zVGdBPT11qa0jnSNdvLyxFYeQtO1T669ie+ax15J2ubQTldahvo1YiUtWwY4tqC3WFGz6z8tf7X3f0Fu9eNCAHHAhYCLq7FzAr76nSfNpZk5c6OsGbBLlvrdNdhTswAAQABJREFUiITdBG8/fNDcfcsN9g2Bs5dkXoA4kTXOtP3t3P+uncFSc3H6E/IY4Lw8uKmGrbDeHim0PvXvfyX81JeOmmeffVaHY8uX+/IC4NYDd5i9MtliuV0v1hp1mfVfGJFf/hNyAfAuWXv7pk5R54GUhcHgJh85y1nYzaJtBR+upK30n3knXcAkp5be40/dWjbPDrFZ/EH/Z0XlymiMN/NO2oDRfdiLDPQRp2Xz7BCbxd9q/S/faaYobwkgx0UAnofhTlBNXhfE3YCHnnzODA8NmZvllcGNelMA8wLeduct5sLMvKxYKPuwIMidgugFllDmHjtVBUb3YS8yUECclk0pVhViFSku9tL/ckfmomwF/Jl2o3GpFJhqs9iqN0rV1j/5+78T9tvJHw3vywuAPUcOmtGJoDA9v1iS12iHwoKRtQDao0M79rxVJtPcEfeoV/AHGNl6UOgy+b3ka5XrRXe/YvLi3Wt7VhvTbvg8f7ScLvfqJ3BrlVuNjX7D5sW713asNqbd8Hn+aDld7tVP4NYq182GPSlxgqBcANi7AbjNLn8XLs+Ybzz2jDkhM/cP7t8jr/Lt8h4VdtPeG3+3bF2MVwXnZHIg1gtot92mRt2k8+LdTY781ca0Gz7PHy2ny/QjlQfBmebi5c/L3L/poqwEKG9Q1Mduurb9vz//fPjZ3/7tFLQfKn15ARAevMYsBdVCY7Yg98lMRa7KRgrt1nBlct/d8krNmxH4rh2pegdY4pkr9lVZ7Pc4rMZ/YIlnflV2ump0v8dhNf4DSzxzFYotUcRrgiXMDbB3A7CzoLsb0Gi2zLMvvSaTBJ+Wtwbadm7AxJh7E3o9HR+X9QLe+abb7AXG0y+d2PJbC6+mH1fT/7J644uN+Ytflh+cs6VyeblSGmlUJfCnTpTC01/98/UM+abo6ssLgLvuvdcc3runsFBtF2vVdkXWsh6W2z+j8gjgtmJl5G0SObuY9moGQadoX6meXuV7xXXy9Wrm+fHz62uNzZXq6VW+V9xa27Hd5fz4+fW1tv9K9fQq3xUnv/qxjLCdG4C7AZggKI3C3QC7u+ATz5qnnn/FTMlbAtddu8/g/f71TMMyOfDNt91oty9+Si466o3WhtxxWKvPfvz8+nrolX0Anm7MXfhaEAaLxSComnKrMV+91Fq49LKpHj+2VhOvm9z6jpBNakb5rrvM6aU5UwqH5QXMqiyTFcqWwLIa4Njk9aWh0XfLqNy4pbPW0Ma1D8RVPnCDb/LFIO1fg5cDkY2KwNp7Y9D/G9Unm6l3vfsfdwPiNwVkGWHeDcB6/sdPnzMPPvykOXnuornumr32jYFi9m4/awpBRS4q3nTbYbNzx7jBRcBytbGlLgLW1KhVCMkywN+VjYAekjsxy/LouTocFBrjd97QrrSaZv6VwQXAKkK5dujcHXeYxQN7jLkwVyzIhkCFoD0sg3+0NDy+V5YDfp+MSFkdMCut4Qs1S82m0dbw1dHTyV/HQZfXu2HQjbSGdkBsxcXMlfp6pfJwajPTGuI26P8OHbSN+l/6GfsJYAEhJDtJUKbQybvpdpvfZ2QBoQcffsK+x3/9gf1mh7zfjzsF65GwmdBd8nbAXnkd8bHnjpmlWt5FwHY7/iXK9epX6/OXniyUistDpaHlnWO7m7fu2d2eKE2Z1557fD3Cu6k6+vIOgBkbM+bsMTPVnCzKK4DltlwAyOAeLZWHpypjUx+Q8814arYqj3s/t6HWBwUBYHQoa5Y+udkTFmS1TtSZIIhEvtTzdDmgfBLg52AJzR7U5EEIZSbaYZ040CMcSYTEvpFAQIQn2eZKf27biaEeCFIXeZpmFYsXwsv9wvLkrGrSIt2+ObBJY25NUY4+sK5BXllXdbxyY+DatLLdoihPF0ViAIHMBTDofwQhiqHuN0eOu4Yh83MbY8qhQkCXsobFRiAuDKtO64QuJggikS/1PF0OKJ8E+DlYMg9A1gvA3QBcDKDuJgm6Qwfv7z/81HPmW7KkMLYYxoXAyDBeLbzyhHUBbr/xoNkzNWkePfpKtGAQ9LJttME6/QcdZSTyUCYNZXCEt9WO/1AWAaotfqm1OP1CoVhYFo+rzXa9+fh3HghOnz9jgsV553wfffbnBQAC/OJr5qa3vLnQWK6XWq1wWN7SHi0Uy7IWwBTWAtibGlscZ36ux6TtNAHEBzF70RcSOkkcs6wzXwGIdMX2YiCNuDyLbGWyGJ4fGhLbEUzsowYosyDHGEX3i1pnihfp5cGaq0sbSinoUsmQ832JXEgp0jSW/dzXg34b9H8qjHFlRazIiYI66P/ke2Gzj3/pCnn92c4PsAsIteWxgBzU+MWPnf7OyTv82Gr4saMvmtHhYbkQ2Gcq5St/SsqLACwc9OjRY25ioDcsWHXB4ZdDQu1ewvjy5PyxyONaK9M0lv3c19P1+A+Xm0uzn27VFk/InZblUhjU5ATaWpg7FQQVuROztKQ96Ityf14ALCyYt8orF7M33l6onV+otOWWvwz1Eem/scrE7vtkEY3DcfR1J+syABgQKZoQOEhAR2Ld1dJjETzNT+miQJTn8bQO6tJY0Fj3c6gGDYk4XaY+0pAj+TLA+fLEaTpoSFovfXIcx6OMxpGPnDLMs3hZNO13Fp80rTevDOwKP4VAnzvZoh1giQdN2yKGeR5P66AujQWNdT+HbtCQiNNl6iMNOZIvA5wvT5ymg4ak9dInx3E8ymgc+cgpwzyLl0XTfmfxSdN688rArvBTCPS5ky3aAZZ40LQtYpjn8bQO6tJY0Fj3c+gGDUlwOOHrSYKyb50w3IVASy4Kjp+S+QGyiNCxE2fMlDzDv2bvLjuhz8qv8QPzC954s117zTzxwnHZPyB6RZC+Zuklj7nGdKKBh8Q4uVoSn6y61qfL1JOiIYiRkgxb8ph5urlw6ZOyGdAF+Z1QNcPF2tDuscZtd90e7N5/wFzos1UA0dL+vACQ3QDve23SvDhSK5TDcjkoyRqMcgdAXlAdGprYfZccBG+MujHJ0LG6c1HWnawHAumJdOeS1gWkb8eX9vl59ny91EN51pGDpul5slqGcsh1+6mHOlj3ZXVdY7SuvLZBlvq1nl7KtEXdfp26tS5gNA5lLd+rz1ony1oXaL4d4pj7fPpBPnNfr6azzBxY6gUtT5Z45pTR7SeNOlinTFauMVpXXtugg/qz9HWi0RZ1+3Xq1jqA0TiUtXyvPmudLGtdoPl2iGPu8+kH+cx9vZrOMnOlM15ACI8FpJF8WwC/2BuygNqzL79mHnjoMXPu4rS5dv9us1tWE8TcgbUmzAnAioGyLot55pWTYlIapPzJ1ZvXvlyBiOHr9uuAkUZdqJPGvmbcQScNeNJRZhKMvAJ4rDl/6YtylTMjayMvlYqF2o5D+1q/+Af/dzB9Yca8+MADRPdN3p8XAK+9Zqp/98OmNTFkKvWFUthsDYWhrAYobwJUxncekVcB3yI9wO5e2Rns8JWc7hTI5mt28uQz11pJ8wcZ6RqLsk9n3Zf35XSdMp30afxayrCxGp98G5DXfvp81Lvxs2SyaFfi62r8zPKXND9WpPv++nTWfXlfTtcpA5ouZ9W13GrK0Lsan3zdkPd9y8L4tLXUr8TX1fiZ1R7S/FiR7rfHp7Puy/tyEkw3P2BYHg9gXwG5G2BfG5S7BHIhUJVNfp6QVwa/8u0n7CuE2Glwx/iYvYuwQlUPBDwGuFPuBLx84pw5dvoCrPcgpSCAdxPpxlfqOhahp2v8VmoIWs2n6vIKoIjPy5yK5WKxUt+5Y7R118mR8Pc//u+MOX9+pdAWp/TnBYAE9db915t9rVahXgtL9eVGWQbciPyNFkfkTYDhsXfJSHbTYzerAzCormSAXonsZrWRdvy29pPvbMN6535MVqu/n2Lot7WffF9tv/SK92PSqxxxGxRD+1jAzg/ABkOypLBcBOAXOuj4N7e4JNsNv2C+KSsK4jEB1g/Aoj9rSRNjI+bI9deYh5560UzPLa35YmIttjdDJmhUv9Wcu/AdmQC4FMprgLLcTF1WQmh99+Rr4dzD/ffrHzHr2wuAsYN7zeW5k4XhxlSxFbYrgSwHHBpZEbBUmSiPT8mugAV5VeAqShv0BXIVRbC/mzro//7uvyv1vkv/28cCdhEh+V0kJ3/cDeCFAExjouA3Hn3GPPHcK3aC4HXX7pV9Blb/G2r/7ikzMjJkvv3UC6YpqxTiQmN7pLAhk/++1FyaeV7e/5cLgMKSGSrVze4d7Wq9GlZP9NcugOyTvr0A2PHWt5rmznFTqhYL7Ua9EoR4E8CMyNXZuDwGeLvc/trHRvaW457QZgzW1dhZDba3VjoU73/12l7tR15Z29cYTV/v8nraWU9dndq5GjurwXay6fOgF2nQ/y4O+NyoWCcWXGk1dlaD9e1k13khUJCLAZk4bdxEQfktKyfqtrwx8Nrp83b9gBdfPWkXEVrLRMGbD+03r529aJ579fQGXwCsZ3w665IJgAvNhelPtmtLpwI5+cvt/+Wh4VJjbvpUu9lumta509kB3+LUvr0A2P+TP2nK991thk7PFptzM2W5ABiSK9pRubs1XBnfdacskHFzOvbsYORI/PIjnXXHdZ/kUUbzgCcf9LyyltFlyoPGMnPSUEfy7ZPuuAk/jw4cdSMnjrn2XevUMqATxzxP3pejLHXnyVGvziFDvK9H8yDjJ1+OfgFHHm2xrnWQl6ebfMjklbU+XfZ9oTxtgU+fSKM86ayTn0cHDjzaII456dSHnDTmWbQ8eW2LOqGHKU+OtnQOGeJR1no0z6drHuXol+bRlrYBPhJ5ebrJ11i/jHpW8n2hLtoCnz6RRj2ks05+Hh048GhDbv5H6wfgQgB3AjBHAAhcCDRbLfPiq6fMl7/9mDlz/pI5IBsN7d7Z+0RBvGJ4UN4w+Ppjz5m5pWp0EUAf6Qty+oMyEus6B123S+vRPJ+ueSjn6SRd2wAeiTwpBa0zsgTwZ2QewCUhLw2XS7VSsdSYLs4HpaER0z49uABwMdukz+KZM+b0J/6jObj7pkJrTtYCMK0heQwwGrbaQ3IH4HCpMoxNgbJ6NcNDwPQA0nWtQpehRuMy1FqSj8nS4ctShrnPR516svzOkiM+i5enL8suaXl6yNc5sJ3sk6dlNrPst0XXtW+6DP80Ls9fH5Olw5elDHOfjzr1DPo/Kzqro/lx1nXGWcec2jWOND/3MVpflk7SePLR/at1U4/m0xbzLLziycnebjKELYdlomB8ISAQ3LrHRMEnnz9mvvLQ4zJRcNHceOhamSg4LjytN7u8Tx4FzMvJ/5FnXxYA2wKssh+L9qAwxm5EwfdJ151vcuJ/ujl/8atyn2RO7pwsVkrF6q5duxsjY2Gwd2q3udyHrwAikn17B2B5etqYmjGVHdcU5DZWqV2SSX8h5gGEozIJcHd5ePwdMlJX/xBrI8ZXX+jUg36jHN4MGxvl+3bXuxl9sxk2tns/bUD75IyOJYWxhkAyUdC9z4+T/ZysKOgmCj5rT+WHD+43oyM5q61H7uECYq/cNXjgO0+L/HJ00dC//d+uL3+9Pnf+ERMWFkxJVgEM2rVKpdD8l7/7K+Hxp06al598cgM6ZuNV9u0FAELz8cXQHP3iA4X5uWqx3W5WAhPKroDyJkCpJBsDyYqAheLExodwYGEQgUEEBhHo/wjgpB0vJIQzv9poCK07f2laJgo+bR4/+pIZly2HsbRwpx0HJ+W1QrwSiO2D+3oyYBhWW9X5z7WW516ROxiL5VJR1gCo1OuF5dYf/S//KuzXkz/6tK8vAB5+4QUzd+2EKZ+dK8p+ADIPwMhLrwabYcs8gJ13yfKYh9DIQcqOgF2vAxflg3RVRmDQ/1dlt8eNzut/N1FQHgvIHgMF3L3HhYAknMSx0p9dUVA2Gjp28oy5Zs8us3/3zsyFhEry2iFkHvju07IAUf++ESCvTl6uz138ZNisn5cFkxYLYXu5GBbqy7t3tva/50fC+ae/bePTjx99fQHwfbcdMdddPmNmZPL/QqNalpmaw/YxQNCuVManbihWhu/ux07ZLJ9xke+nvC8FHzeo938EBv3f/314JS3o1v/xtsPxRMG2vZWP5X/rDawoeNx8TZYWvjw7b2687lozObFyfsCYPCr4sjwGuDSz0Ld3AeT5/1GZAPhAELRnZZ7EommHyyPlqfqh+9/aLszOmctHH72SbnhdZfv6AuC93/M95qbrrzevTV8qLC/Vy4FsySCDetgEZlRmZk6WR8bfJqNu3ecB9NVJUs+/6WGo2WsCfWGwSvkeTORCNtFUrg+9MAb930uUVo8Z9P/qY9ZVYpVBXXH8yxeqfWMAEwWLZTn/RSsKCh1vDMwvLtv5Ad9+/KjdV+CwTBTU6wegjEcAWCIYFw6d0ipd7aRqXXlBvfo1uQB4RLxfxATAcqVUNSOt5uWnvxEsXj5tapcurau9zVS29gWgN9PLHFszMzOmNXPBjEztknN+WV7PlJcBQiP3muRNFtmxSSZqrOwZGWVypyDRqIoJMSrl8GTcJ0l0rdBHOeQsJxKdS51k4Hc3fZ3kYdmTt75DLduh2xZ5mmofvff0kLwiz/Mni677xVeUZS+LBrk8esRLtacL1ncD9UH/SxA6xU0HDbgsbBZ90P8uVlnxQkxfj+NffMHxgscCeN1Ntls38sPKXhTAJWwhgOPhmRePmX/6r//Q/Or/9nt2+2HsOYBUKZfMgb07ne+WEn30Q/+Lq9L25VZ9Ca8yNGUBoGZYLLSComw+MzkeHliYCW8eXtuqiToUr2e5r+8AHD161Dxy55vNqWbVlJfniyaQX/ttMySDdSSU1QFlsN4ik1pusgcOv7VlsNoJKTiYFM12AmkYnIKTU7vDRj1kDwRbhpKI6KDukzTkosupsRUHpj0wkIh3NfWpfCM2+hZ1OhU0pZPcSD7yAWhnKjJIl1gVHYhJVHXKqVeIls46YhQnSkQ0wfDkGsvYgpaJhKEPPLAsRtmJ+0GYtGvFInCEd8KRPmTA0j9dJs/mgEU46qa+2C50Qfug/xEHGx7GivFFLNlx0dhE/Af9H4VF4uRGK6KHkqQ4hq4ahy+qJpka95EodTidCTKtk9xIPvIBaNuHNEiXHNEeD70e/8C5iYK4sSoKApkfIHZAx1LCWD/gq995wpw4c8GuKCgr5pnPfP0x85LsQIg7BnFCGVW67LS5GGGMgc88ForAsRrUVaIMSLrMus3B8nRTH+0pn+RH5MnG7PlP4/1/gc3LpIilsqw+f7E63zx3/Hh49tw5aO3b1NcXAIj6lCw6Ebz2amHvzkOFZk0eA4ShfR1QBuZQaWR8d2lo9F6ByWyUaDz5XSWDIf7SwkCIO9+dFDEIvWFmNdgxg4GkE3TJP1KZU551LRKXOSgjQuwG6soOdFieolG/hfIjItIm5chGjmT5nm3H8T61gohFu7QBMspxnT7aPKZG0hro2gQGULZ9qCBFOnRcY77w4rJA/bIVxweSKLbHt6sln9ABhiRrKlYy6P8kSAiO/LkwxWRWdc+iHNejvnOBjamxfAJMVAMVdwGQkY5B/7uwxfFhbKN4OW4Ue4IQvoihSDENLMuHrugYiOArM60AcrKQEBYRwuuD6DG9kNDSctU8JRsNfeGbj5hPfOU75vkT5418L6fsWgPWuDOlx9JW6X941m5UH6nPXvimNHAuLIQyATBcHm2P1gr1RvvALe81M2eedQ3o00/sF9nXadftt5ux6nxYqI2Gw4vVdr3dbgUmaEijmq3qwsuVsZ2zMpllL7+8ONDiRnNgRgPcDj750F84euyrMWsPGuqzmOggsjrEAHPYSsl5PPBxEiJGy4GXeXBGtsC23wUiBDmbooKvx/ooAOJYl0EdCaYzUq1frEQQVulzWtLVeGJFLcZFRiFvZxg7aPxp6VKL9YtvLBMUqRD5iCMB6Bg/CEZQXxdia33z/Br0fxwyFx8vcKza2LFjvHzQ/8m49+OE+Glax/HLca7jq2ivy/Ef2S9ibgB+hDXqOFliy1z5PnItW5D5AYvVphma2BnTbKOl8bb9HESqXYwLWTjGWSYM2i2OMdiA4x8WxEZD3v8/atot2fmv0JCfkc1iUGyZShjOTYWmWe7vX/+IZ99fACw9/7wphnNmeehA0G4G7VA6SS43mzI2mu3q0vmg1XhZnl3tRWM5cFBmig/CaJT5GDvQBKzppFEHcp8WqbOQ2IYW8Moao8uAUZfvA3iWRoDCgofk+6V1U4y5k0g+tb2EurKkbWhdWfI8ZqGFWOC0X7Tg07SdFE+U6jrLWj90gk7aChsRw8fQpqaTRh3IfVqkzkLoj8b7ZY3RZeCoy/cBPEsjQGHBQ/L90ropxtxJJJ/aXkJdWdI2tK4s+UH/r4wfKLpfdBk8xlTHM0VjRWEhhwSW1qfLFGNuBdSHtqfI6aLt0IKdH4BHA+1GzQTNmrsjICdmWaVN8IkXfdX/QfuyvP//ilwKNOUbplkI5NxSKLT3HBoL7h4dCyvjk+aTD6XD0W+1vp4EiGCfffxxs/u3fsdUS03TLhbbrZa8cBqaBv7arfpCu159RoZfix2DQc2DgDl5Ovd5HMI8WJhrGZRJpzzq+o94n096NyxxnXLo5h9w1EkZ1HXSWE0nTue+LuAhn0UnD3wkYFi2hIx6nh7is/iahjISc7+s2+r7YgWjD58HfaBRL3MtgzLplEdd/xHv80nvhiWuUw7d/AOOOimDuk4aq+nE6dzXBTzks+jkgY8EDMuWkFHP00N8Fl/TUEZi7pd1W31frGD04fOgDzTqZa5lUCad8qjrP+J9PundsMR1yqGbf8BRJ2VQ10ljNZ04nfu6gIe8xchjAXnsaspjk3JBMGqXF5bdWSOEwwCrk1/P0q/xWXxNs36IAHPI6rJuq29b2wEvaNafb9eWL8gdZPygbATtoNkO2+0LlTD4pTffZ3bi9cg+T30/BwDxv0luQ73prfea2RMXC3IBIO+qFCpy1TYsF6Cj6EgZkPdiVUA9EPx+42DIwpCXJ+PTUc+TycPSrpbLK+fpyKJrGvTRjqajDJ625/OJ6Ubvpod8bYvlPN+0TWI1jb5BHvwsPXl06qHePFnidE4ZTWO5E48Y5to3LZdXppzONVbTdVnb0XSUweumI4+v6d30kO/LwIes2IOuk5bz6YP+1xFZWUbs8mLMflkplVA6xZ4oqwfzA+Q7WfZjMbIWiwysRJJ2Ekoy7vJ8o27kWs6nr2v/h2GtuTT76ebi3EsyeXFeHmssyPTH5ZGSTABszbf/43/6E/PkU09pF/qyvC0uAE7LM6jnX/lTM9K+uSDbAhSDoFGWThuSG1AjQatdkAuAwzJh5UYOvk49lTfAsmR8rF/PkiHNx/p1jet0YEAOf50w1IWcdphrXi9l2iOWepiTfiX5lejqJAteJz587sbX7fKxfl1j/bKP9evEg96pb8HvhqEu5LTDXPN6KdMesdTDnPQrya9EVydZ8Drx4XM3vm6Xj/XrGuuXfaxfJx70vu1/nPjVyZ9t6pbnxaKbHPidZMHrxKc8MJj9X585/5fyCFleJQ/lAiBcKA4VqwslWQJJXv8bvuZa0+rj9//RVqS+fwRgW/Hoo+anvmvM+G4TlpqNNuYACL2B2zZh0Fxq1xafkMleNRxI6YPJ1fTASPOh3ack9aQEnE75HA5AH+HXqS1NR41/DpHmU4o5ucyT1iQUYnlwZHESDLgawbqmJWink21OJCnl851kni6tN6/sZKkhsQN8ukZK2gdKJvp9SlJPSgnalfI5jIWP8OvUmKajxr9ulsCnNPMsitODT+dbgk04SSltPfEmTwo62ea0dSeR5js7eboSL/JLTpYakLOc+JpIO572IUET5VOSelIilnk+h7HwEX49WxNQ/HOIPLk0N0GxxJx2kDvfsjgJClyNYF3TEnT62EokKeXznWSeLq03r+xkqSGxA3y6RkraB2JkQuPT7frStMw0bsgSCHXZBbBZaDXb7eWFsP3SsbB2+XKeC31F3x4XAHKV+eRv/IY59Eu/EIaTo+1KqSLzAGTWZkH2CywUGo3F2RdkduqJZICzmzWFtGRg5PcksH7CrNEsHaS53Em6z0QDMQmFXxSgJOWklAznPLtpyeTgA532mYNGKmzQH+aW7X1oWZaZA+rKzjufznakI0YZZ8iX8czHPtIW8X6eyDmr4PNPU0ijvkRuZYk2NCevH6jX5U7Slycm0ccIgZKUk1LShjy7acns2Kb9cDXYoD/MoctPWpZl5sC68qD/EYfkj1FJR5P8hKp7OiknpbROLe8sOE0+nvqJYe7orgYZlPQf5XSuZVlmDpwr92X/h+255vLc4/JqY60ga/7LneRGuVJutkumXZ++7Bp24YIORt+Wt8UjAET/0pEj5rXlJbNrbrYYVtslWZRC1qCyywCPhHLxJpNTpopDw3cKVB8VqY7DnFUO3BRjQyp5tuiePph6cYByvWC7YaArS5+msQw/UV6tv74P1Ac6y1qvLvuySd31YVJfTWnQ/4wWYs0+IA25prE86H8dod7LiF/WMaPj2ru2dN+sRi4LCx/oh+ZrGsvbr//bzfpT9ZlzD8hjgNliIZyTX8myANBQtTQ62TAfeEtw8G//tJn9whd0YPq2vG0uAMz588Z89q/M7pvuMK1atSALT8jLqeGQDE+ZhSITAuVeTnl0x92yXPBgi+CNHK78Puhig18fXWADdr9FYND//dZj6+tvv/d/GDZk29/PthZnnpeJf/PyGHlOHpQvmXahthxWm0tvvyuY/dZ3jHnxxfWN2+ukbftcACwumok/+KhZuGbKDL14rmAajZJ0nqxzEEaTARtBeWTHvmKlcsuGxbrHwb9h9reK4vU4u2fFMovWrc1rkemmM4+/mbbyfNgK9EH/b4VeeP186OP+l8VkXq7PnP2MPDKelscX83IHYEHuJC8Oj5Tr+yeC1qWP/fG2OfljgGyPOQDRUF/85rdMdWk5DEba4XA5bMnbKA2ZHiCrUsgEwKC93Fyae1Se68xlHhn48tbJr2tepzLktKwuaznifL6u67KWzSoTi5xljcui9crP06nlWV7LwZ/lm9ZDvqbRXrecMtSRh/f5fj1PzqdDTsvqssYS5/N1XZe1bFaZWOQsa1wWrVd+nk4tzzLjzXoveZZvWg/5mtaLXmAoQx15cj7fr+fJ+XTIaVld1ljifL6u67KWzSoTi5xljcui9crP06nlWWa8We8lz/JN6yFf03rRCwxlqCNPzrWx3a4uPixrx1yWTQ+xmlFVglkrlgut8R0j7amwbX7tN38zT0Nf0rfPHQCEf37emE992uy563ZTX6oVgpaR9oWycKM8BigUhuWVjqa8EnhAVqy6Ie4tdDwGCQdKzIgKoBMDki5HkFRGXcRRXoOIQY7E3NWSOmV9PnGwgUQ+c01DmTiUkTSOfmo68cQxt8IZH5pPWcI0DzSfD5rGaD7pzMHTZS2reaAzaX2gQV5jWaZeyjHPw5Pv58BrGZY1jhjkSMxdLalT1ucTx7aRz9zXSRzlNI7t1zLEE8ec8n6u+ZQlRvNA8/mgaYzmk84cPF3WspoHOpPWBxrkNZZl6qUc8zw8+X4OvJZhWeOIQY7E3NWSOmV9PnFsG/nMfZ3EUU7j2H4tQzxxzCnv55pPWWI0DzSfD5rGaD7pzMHTZS2reaAzaX2gQV5jWRZ6GLRO12Xjn7DVuCioOcHKs//iYtlUambneGtabgE8f/aCmXvhBWjaFml7XQDMztpOGZf7Gm15J7DYCIrS2eUwCCvyPGdI9rIuy6pObdnO8m4ZCTI3QCV/YIHFwaJgtpiHpQzxxLHu5+ATowZi6iABn4NYl31deXXqz+KDRz7zLBxo3fh5ct3ovl7UfRp15NHJ7yXP00E6Yw1doOk69edhKePjWPdz6NG6WNc2QWNdl31deXXqz+LTHnidcL3ws/T3QvPtap98eR/r83up5+kgnbGGLtB0nfrzsJTxcaz7OfRoXaxrm6Cxrsu+rrw69WfxaQ+8Trhe+Fn6e6H5drVPvryP9fm91PN0yJrF7erCA/W5i4+KGvklaebk1b/5cqGwVBwfrk+FS+0//fmfM62FJfPQww/3YqkvMNvrAkBCvnfXLhOeOmPqBw+ZsaLsVh0WZC5AWJadnGTXCnsXoC6TAdN3AeKuwpHGEaKPuhgQfSloHHkKTxXISSYszqlDAygYgyIFVCR5DKFcTIiE8uhaZ1SmWluN/KE65hlijhThc/ma0SNW+7PCfka7VmC0zbxyJ180L8MeVFofNY52FJ5+WSz5fk4dlAOfghqrccKPIZSLCZFQHl3rjMoQJdwWlH5f7Qpx+rWCkUHoEav9WWGfjiqGKmYYzSF18kXzMuxBo/VR42hG4emXxZLv59RBOfApqLEaJ/wYQrmYEAnl0bXOqAxRwq/y/pdn/qdrs+c+ETZr8n5fQS4AwrkgNIsSllp9z45m7b47gv8kOxx++SMfyQhk/5K21RwAdMOlmRmD+zc3HTkQjlQmWvLsX9YDKNTkMUBVLgSqYau10Fyc/ZbMBcBVniQcATwK9MGkyxboPkRRVJDMl42OKEIiZILT+JgpBZGLV8zyMZFO980jqny+1qMNE5eVRzIazm8W6re8FECEtC7o8Os+LeKvaFuWHNQpOoqxfpSZiJF63Bfk5eWUsUo9EHkg6z7XZSUS26QcdQIf9RVJsZjGrmA6uRUxonCkM9ZNXeTrXOsmLiuPZDScbWcfWF4KIEJaF3T4dZ8W8Ve0LUsO6hQdxVg/ykzESD3uC/LycspYpR6IPJB1n+uyEoltUo46gY/6iqRYTGNXMJ3cihhRONIZ66Yu8nWudROXlUcyGs62sw8sLwUQIa0LOvy6T4v4K9qWJQd1io5irB9lJmKkHvcFeXk5ZaxSD2R5rVZt8ZuyYNw5nCtE8bLsVForyh6HleFK69bbbgw+9uM/aX708GFPtv+r2+4OALpk7Fd/1Zzbv69QWaia4PKyvBLYKskYLEunDhWKhZGw1ayXR8b2yFyAG/O7UH8B8CDMR6e/PIjrJEcec8igjD8k0ll31PX7pP5eNa7VD8plHXywTb4ua1qv/vWKg+48X7QO7UMvMhpPPZ3kyGMOGZTxh0Q66466fp/U36vGtfpBubyYkw8/WGbeq2+rwUF3ni9aj/ahFxmNp55OcuQxhwzK+EMinXVHXb9P6u9V41r9oFxezMmHHywz79W31eCgO+2LzA17pT577jPy7B/L+83LK+NzsvrfQqlUWm7tGGrOPP9k8NmXXjEPfuSjqzHUF9hteQHQXF42wZ/9uam/5e7CcE1uADRbRen2knRsJSwYzAUoydXjUnl04g2ySdB4X/TUtnVy5QG5bZs6aFhGBAb9nxGUq4j0evd/2JC3wz7XWLj8rHgiG/6Es5LL63+lxXajWb+8w7Sqy9VgoVaXrWfPbrt+2XaPAGwPyS5NU+96pyk993RYGRlpl0qVhlxd1gITLOPELx1ca1YXTrZrS9jNGRtWD9LrFoH01fjr5sbA8OsUgUH/v06B3yJmX9/+bzfqzzbmLj1RlPMDzg1yNliWCePVsFhsFEeHWub5o4F5QRb9eeyxLRKv9XVDFsrZnumXP/Q3zcGJsfD//c4j4enFxVa5LXsCmFJVTv5L8uhoXOZ8jjTmL367ODR6lzwKuHl7RmHQqkEEBhEYRGAQgawIyJ3g+ebizNeDZn1Wnj7IO/9mWS5HqmGhWC9XhprjI62gIq+QDd90k3k1S8E2oG3LRwDol+LSknnmk58yBw9fb6ZHR0xtekl2dAyLQTsoy6rAFWwXHLSaQaFUbpaHx94gkz8q26A/B00YRGAQgUEEBhHoHoFAJv19Td77/6bcBF6Q87y89hfMFouFhUKxtDS2e0fzJ77//vbn/+rz5seefNI88cQT3TX2IUJ+EG/fdGD/fjMsuzZd+Os/VBy7XC8XlhbHmo1wSiYE7pH1APZJy/cWy0N7R/fd8LdKw2Pv3r6RGLRsEIFBBAYRGESAEZAN4k5UL578w1Zt6bjc+p+Rv0vyd1He+58d2zG01Bg3jfIzz7TD0VFz8vQZim27fNveAUBPLcpdgNl/+A9M8/mjZmxkuFBsym//IMCEQOwRUJHbPUMmCITWniuPTNwiFwU7eu9hPLvaCtdP8AOpV182y+9udrrxXavyP69UXmtei661yGib61WGH0iD/ndxWMvnWvpyLTJr8a2bzKD/u0VoBV9eB28sTP+l3P5/Ts4DS7IEIJaHnw1xJ6AdVIvF4UajsBScfflYOL+wsEJ8OxG25yRA3UNf+KIxdxwK54+/JGf+YnOoWKnLiX5ZIItyJwB/NVkB6lRzafYBGQgy1dNPOMB4kEkev6sKnKLnlrU+6mLu8VK6Nc8va7uRS7F9H4s68T6PdJ2znCcHPjHMfb2d6r3K+7opR3rWCY88lccxJS3LN+gCPwuj6VKO9UEP8R4mRQeOiTjmpCMXWkq35vllyCO53IrFNh0n/Ul8mkr5dK6xukxZ0EhnTl4vea/yvm7KkT7of/bDoP857jg2VB4fU6QZ06ovPyLzv54UKTfxTzb7kfKSzPyvFScnmkPX7w5uGBsPPv7MM1S8bfPtfwEgz25+9+/8d2ZvuxaMTe1ut4fajcC0q7LZw5KsC7AgiwMtymSQqiwB+Xi7UZWpnhgo+o99nwygmG1Zmh6VbUY6cv5RF3PSI6xcjbgU1d2RLSSNi3iW5tCJmPAogzwuA+d0WJL7cMKxHtn7ykFirANQT8xMyUn8IjzILCNn0jRNz+PDD+K0rMM7lqbrMnUij3QwpJYltNhfLRdhiclthwUkzYzxpEd6bEadyPkX4eKM9AibdKRDZMYhwrJ9gkzEhEcZ5HEZ6iDHPnZlUB3d5RYOVspf6tEyxAgyEVJyVglAkijH3FGTT9KTfND/iIUk9l9mDCOMwAb9z7FjoxZ9RPHxjn951/9EY/b8V7AgnARYJoQXFiS8iyFm/o8N1+s7S82dk6XgsQe/Zo5//vNa4bYsb+tHAOyxV771bTP82kkz8b63yWMBmexZb8lt/0JRlgdG+yuYACgXAQVZDnKmNDJ+o0wCmbKyyTHmVGEwRX9gxWOLBZ2nAALOq9MGZZ2lfDz5yCmLMuT5xzpyJKXbflmgrvzB9wzoFhbxLNsSnLzFeLriKnEgMNE38pQ9C9F8lsEQvBXBB+nUAXZEt+oUnW2AilTK0BHHgzwKKH2WlMUHRv6sfV+O8shTgA512qAsdXaTB46yKEOef6wjR1K6B/2v4qHj58UJ1VR8yY9inOoexlfnKUCki3zqRp0+aJ7mo4zk6yPNMuUD8vwDTetT5au5/+Xx74Lc+v+UrAQr7/WZJQkqZv/PSkxkAmC4VC+2Gov7JlvnHn8qNDfdZL7wH/4DIrmt01VxAXB5etr8zd/6LXP/rbea58+dLzRmq6YQGNnqWbZDDmWBoIKRzYKKFVkRSrYPLi7JhMBb5V1Q2UFQ+l4dPHokkLziuARDE3mAQ5g8KkKdfxHOioKG5ONJs8yIzzJzyubVQfds2S8F4qPcqqEuwbNo2awIPeUvmJFuFmPdlCEjglo+ePwDH4l15Eqn5UVs7VRshwDkvhx1ZtEpBwwT8ayrnDCoYtmyUdFEbYs86kGdfxHOioKG5ONJs8yIzzJzyubVQfdsZcXOqqEuwbNo1bIi9JS/SjeLsW7KkCF5LAse/8BHYh05gF4CWTsV29E4X446s+iUs4qjCvHkqZww2wZFtz5porYFIb9OGxHdilK5j4cd8vwy6kian1UHzbOVFTurhroEzyLE44rQU/6CF+lmMdatFUSYWBY8/kEQiXXkSqflRezYD9SB81Nart2qzj8gs/4fkke9css/tM/9JZ/Foj+yZVxtaSRoyp2AQKb8G3PunK9tW9a3/yOAqNvu/6mfMv/4v/8fzPJoOZgbko2dg1ZN7gDgvU8MBrkdFMh7gqaGFaFaywtflduQTSuaHkSpQQDWioGn8PEdPEopXjx4QZM/suw4RkUPaCmTbwuo8I+6mUf02DYFJbc05JF4bIuYiA5VlkQgCDp5dOp1QgnQxoa6/VxgsX2IeDrjOuUitSkYK3k5ZGDEGpKcONB1At3DrIifxkdlK0Y58kGMUqwjJrAgOeUinyhmyVZxGkt+3IZITqFcMaLHtikoOfuJorEtYkQDizYn0Dfi0ak3Fo7wg/73AsfggjzofxcCxsQbU6lxrsKYgrGSlzPOEmt5vPuUnPy/IRO+8X2PtWDk1n+4ELTl3f92UC8ND7cKB64JzIMPhua665TF7V28Ku4AoAs/8fu/bx6UnQIPv+lNZm5x1kwsNgutVlvGmSwOLJs+y6CQNwMKZSGUgkb1sqwNMFUsVXJHAsYcEo9jV8v+tF+EXYBd2LFi4mCf5ZipClk80Cin+WwLxcHTWNApRwxzYllnnofXfJS1H6hTjj75fGD85Pvq81GnXp+XRbc0KvUFovqq/IOuLg3pwo69IC7L7xiUYw6ylKMeyLAtKCOBp7GgUQ5lnYjVNJTz8MTRpvZDy+XxKa9z31fNYznPnyy6pVEpFXj5qvzLC5LS6cdBsVJF4rL81kDifBrlNJ9tIRY8/BELui6jzkQs68zz8JqPsvYDdcohR/L5jpr+9H1Nc+WnXbt5sj5z9i/a9WX8rMcOf3LL32Dv+DlTKi6WJ8Zqpanx1p37d4X3/Mqvmpc+9jFfxbat9xLfbdN4TC6SW/tm8ic+VBifrRWHLi8PLdUaY0G7tVPou2XQ7REA/iblMcDB0T2HfqpYGb4Vo5IDUweDg5Q0BjMP6/M1TuvycdSflSdyThtls7CdaPSFuY/No/s41IFlyvOHmNXwKQPdWXJZPjqZhOPLkeNwzmsfAypxDuE+tQwolMvD+nyN07p8nLbplxM5p42yPq5bnb4w9/F5dB+HOrBMef4Qsxo+ZaA7Sy7LRyeTcHw5chzOee1jQCXOIdynlgGFcnlYn69xWpeP0zb9ciLntFHWx3Wr0xfmPj6P7uNQB5Ypzx9iVsOnDHRnyWX5KHO7ZuWX/5825i8/LZ5h4p+882/wzv9leRtsVjaHW6qNhvVdB/e3Tv7lp7QJNmFb51fNIwA7aOxPcdnp4c/+PDx76sWgOjHWLIelerFUWJSen8ckEdwWkgGyHNSWz8ubAZ8LWq14BwiMDrljEP1z4wIDkX+O4j4dNqFkDVjSgHVluUCRMupIuuwojufrdlhqSOQpg5w6Xdm1gfzEvqMQyzxNzapRUzp3HqVprJGnbegy+MT4MmiNxpKfRacO5pDTf6BrXcRBp6azzt4nD3j+AcNEG6xrvT4NWMcf9L+OjR+zpD7of46/JF4cQSvHLTAazzFM2WT8OQqxzNPUrBo1pfOkv9J01MjTNnQZfGIondR763/5wVeTd/0/LxP/nhcd2A5e3vgKZRt4+8h3MQiENrKjseOGA+1/+aY3hn/vF3+epq6a/Kp5BKB79Da5E7D0xS+bYN+kKc7JuV/eBTHtAJcHskKwQUxkueBCOWjW5HlRYaE0/P+39+XBlh1nfX3OPXd728yb0SzSaDRajCRsRTIIYXaDK6JSJEUVKVxOlakCO4CdECouqFSF/JEKSUhcpAIBO4YqEvgjIUlRhoCNl5hYUoGFHAyyhKXRYqPRMvv29ne3s+T3+/p89/Y77963jGZKI83XM+9297d196/P6e7Tp7tP+04sDmz5i3J0GapNfGVQgnpZqhx9paks/ap8lVfVozztqN7G29lre97oFvI2NqYWxkZpUpJupMvYRnsqQ47nhRSfN89RKz59n+cQAy2LGCp/QppP1+M2LhzmU/k0o2mMp1HC54ghupEcc+x5oYTnex7poz+GNjq1NcqDt+/tKSIjnar8iDNej/IeY017ks0R3adNy6PUwtgozfE2vZbaUxmvRV5I8Xnz1kMNzbPioumH8SpNLasu+WHY6t8jwt/Qbawvf736uhghSnmNjXS1JrXmPGejPZUZ8UKKrx/yeJ2qzKjewvqm3TDutUY0zV9Y52F4p/UPnUHaWfnT7uLZx3HYG6b9+WAnC/8WMCuwhI/9rDVacffwHbcNemsX8gMf+7j71fe+r8z9jePdUDMAWq3/6tln3df/6I/cj85MFx23lg2ypB/XknWcE4hzATATgNkArhTFRd4drFx8drB6+XNFwcUj3oUXPyn+gtZLnxQv4S9cxr1TPdK9jnI2+iGPOhr3/igdtUdtlVFLlCLf31peR28u+v4fpckb2SSFTu35NMbzKcN/mg+v4+35sLezMbXNtsL0vUWV8bY0P2pTMhjkkfRReUbSpPnYqDxCKKmj5krTU8yo52lqwacd0kJLo3x66kjLh0Kqz0u1LCNrG/Pqc+LTDfNA+dB21R41yLf69zVZxYdUq39eRdVrl7TRNeivMX/9eY7/JZ76T69Dj7G358Pezhtw//Oc/y93F04/hgUA5X5/Pvnj3X9crNRq8XpSa/biQ/PZpdpqcer/fNH9h2dxKOAN6G7IGYDf/8Qn3JkXXnD3HbnVXRisuXMredGIcly5/F4QrwIcGigzARGOhna1rLt+MUoaBdYD3IFWY1vMeEPQjPq0OM6RrzfPOD5pyld/ktwk+pXqTbI3ic509C+U0fQF1lKGfKWrbBgPwypbpSld7aqdq+Vreurvxi51rP49Yoqf1pPG1Vdcw3gYJp/xKk3papfxq+k0PfV3Y5s6Vv8eMcVP60nj6iuuYTwMk894laZ0tcs4HeQKWfF/6cznsa37MiqC+/2x5a/Afv8I+/6L5aarr6dxvX/nu745mz3+XPHAFx9x3/jIR7yBG+x3HK43GAT4IMC3fmu0N57DTtBBC1+FmsGBQHvwUmAfNgjsw5hgHpfVHL4aONfad/N7kqnZdyO+oy8HEtzqBXo1wJ1kdxL9aqR5pTauJE9XorNd/sbZrNIYp7tadVa1762//t9JdifRX3+KV27hSvJ0JTrb5XCczSqNcTqrf4/D1fitYrwTm1eiU9otsIPrmd7lM59Oe51zmPLnlr9F+JfwaHc5z7MFHPK26tpR58itRwYn5pv4BuCaW/vUp3eSrbekzA35CmBDTU5Puf6TTxbrSSdvNNp9TF2tYxZgxcnnIYtlLBpZwbByDecGrHQXzjyWdlb/DBeUPyNgg6HNEW1IeEFr46L+ZumdU9RuVWMSvSp3reLjyrabPKn+bnRYFtWrhsNyjrNZpTFepamNMA2lbeerLeqqvvrb6W7FV7tVmUn0qty1io8r227ypPq70WFZVK8aDss5zmaVxniVpjbCNJS2na+2qKv66m+nuxVf7VZlJtGrctcqPq5su8mT6u9Gh2Up9dD5d5/p+s7/PMjraKfZfi/xD/Hl2MU49wXfgjl2JD3y4H3Fyn/7X27t4R+kiRvWbTud/ZZHZuD78vbcrGsdPIiuvY/zgfDWCkNGtAZ4JYCzoeScgKiGxST4XNDaaXxCuIa/WyG0I/x4gW51UeuFP8SawiBuog8FJgRKvQncNw151+XeScneQGxYHqv/nVSSl7H6Bw4AYdc4vIHX+M5rd3vJXZcbt1fe67Dz/+Osv34BKWDFP9ZxRXj659S/y+DHa/Wk1W3ume4fvHU+//Nf+3jxiz/yI879yq9sn6G3sMSOOrC3cPl90XA4UG9hya0c3OOSJHb1Lvr6NMUAMsdyANyIGAHg3pJ1AXhFUOBAidNxXQYBR3Y6CNgVhldwB4j97fTCBoKLHVCwsY5ydBPYnrnL3x3Y3DK5at4ntZChXJDFSUUNRK6f4JZAbJHN7fRCbKz+twDyDWZtV4+Tsred3luz/svO/zQ6/w6e/KMOGu4VLPBEx+//8Dy3mjRb64OZRv9y50x+9vylwt19t3M3wMd+Jl0qSrcBAJE4d879wk//lPul+x9wTzfj4uTZnptKUzz7cxCASwovSnBv8faK8QvMMAjorp/GuoC0ljSOgIU1ARQs78CtGldFnn54Q4b0MDzOVlWPMuK0BQjyEtpSNmma15CvYcqFskqf5EvyQZrj8ryVTZXfVIzAJtPWPGneNa75KvPBw54mOk2DAqGY5mGcovKoG+pQdmgPAU1X5cfZCmnj7IV8hsfZqupRRpxmLshLydnAZkTzGvI1TDNqSmlb+ZJ8kOa4PG9lU+U3FSOwyfQ1T5p3jWveynxY/VdwU3xCvBRD5YX+VnUVymm4xH14TWl9Kp/+VjZVXuyUstRROsN0mv9h3nFyS7/7Nbya/Qw6fzz544t+Rb6Mjn8J9yW2+2EAwHittl6fnu4fuGU6O//SK7n7+Z93DifDmnPbr2i/UUD60hNPuMcPHXKdpO763SXXWRkUMR73Y1xFmAXAywCMAtj9++EArrEcMwFrZ3Ca1Eqt0Trq4ri5AavhRVpS9SZhdMgLblRe7OqG/FAW4eENUcqqnN4YQ33KMsLslsShLnlBWiKmQqVs6I3T03SVx/mRMC3haxoTbKuupkUdioq46jIOgshSUJgMwFVkSBJ9lSnzJKIVWZGjCdDVvuiDMTat0nYow7A6KS8i6pMehhmXLJT5GPLK9IVf8hge8ithza+WXeW0yNSlY1zMIaC8oS55QVoir0KMVNw4PU1XeVb/HjTFhbEwzLhAXuI+5CGu4bBOlFa1o3hb/RPQQdZd+wtM+38eg4BLABLv/HGQm1/xfxlfeVvEC9vlusP27qlWbyHuZO3nn8tvPnbMXfyN3yCy5oCAzQAEl8Gvf/jD7uceftjdcuaV4k8HHZcWSdFIBzk+FIxzI9DnU5Y/EV8HYEcptglgJoDvnBaxRfAwjpWc1nvT39jlDV96VBfHG1xveLa9VX4pNvRUXttp+jvRo4FQd6t0VG6YaKkbxjVcTVvzRX4YVnkQhRyWWWUn5Yn5GedInqizBY+2VFd90sa57fhVHcpXdST/ZUar+Q2xrupVbTOu8pSlG5ee52z+DXWr+QilVa5KC+MaruZZ80V+GFZ5EIVs9e8RCbGuYjnELAiovGJLfyd6NBHqvtnrX8qPnyLv4oNtf4rO/xFs9eO5/jzljwf9cMU/j/pdimOuAYjXcYhbL2um2R0Nl794/Hl38bXXAmAtaAOA4Br4g898xj336qtuLi3cX5z4umvfss9NTTdxBFAPz/vo7WVdoO9+cNGhVeO0gIsxCLiEr0ydjRutA9hmsjcwuTnIi3irG3Gzxu4otD/OTaKPkx1HY0NSdSTx71qWp5rmtYhXi1aN7zTNnehda7wm5WESfcdlG2OAJP5Z/XsUx0C0Cd5rjdekPEyib8rgBMJ1cv9j0n9psLLweZzv///Q5mKPv8M7fznCfQkztQuYrsW0f7FcrzfXXaPZ607n6erxp/Jzf3PizX6VTqiY10e2AUAFvxMnTrjHnzvu3v6jP+qSixfc4p45ly93iloRYxspJgP4JkBeAMh4gNMCMhDANNQKjg5+pVZvTke1+k0wy8HByL3eG3BkyULXKwKs40n1PIl+vZbF8rV7BKz+d4/ZLjSKbHCyv3zxj/s4nRWd/jpUO+jsMe2PL/vhnT9Gootom5drUbQWtVvd9Oh8+u6//X3585/7gnX+E3C2AcAEYJrNpssvXHRLN93kBvMzRW2RL/2zolbjXkDMZfIf/2MaAINj3voxLtAuZgNejmu1DCcHHsIrgcYE80Y2BAwBQ8AQ2BkCGR6wnu0tnPtMur70MlR6mPJfQ6OLaf8cnX+0gDYYnT9mAqLaWjK7r7tvbzJI98/mt/3ax4rnf+u3nPv0jXvYz1YQ23PJVuiA93vo69//w38Pb5Nc3DyznDTStJHngzZm/2cwBtiLeYC96P73Ygwwh3dO01BpYWFguzGz75vrs/Pfj9mAW7ZJwtiGgCFgCBgCYxDAqv61rLPyRG/x/Jfxvh/v9aMe3vPjsDY++ctqf3T80QxNlcEAACwJSURBVALa4BWXpvieS9LtubXBLfiga43ztvXEPfvcjXnO/xg4N5FsALAJkgmEH/o70R2dbjy42Kv1B4NG4eI2dgrO4pXAHmjswYWJd//RLPwZ/LUxOVBP2jM3N+YOfB92CdwH2o6OD56QupEnIiCzMBO5xnirI2D1/xat4SJPByfxOd/H8DG2F/Duv4dy9tDR41TWzJ/whwFAlDue8b/SSNz6TGuqt5LXBudO/mXuDt9auGePv0WhuXrFslcAO8Xy699wb7vjdnfgvntc1u0WaYp3ARl2COCFAKb6sVEQb6MwnCrXykgII9Z1fJXqZcwIrOLkwJswazC10+SuTI6NobrtxnbacKqveuN8lan642SvNk3TnGR3u3JO0tstfbt87NbetZBnHtVth4uWR33VG+erTNUfJ3u1aZrmJLvblXOS3m7p2+Vjt/auhTzzqG47XLQ86qveOF9lqv442atAK4oeDlv7q97C2c/LlD/ieNrvwDI/64svtbpFzL5iwR+2+mXRSlJvrSX7Z3v1Q620sXAyX3j5ZOEucHOWue0QsAHAdgiV/IexPXC203VPPv1UcbndKto37S3iXhffDcr8AAAfocKFyR2DuEuwNtDff1wumGG/6hmMZl/DJ4cb+OMHhkrceUPRUVjDQih/wptY+So7jkc10pVHnTBMvjqlV+OqE6YXyig9pGlYebStdpRHX/kMh+mr7CQ+5elUZ5y88sfZqNJUnzrVMGl0mpaP+V8tl/JDu0pTeeWpnWqcciFNw6pPX3UZVr7mYRxPdZRHnTBMvjqlV+OqE6YXyig9pGlYebStdpRHX/kMh+mr7CQ+5elUZ5y88sfZqNJUnzrVMGl0mpaP+V8tl/JDu0pTeeWpnWqcciFNw6pPX3UZVr7mYRxPdZRHnTBMvjqlV+OqE6YXyig9pGlYebStdpRHX/kMh+mrLJ7z8dTfX134E0z5P5GnPRzh6/qc8seRrPwcOw74yXnAzwJeuS4lMTr/Rn0dZ7f01g5MZ73bj+Vnv/ho4R56yLmTJ5mIuW0QsAHANgAp+6WXXnLfwB7S7oc/5NIXny/edsdd7vx6VNT6/RxP/TkuSB4anOEi59cDMDjlOcKgcNsArnXsEFhJu2snMF21HCf1PdguOEO22t/aHydGWnhDbW1hM/dK9Mflg5avxNbmHI0ok+xNoqvmpPwpn/5OZEL5SeGqnTBvVd44GzuRUb1xsmF6Krcb/0r0x+WDaV6Jra3yOsneJLrampQ/5dPfiUwoPylctRPmrcobZ2MnMqo3TjZMT+V241+J/rh8MM0rsbUxr2guV/Gg9BVs7/tCurZ0wmGeFRJdtHDo/Hm0L1f6F3jyx9N/hIGAK1ZrcdzJp5v9A3ceSvP77y0W/uOvFr/48Y8795u/udG4xSYiMKlGJyoYQ7p4d+Lkq+6Hf/JD0cuL3Vp9rUiiQb9ZuEEb3f0sMJrNCy4KjPZgYMB1AZz6x5/sCkhwOMVNjbmbHqo1p+7H64E5w/SNQOD1N1pvRK4tzauFgNX/1ULyddkpin426H0D7/q/jI7/FQwE+K5/gGebLsYV0vmDxmn/5Tji9D9P+4vW+xgc1Pc0B5352azz9Fdzd/accx/9qHO/8AuvKzs3mrINAK6gxmWWH3oP4SNCF9uN6MxaHNcHc0mrWMfiwKyN5/1pjFTxhB/NYTZgDpMAGBRgcaDD4kDsEoBfx0xAPZmaO1qfmX8XFgl+EwYJ5N0YDuBclQexq2Wnivq1sltN50aNXy18r5adaj1cK7vVdG7kOBpKrKE6na4vfxkH+7yQ4zN+gCPFHwcAPNlvHZ0TV/ovY7HVMmgrOI11ja8Dmo2Z3tpMPZ1dOZVduLyQ98+cBdvclSCw8bCaK7FwA+rIxn/M+/99fE7yf/zMzxSuEeer99+cZnvne/hA0BoWBWC7Ck4OcO4SLuRLGL1exoWLIyplAQveZWFBS1F0B5jq6lx47Q+7i+d+L+t3j4PGi3+zY4PEv9BVaRpXX2WrcaWHPmV260KdMLwTO+OGnVvlc5L9rexUdbaLh/neym4op+Gq7e3oyld/kn7Ir8owHtI0rv5WuspTP7SjtO38UCcMb6dH/tXCdys71TxtFw/zvZXdUE7DVdvb0ZWv/iT9kF+VYTykaVz9rXSVp35oR2nb+aFOGN5eLytX938Obd//xJT/UxgIYP9+xOl+nOzHNpJH+uY8XRVtJ/yswNn+8VIraa3Wk+lucdstg5sf/vb01IVLef/Q4e1SNP4WCIy71LcQN9YmBH77Y8598Ged+2c/F9313MvR2lInHiz0sfu000zTfgtnB06jwZuVVwHyeoAzAQ60qA0aXhsU3B5Yw3kBU/XpvXfVp2YfiJPmHTIjwNoJb64wruFqDVblmWHQSC53KJBSEkpfCMFP1WbAGgbFIGKa3iSdcXzVHRorA1W6xsfZoErID9NXetX+VvFJOmHaO5EJ0wjlw3AoMy5cTVNlWMYqLyw35ZTPsPJAI9nqn6BMcALQGJ7iqdgrpqFoKFOlq/wk+6G8hkN7GiZP8xCG1X5VV2Xow4YkH8oKwfMossGFchsYQaSqP0lnJOef+DurT6Vri8/j6314j4/PrbpCnvrRDnaxfBqrqopVhFfgr+B6XY2KeDXBOoC82eoltfqgcefBbHDb/vw7/9PHimdeecW9cPvtQaYsuFsEJlXbbu2YPBDAC393/3vfF51eWK11l9Zq3cUVngSIrwTGU7iocXCQvAbAmgB5PTCNmQQMAlwb9wjk5JPCtShOWvXpuduSqT3fgg8M3Yk1AjxcaGM9QUHvKwGeXBLUhdJKr8qo7Fa+6qg/SbaansY1beopjeGQHvKqdOWRrvoaDn3KqaNclRfqUk5lNEyfOuqUrz7pGlZfZUOfvNBpPqo0xkPZUC7Mh+qFsqRBJlQZ5m2cvNrbKt+qV/VVR/0qX+Nh/sKMadqUq8qobsgL5ZWvaau+2g99lVVbVV6oG8pomH6Ydpim0sfRqBc6TUdpmg+N0w/tKT2UU77y6I+xG6pct/WPrGMGtI890+ewHfrpwdric5jp5AI+LJaW6f4BO35ggi1+xRqWTWN2lOf6o+NH549yrdeKehffYenlB2bT/emF7Dvuvjd/8itfde+4/z73yU9+kuiYex0IVC+t12HKVB+4924Xnz3jLn7P90bnLi3E8Xo/nuu6OmYBGnns8I4/msozN801Aej8dSYAXxCMWrjYsTZABgIJ7hrMCCQtHCR0GOsE3oE1AvdgYDAPvnyQWBoRbZA2wa4tyHZVu6EJgUn5qMEma0IYpgUdPkZqEuOlPXWoUwppdqDr01JlZSA+TmcnaampDX6pODG/gWHKqBvmL6CRV82bysPfiB3tqi45jJXxDTZCucDYMFjyR6aGHKmAbculioHahuDG9DeWYYNgUHboTEx3kk5J1+zAhNU/MdmIfwW9ET/AbSSzVT3QLp0q+tjm343pX+X6R7+fr+WD/stpZ+UZvOd/GWeicBsfd0bxqX8AAVnlj7YOp/e5NcS5x38V+6bR+cdrtVrcidNaL203B+nhVpqcfTWPVjrFhZf+BpfgdmXbXFqjjEfAkByPy+un/vJHXfK5P4lvqk1H9dX1ulvv1TvdQROHWqOzx1O9/BUzaAem0UHwlQB3CXAggBkDDgQcZr7Y4ceNWqM9j4HAnUmzfTe+MXAUsnx9gLrTm1h9Zts3AP531Ax4ibC6QVETgc6ws6KpofPao/SGDASUF9LCMPnqKukPG6lQhrIqp7Y938eUR7mqnuoqHbIqLiRvYXyeVWdkVVVpdaPjN6AwYBriR67qh1rjaKEl5ZNGvVGcIW9J7SmvTJsq4lRvo9xI2kt5eypDGijD/HvpzTJe1+ermk6Vp/Gq7217aiX9jZUTKKqcz5Hisjl/oW1V13wyjnBoSvBVvjJUb2RLQ1UJlaRRq39Fw9cKY8Ckj4NRLmJ6/+tpZ/WFrLN6HnGu5s8glaFtGUCKR/liul8O9lnHJbgqnX+e88t+a9hNvV7Hvv643ernjWiwp9nIu0cPFM0//FSRHDzonsd2bHNXDwE7B+DqYbnB0nfhY0KzF88Xc/ff6y4NennaifEJoW5Ww9eDcVAAPjhcDNCMDHB6wACHCKa4OVLsb+XUGG8U7CKUs4R4dxUFVshiCu00bqpvYCT9N6Dw+EsODpq4gThQwMEDo7YOQWn3wgbMh/lLyfEulFeJjXZVwtsIeT680f6Ir3rel8ZTEyhbaG9xYxm8CHXY4FZ5nj40Mzag6TLFcfpU0pRHBlTL+xob8TW0NSe0S0kfV2qoS1oYp33VqNIn8ao2qBfq+jB/NQe0tNGF8srZaFclvI2Q58Mb7Y/4qud9q/+NdTPCSVF/M9V/kWKV/mVM7T+HbXyP95cufmmwtvA8Pt6DRc95HxchOn2s7Mc0P+5irvRHh49tfTjUB1cDDvTh4T5oz+JiBQMBDAiSjptu9ubmp9JLe1p58eoJd/qRR4vZvXvdf/3d3x0BZKGrgoDemVfFmBkZj8B73/MD7skD+6OLZ9dr8dJCrdYrkrhIsWUwamHhSwt30BR68yncLNPYNjgdFVEbA4A2ntBaGAxwRgALBf0aAYRRZ1ENhwlN4RyBg7XW9O1xvXUsTpLDGBBwKyG+iLlzx8aHbiudcQ2U0tT3Vsb/hjIMq6umGcqpjNJCPfJUV+kaV72d+FvparpVO0pXX/mTbFXlVP71+GFaGq7a2ykeqr+V/LgyKE39avphPJRhWF01zVBOZZQW6pGnukrXuOrtxN9KV9Ot2lG6+sqfZKsqp/Kvxw/T0nDV3k7xUP2t5H0ZVALdNHYrYYX+Qj7ovYan/VdwwNlJhJddlg1QMZzmL6f68XDDQQDe4aMd45T/OgZ/6w5P+zg7fQ1t3noSYSYAf824gX2A0aCo19OH7jmQHXv7291f9QfFk9zbb+6aIaC1es0SMMNA4NZbMe5dc3e97fZodaUTLcX1eH56Pz5fMUgGRdboD9JmzRWY/scgIC4PDSrcFJ7y5bUAbsAWnvQxEOAgQD4qxJkbbOEseMxgHCX1NtYJ7MOA4AgWDt6C7w7cjMWD+EohZgggpzc56yKscH9jk7rxuTCU8dzRr9qijOqHtJHkKLQdXyVVjvFqHkKeyocy5GtcZTWu8lVf5UinbBhXGn26kKd2SdOwCAVySlc9jVMu1FO+6qtcSCdN42GYOirPsMowTFeVVZow8UN51Q91laZyoa9yalt9ykzSC3VCW9Wwyo2zFfJUL0yPfI2rrMZVvuqrHOmUDeNKo08X8tQuaRoWoUBO6aqnccqFespXfZUL6aRpPAxTR+UZVhmG6aqyShMmfiiv+qGu0ko5dvg4mAeddpaeQ0d/Mut1TuGs/vOYjcSHefIU7RbU5eRTWdxHedjog8jp/g46/Q5W9XcwabmOOKb5MRAoUswIxNj2XOslzXp/uj2dnTs8k3VeeKr459/znuLf//Z/0Wyafw0RqNT1NUzJTHsE/u2/dO5T/zc6cOhwtHJ2pTYXZ7Wi202yTr+Bp38+7XMxIJ/kpzCOxmeHeYKgnw3gjAFG0pBzDUynYeo/4h8HA/jjSwOE4lqDswNxozVfazQPYkvhIcQP4uhhfIOArwygDyVWPMV36nYiP+5iCtOo8pWntpVPuobD/Cl9nF5Io041HtoJw2pTaaqn8Wo+QnkNV3Woq3oqQ1oop/yQPo5Gvjrl78YOdcM8aFxt7tRn2mG64/Q0fyEv1Knylae2lV/Nr9pT+ji9kEb5alxtVH21qXTV07jmSeOhvIarOpRVPZUhLZRTfkgfRyNfnfJ3Y4e6YR40rjY3+ezs+S4/z5exP/9CkQ4u4hjzs1mviw6/t1ZkWQ8dPI8/p1k86cvx5zwCPUUT5N/xQx9cdvzY288zT3CiX+7W4xpeA0RxB0cA9er1qD+oFf1+eyrr72ll9byXr37opwv3vvfDFExLC7Upd0a4ygjoNXWVzZq5bRH4iR938emT0S3790czS7144ZWlJM17SYZPDWOZADr4GAMB/OUFXgXIAICDAnktgBuK7/4buEkauOnq4HMdgAwEcOvwcCecmgkqahc3XOKwowCDgGnMDszX6s39OHNgH3YZzPMYYgwMsM1QZhVgJ6rxguCdXXUhXcPqUzYMh7qk06nNatxzR78hf5JNSqscw2o7pI+jhbKT9CmzE7dV3qiv9jUfGidPaQzT7daW19qYxjgb49IcR1N7W+UltK9h9bfTI1/LrOlrnLzQhfzQfijDsMoxHNpS+jhaKKtyIY3hnbqt8kYbal/zoXHylMYw3W5tea2NaVRthOlRnmkGNKxH4v77IoXfxXT+MhbrLfAPnfzFvN+/DH+FC/jA4zt8fOtEbGDmHv9krZLfyoe+Wp72wcV0P0/x86v70f50sLaJJ/phABDBd70Yjzo1h6+puwSGe2lU72fvvOfO/KUTL7vzTz1dhQUpmrvWCATXxLVOyuyPQ+AH3/MD7sjdfyv6748+Hk3vm48jfNsq7mbo0Is61gbW8VyPlTDy5M+ZgRbjuLlauFswvY81BBgEoBL5VI/jhTEQKPxgAHLozPklIr4CKDAgkHk6DqzxDx09ZgrwV+frA3hz8GfxpcJZjBfwF2OrYo2DDe5WwOsHzjRwgCH2alyAiPR47QyvHw3wLmaYPl0Y9pSd/47TDWkM02laPrb5typXjW/W8JSqHOOa1qRwaCuUUXpIC8Pj+CGNYcVWwyF/Ek9lJvnMA52Wi+FJNJUZx6eeurBcYVj5O/XH6YY0huk0Xz62+bcqV41v1vCUqhzjmtakcGgrlFF6SAvDVX7IY5iOaYdh0gI5sP0XSeFj6zwWE+O4XTysYxo+RwecY599hj/4Wbpa4PQ9nMi3jCf8VSzi67ss7ePb5inaBybDP7qgw5eV/IhjwXLkOHDgwABH8vNpP8I7fqwLKLf2IU/c199FkwMaOn4X9WJ8LaVWrw/w5ZRsCV/7BQnn958p3JkzkpD9vDEI6PX0xqRuqY4QaGP2/x+8L4ouXo6mTq3He+q1uLeynLg0rddwBFaa4ok/L5q44/FXYAAQcQDQ5IAANyVnA/j6gNsHdZ1AAtkEFYzlBa4G+Rg3Lu5FdOIF1w7ACoig0Y2uAw4OOGsQx95HOK7JYKGFQUELrxiaGCAgDzEGHDHTle8aMA47SAO+pCuDhBrCMnAoBxGSGJLj4IQzFhtbMOZPXmv49oeZ0hDbJYaVxnGMd56qv94PeZTyWpv1SVE30lE55VDfP/iMKBIaqQwZVV0fHyNYGvA54EOVltWbYvl8iZm6cifkY5i6l1NrmuqQLQG15dMb2da4l66Ww2OoPJ8CY5vLN7KvfPpaHp+njTLkq9O8Mz6SUu0RzeebUj4H+rs5PyNLnqcaI+uUGJVvdJ15uuddnfqnLXTOhRyCg1vH50XSQe+JGJ7KpUD8wefFcWoIHqNB4tQ6syA+O1906Hgv75/i4XPKnrQe3slzgV4P7+sx1c7pesrlHAik8DBNL0/u5aUF0/65AAEmgNR8p4+pfbzT55M+BhH0waMuO336PdBkcR/k8NQfydY+CeMj6ZBBp1/wM6l9DCkGtThKk4NJdnmQ5sV9d+fZ6krhPvmHEDP3RiPAu8Dc9YLAd3wHFgwedQ+uL0VLC4PotXQQN2tJjLOw4iQtkkFvUHc5dg9E6OS5DkA6YNfEjc3BADpjhP0XB4cDATQyHBAkuIE5vc8n+djPDkhn62cHpCmSxYJ+PMBW2Le5RAaDhhFAaDl8k+F3HpIBSQ4uuC2RkjDBsATlx+9KkM69FKdNsKRtgy9N3JBFfUSQYRpjiK0SZdQxSEbopEUrVZUucioc+jSu1hFiyycJUbEMbLCPiKpThGElDPNV6gkPbNGnXmlbVITIkHeqy/LRXukpe5MvfLUR2i0lpfJA9627FxQa+UKHH+iXaps8FQkZUPdXiRCRgmTaS6j8UIaFRkL89YXycU8RafxIjycCpIR5ViBAF9Zbqv6loAIQ0Rk5AUsW0gkNUYLMjljBGcZBydHRk0dr/MEd628bFZe7iuh5J9YRFHnxpTJQBwWm97lyH77Y5cBD/mQwgs4eHT6e+KE6wPWKhX144meHDx8m0PEjHDkMOqIBbvQ+Hg4GLk4wOIjTYqqdpkkvH+AfJyE6X3sGQxiOIcxdLwiMLpHrJUeWD4/AHnwl+LajkXv397l955aivacW4m43rQ2WO3gyT5O8ViRZjmn/Iq8XcQ7f1XETYlrfNXAnYwCAVwjyeiCq4xUCBgyIywAA0/myZsAvHsTNLzMCuPk5K8COmR023hiQLg0wzEg3wmvF//nmRFocBpF22fow69JcMyDOs3xvwdbGmwIL4dJRHRHPExkmw5TgVIxRtl5klCxJWAW9bWoMuaUy4l6ZTLEhpSFRUvX5oFWxzqwwDE8syY/XFArozIfkQnlUoWNcMowA/o/yXgowYdEnmzQvR9WRLGOlA1vE+FPqCkdsl/pCYH5Gjhw6Yq1SHleYY5IbqwiSKJEqlXrUpzIHaQLJMAUvKL+wLynAXqDuaVSX/IuMhCgj9S/CIw2fe/wyv8hIiK3mSwyUpWFYXFlXDL/J6t/X5rAgAnWJG4gClJRwBJJEQ9YIcghRTmRFm2AwXj7d+74dYPkbCAMHeadPNXT2OIkEPjTwlF9kyBjOJOEUPzt9bOPDND80ub2Psw+c7sfefmztAx0jfnT6EQYFGV4L1LGhCVMMNZe25m/OenO1PH/bzfnDe2bcn//ax4rTa3grYO66Q4BPhOauRwSWcFbGB/5hgal4966508WLLz5VDO55MG+dXE37tWyQXbgY99O81m7UEjScCZ4VajkGArhxGa/jZmfdIi4dfx03MsI5XgnI1D2PGwa/4OuBBDqYqueAQF4NcGqegwDMDvBJHrc+6JCBDyn+l25BmhdGYELaLrbfvq8gxTs2QSVV1L0sDYgZyos2haQRp3lpvzxZ7YwskiKJQpNNHDgQlQQRh5MfLyKyEBISs4LnVp9hCY+EqAUhSbssEWKlOW+QtiADrphAmHQmTwqy7NPxnZ6EaYiuFBTjQihT8FMpmj0alzSFK/iITa/BBJCY5zEb3oYnMszelmVgKvhHgk9YQqLqizg0Qxk4n/XSoFiAHgwwBZ+IVBbfF1EVdDD9f9LoxLCE5KcUEAY0vAz0EKSkxAUmSHiMwWBykq4kIIKSvJotrfio5AuWRsX1Rv2vyJRZlxR8Im94/ZdFERQFBeaRIPvSDlGUW8HnH7IyAoMYwFHQGKMm9Yiq2IEcEeFlgLi8u5eOHz++EuTVQ4YbGx0+DhrjFL+8DsCTPnpw6OBJH2EcTAb5ATr3FAJ8zYBFfjEGAxEe40GX2YAEMpjcj13KeOIaWLQUZyuNVrFUrOb7WpewTHm2OPvkV9wnZ3HiuXX+rK7r0sm1c13mzDI1FoG77r3HZd/9ndHS4nLU7OIDA6tdrBVYqcUp5t6KTm0wGNTyLKph3QAGBdhimBUyQEBDkeDlIzr9SNYFoGlJ8JYenT86ftL5rh5htCMcAOC1HbgcGHAQwEfGgu/08Y0C6bml1eJsAdtttkb00HBJM67XVOmLCBXQDoPk/yNJKvq2S7QQFUsUEgIlvK6wNv2ATRuSCn8YgVOVMloKDSW9EH9B0oTFRskpeyExjEz7jIa5LoV9bwwzgR0xAQJxkAL6IsOKVxJ7LB90pOjMFp10UUEuEPTtOQNeZNMv6T6RIUvKQ5v8Uz2EfTmFOBQRJeVJnmmOOfTyG2yIMH68vGRfSeN9sbIpH8yTZosByb4nUaEkvDXr35cb1xMK7q8DlrfEWuZkECth88AJImWQLF5XhIgWKCiQkSL/PI2r+0lnpy/T+p4nW/UYx/t8ec3AtQUMc3o/gySn+NnJ44RSmQHI8NyB88lAw/t73PicDcAMQZ4leBkZJdPgY8FBM8mzVpHtTZLiwcP7ivWs5z7/xUcLd2mhzLt51zsC/rK83nNp+duEwAc++EE3i+75qb9+Opo6cIt74rVTUe3Iwah9YTXur6/EvbyBFXpYrYfFfIN+WsvyvJZjFR/ahxg3N9YE4DRB6ex9x45XiuzssTuAHT7+MAjAwiLZSYCuGyr4718LyKwAmhmuJaAgWy82P7yW2G2hmSKFDnHmXGgUAV3ESCcHDJKEyLjISEw6maEBYcG2NG40LapUFBUJSEqgiz1QmBrDoOM/M0QxPvYwIDbgQcpnpaQxBeZCfiHIAoHg7YovloUERklh1OdN9XyU7I0OFEGLRSFX8oUEJRNMllQy1BxJIAyRo5rwJZMULHMrgkNZ6lPMG5NA+cPygCMw+OqhIJOjJeqU+JZxUESMQmJuOAfg5anhWRIohRhWjqhRnUnDOuPQHdaUAAKK+kzPjzlBoTAdg2/F+uftVxYS+CAsqPlSo7yM4YccjqDhCXDkUw80oTIunb7AhDfuIMhUP57Q0XFzmh9rBvy7AD7ty9Q/kspwj/iFfnkmrwBwR2dJLeZx5Fma99EAxJmrt7Nkup7j3PK8nmKm/8Dh/PDMTPGOI3uLL3/j68XLTz7l3OmzyIK5NxsCcrW92TJt+Z2AwPt/zB194bir97Er59Cx6PTy5Wg6rsU1rBFMV9bRgQ/iQS+LpxvtGC8D4qyP13joyDkWQJOBrh+DAAwQ2Hfw3QPaC/xghQE6fpiBLBpvyJWtOFse9BVoRjgYwA/1oMkFgT6DoHs26HDkc/SBgQUbc1LwBxXIqwoGIpD1dOpQ0csiJFbgoVXDzAaVpI8v+wUIqoy37ccx1KclZk7+lzEWxhM915unDtpPr4Qwkhqm78V9a0wdZAAGYJeZRyJSfElJLdKHQ4pSRgSZd67fYiagRRvMhmbR08kgD+lzHRjT8QTviUEYkIKQBwtSGWBrKSmpuPj8sUzIL2U5bBM+VZG6gE86+D4n4DJV1fExCNAo0ihlxYj/GWLBKBwkpDa8CjWEiAuJZUJc04GAYFMWUda2ibQn8NfLIlTKvOnrX2bffXGkjj2qvjoFd8JHPkqOawUyBBygoT6EyNqWmAwAwGLNoho5tc8xLgGUqxgfIeV3RfCX8ULCMz1+OPUH1DOMAnCDO8bBxwx/UsPiwjruLCzgb0wXPXyPJx6kRb/bz/cdO+bOY7/R9BNPuG95/3uL3p885h7/2nHWqrk3MQLlLfUmLoFlfRMC/+YjH3Z333qL+0efe9Qdak27I/e+LXrlhRei9QH25AxSV2/gcwPYYZBeWo1wmmdUa2J94Ar6Ouz8w14hdPpYB4Tdf2w5MAPIzpr9BAcKeF7g3CGaI24SlHYKAwk0LXGMtoMbDeSQMN/6o9GReYaYvSiMSbeHBt8/86CVyuR8EZr1LR4SkQ4JzZe0YWym2BBSHROWPkFwEPBybBfZ9HHRAoYraB+ZFvdZ8cKWjq20JZ0MwnTSodAuwqQLjSlKeohDnzLsaED2tsFj/jn6EXmkJ2Gkif+QxY/Y5w/Lo78I0A3TIRSwKURRIAcBr8MmOgGT3T6d4ACfaaE1Z3MutpE1KkhJxTRCTINaUj7BvMwSaJQRXBCQrBJqqoPFtzsYAYqQ1JGY8ra8DoXwByuQAhIUZT4oQ/yJgMeeQXJoWDQEQyFyRMArChqiJC+lxQIy5GsMDGSJuRILUh9MC3l/K9U/sSIKZamBAYrPkgMgQFVj/QvAQAEFhzDeywkyBJWy8KCDcTTs4OPh6N3xHI/hKu4l3AYwg/uByrLxDzcnp/1wu6VYLRwXjaKBt4TgtuI85U5BvK/vZ4NibqbI97Xn3clzrxS3HdpfnLq85B6661jx+d/730zX3FsQAV5J5m4ABH7qfe9z8x/4gPvsv/5F98w773Ozlxaj99y0z33h05+J+vfc426rtaOFU6fx1eJ+dOjoETeDHmhtuRd1eji9s55j3S868KKFtb4ZXgpiQTB7bcwOJnjGL7AECOeIYPyAXYpYG5TXalyJiG3ImD1Ae4V3CS7BC4Y+njn47IEGKOJqo5S/bPDAw3+8dGS3gdaOx4uj28VRCNLYoXXDiiS+hIgxd4m00cLRHgYe/oka9rkvEvroPaWpRJ6QLq5uHnmQQgtPOZJlPmEOkKmkVosa6Jw4SBj08Z0SPphiU4XkA10TVDkv4tIshh3pkWAF+ecmCkimWB8Vy5EHTATZRl6SeoJl01gojTQSvICRFRTssFFuvH6RQQK7UKyZFhV8GRItO/OGONtrruVkD8DmGeXhUIl4ZdCRp3G8tGE6GWxiSgZ5wYvbDAs+kE8/OvDTLxxWZZwigY/FWTi6oYa6yIFhijhLiCxGWPAtIwpJSoqPMklKDawXTQDegHWUDZBzlBlvj5gvGWQBJawWQe7YZckjZJFiyVgd9TNIqYUFJejFCCOyX+C9U4RpZdfDNnSoAeUGkOTKM+CCYqMcsjCFn8gkaDdE/aMjBooobobrC74AxTW8+IdDP2SgxGsG9BxAc1cdns9lcMT6baACCmwFSlFLfLGHsT0vH9dO6tifN0D9JkVSrxWNDJuEpqdcv5EVK+fPFkcOHi7ayYw7hRv6ZqR14tUXivgnP+iWf/8P3AOdfvHv/umH3d/94D/mNWLuBkAAl5K5Gx6Bhx92P/Zz/8Q9+bMfccfRWTVuO+a+fdBzL6IZuYgGvjnAU0gLjXZjTxQtLKNzXcURRG03P4PTidv7I9dZdYPumkt77Pwy1+sNosMH9rtsgI4D3/zA04Vr4lTjFQwSsu6gaKW1qIdOaaYdu+6g79LOwM3OzLh6Kykud9ejzmAVxx3WXbvednmzVqwv9Tnz4FotPN6g68AIBB0QenEeQipfRUDXjZ2PGVrKLFpHg4gDFVdxchJ6K3xkBDMeddfvoKlMuuiE+vgECTr1RtPV0Gn1sKsJsx7ojDgCSJEuOm7skcDwI+p2l1292XD72ljgNOhHnW7PTbVarpevu26v56aTNvZUoM9CIz3bxzlNU1NuPV+UgU7bTaOz67mVPg9iwyMdBkdcQD0/PSN7rBaB1QAd4mwDHUAd+cPMzHovxZaNqWgKJzfUsFyTHWmKB7SpaRzIiGZ9FfmLUGasu0Jd4IsqKXyUK8FAKsH5UDHOhMIzn4tmGrCHk1xhIcFArYGupodRD7p1fIUFu7YwqzM7t8f1ux03kzRdn2mtZdjX1ZXZjmY8w51dbg2DC4zn8ESauFYbeUR6KQdLwKqNwc8URyAYhaUzddfB9RJDtod6GuCDb/vn9+J4Guhm3C7OHr7p1nA2TdrpuTbOrcLRcKh/ysNmt6z/Zr243LtB6h8H4mLw5mbqOBgXnw7vSf3jY3i4bqabMe8Fqf9+Ly8auCAazZbr5l0OQd0U7rf63n1uCdfLcmexmMW1XOzd75ZxD0ZrveLokQPFxb983uW4v2b3NN0czhd56bNfcI3zF4pXPvtZ98jp0+6xRx5xn/jEJ274pu9GB8AGADf6FbCb8v/6R537g08799jjzn3oJ9y/+PGfcE8/8efuM499CZ1g6m5CI/VdD/+Q+9R//nV3ENsY+0cPuXfOzLmLa93oJJ5qFh94p3Nf+jPnLl90ydysu3V2j1tGJ728uuKO7p2XAcQZxNO73ubqf/WX6GBjt/iu73Tu+eOudvGimz161C1euOjc4QPOzd/k3PFnMG3AKdIEHR3GInv3uAgrkDFn4QY4WTFBo/rNtx1xnelZ9xrsxovLbrCy6g4vXnZrePpZ7qBBPXTYuW/7NufOYBHTV7/qGjNTbuqhb3eLT2Fh0/KKq+Pp6Y6jt7gTZ8+5wcklN/XdD7rk/Fm3voxtmt11V+/0Xf2+d7j5hYsu37PHrZw6yw+eu33HbnHtV0+7k2joMw6U8DXIfcBn5vDN+P5Zx53EoGSAhnvmuRddB9hkbZ70DMenZHhTBw66FB1//9WX3eH77yvWG1PRwtkzbh5Y7cHoYOHyglvioSrYZ733yDFXTLXc0jRsACc3NePmjz+HfAAH4DJz9ze5mbUVl50+5RbWuy697wHX/rYHXfHqK67+6KNuBU/unE7Yd+ttrja/z/WPf83l3/ogZ4NcduaUcxfOu6mbDrja29/hOl/5C5di0IbpDjd7880uevFFt8zRCmw06jW3B3hdWFx1ezETk81Nu0PdPgYWNbeM+l68+17nvvwEcF10CbaH3Tw959aQv5X1VXcrOrQUA6wbpv45W4TB6cyzz/n6B27yeI8ZFM4Izd17rxvs3++6z/y1O3bgUFHDAPIFdPy3HznqvhcDhlO4Bx5ZwzU4d8h9GIO+X/2lX3LtX/5l537nd5w7cUIuJfsxBAwBQ8AQMAQMAUPAEDAEDAFDwBAwBAwBQ8AQMAQMAUPAEDAEDAFDwBAwBAwBQ8AQMAQMAUPAEDAEDAFDwBAwBAwBQ8AQMAQMAUPAEDAEDAFDwBAwBAwBQ8AQMAQMAUPAEDAEDAFDwBAwBAwBQ8AQMAQMAUPAEDAEDAFDwBAwBAwBQ8AQMAQMAUPAEDAEDAFDwBAwBAwBQ8AQMAQMAUPAEDAEDAFDwBAwBAwBQ8AQMAQMAUPAEDAEDAFDwBAwBAwBQ8AQMAQMAUPAEDAEDAFDwBAwBAwBQ8AQMAQMAUPAEDAEDAFDwBAwBAwBQ8AQMAQMAUPAEDAEDAFDwBAwBAwBQ8AQMAQMAUPAEDAEDAFDwBAwBAwBQ8AQMAQMAUPAEDAEDAFDwBAwBAwBQ8AQMAQMAUPAEDAEDAFDwBAwBAwBQ8AQMAQMAUPAEDAEDAFDwBAwBAwBQ8AQMAQMAUPAEDAEDAFDwBAwBAwBQ8AQMAQMAUPAEDAEDAFDwBAwBAwBQ8AQMAQMAUPAEDAEDAFDwBAwBAwBQ8AQMAQMAUPAEDAEDAFDwBAwBAwBQ8AQMAQMAUPAEDAEDAFDwBAwBAwBQ8AQMAQMAUPAEDAEDAFDwBAwBAwBQ8AQMAQMAUPAEDAEDAFDwBAwBAwBQ8AQMAQMAUPAEDAEDAFDwBAwBAwBQ8AQMAQMAUPAEDAEDAFDwBAwBAwBQ8AQMAQMAUPAEDAEDAFDwBAwBAwBQ8AQMAQMAUPAEDAEDAFDwBAwBAyBNzkC/x93n6sayu0iKAAAAABJRU5ErkJggg==;points=[[0,0,0,0,0],[0,0.25,0,0,0],[0,0.5,0,0,0],[0,0.75,0,0,0],[0,1,0,0,0],[0.25,0,0,0,0],[0.25,1,0,0,0],[0.5,0,0,0,0],[0.5,1,0,0,0],[0.75,0,0,0,0],[0.75,1,0,0,0],[1,0,0,0,0],[1,0.25,0,0,0],[1,0.5,0,0,0],[1,0.75,0,0,0],[1,1,0,0,0]];" parent="1" vertex="1">
          <mxGeometry x="650" y="180" width="80" height="80" as="geometry" />
        </mxCell>
        <mxCell id="aZDojnLO1apkLfUc8DjM-27" value="car-fleet-manager-py" style="text;html=1;align=center;verticalAlign=middle;whiteSpace=wrap;rounded=0;fontSize=30;" parent="1" vertex="1">
          <mxGeometry x="215" y="40" width="400" height="60" as="geometry" />
        </mxCell>
        <mxCell id="KasGoQqT-S-dptnp6_8q-3" value="frontend" style="shape=image;verticalLabelPosition=bottom;labelBackgroundColor=default;verticalAlign=top;aspect=fixed;imageAspect=0;image=data:image/png,iVBORw0KGgoAAAANSUhEUgAAAgAAAAIACAMAAADDpiTIAAABdFBMVEVMaXFg2/tg2/tg2/tg3/9g2/9g2/1g3/9g2/tg2ftg2/tg2ftg2f1g2/tg2ftg2/tg2/tg2ftg2/tg2ftg2/tg2/tg2/tg2ftg2f1g2/tg2/tg2/1g2/tg2/tg2/tg2ftg2ftg2/1g2f1c3f9g2/tg2/tg2ftA//9g2fti3/9e2/9g2ftc3f9i4/9e2/9g2ftU//9U6/9s2/9g2/9i2/9g2/tU4/9g2/ti3f9a2/9e2ftg2/tg2ftg3fte2/tm//9i2f9g2/ti2ftY2f9a4f9g3/9g2/1g2ftg2/1e2/tg2/tg2ftg2/tg2/tg2ftg2/1c2f9g2ftg2/tg2/te3ftg2fte3ftg2ftg3f9i3f1g2/tc2/9MaXFg2/tg2/tg2ftg2f9e2/te2/1m3f9g2ftg2ftg2/9g2/tg2ftm5/9e2/1g2/te2f9g2ftg2ftg2/ti2/tg2/9g2/ti3/9g2ftg2/tg2/tg2/tg2fte2ftg2/tg2/uxZDFtAAAAe3RSTlMA8e/BIDBgEECBodFQz99wv+GRsX6fPq9ebo9OyYl4t9mZWBa5OPMEqR4w+x4SIssCDAYyIt0IaCQcaunNSD4EDK08FBAYTHhceuuH9/mjVCDl1UQ6wzLtHEizKACn4XIoRmIOoWwU45sKToUavbX9RCqxJjSLqzb5ctN5OfQNAAAACXBIWXMAAAsTAAALEwEAmpwYAAAgAElEQVR42u1d+68sx1FeNfOU50WyvbM7Jw/bcYyjiXPBdh7EgEMgcSRHoCCQnR8gAYxFhOwJIgoR/c+jc+45Z6dnd3qqu6u7Z6e7INjkPs7MVHXVV189ercLEiRIkCBBggQJEiRIkCBBggQJEiRIkCBBggQJEiRIkCBBggQJEiRIkCBBggQJEiRIkCBBggQJEiRIkCBBggQJEiRIkCBBggRRkPRwOO2f5HiIbvU9osPx+TVOh0MaNLss8Yk27EKqpjvGN/Uax66pLt+joac46Hj+wBxbwgTS7O9u4TXu9o3oLUh7jIKur7j9Y8sA0p5W/fWiE+wtjiEcTD5cRxhUqm6lbjTuKvBLkC64gZH6KZOTcn1+IDqVki9Bgwk8On9Z9b+0geOa3uFYqrwDDYFgt9sVhKkJ2a/kCMnEr8krFOH4t0xD2sz9G2Rab9BE4fhrietIcKw0X4CcfNY/ZfpSHW9Y/X4jgbRhKOLKBFDUf+/FPLWAuGRY4sIEsNR/Hwa85IdjwhClsgwHswrz6VkR9K8tjUUTyBrkh/fPB6Dr/z4ptJRSRS3+s/tmAWnFDAjZ23j2PTHy7F5ZQFoyM2IeChSVoUcnPlFCLTMmZqm1qDH35KU/+q+ZSTEYB/ZGH7zzBgAys1IaCqdxafjBPUkG04qZlr0Bbi3dG39sT2AAZeYFHwxmlYXHbnzQfwY5Ck2eZw+S5Hmj5Hk7VCeQdkqxqMnz5OV75HkDyR4TDwxgUZ1lfeEJo4SWLpGAfPQvu+TyLerFv4Zsvy60kAGQfC4OpgWVZGDQ0gHJ6E9oMafHKCeeZwKR+APk4hOQdVKRGIcTkMv9l3qW01z857dOCFJdr13IYEiCEFMTGb9DAeBTHE82jgMj4fEHArJawg3ottvItCyXCfCHCZ1A5q0DkDitEuVYPSwogf5kytGJyGQ3zQERrA7pmNoIA3D3LznlIWqG3TIblCOCH/g4kWoYgLt/+SGf2EsXIHAAKscUbAJqYQDs/pVmvBIfXUCCnf5Ce3NUJnCg7l91xK/TBcNbIgHVc58MeEz3ePrB6kScBbKVfzmgjtMDntRWCggARxa0eIbIu0ywM+Pzlrg1BSAQw5iGXI9kyH2DgZWpXigYXIMDAZhT0SeaK79KQoVBj1cTRCAAqv2Q2iAo3mZVuDPJfsPyAZBvpfiQQhYVbzMGVGYhD2jSfHkOE9SxjrXYYa45hmxR/7HpbmgQcq9iBPjXosXo0qM8oDYf7yBIgAi/bUYM535AFLDFvpDGAuIF9W4kSvysmcmT1J8hkdQO3oFwAp0O+4fM01Jv6gGZpWgHceJUGf5XsaXPsr0ZkdwW3oVgwWsoDrKvrMVnaIgvIKCxl/HWKukgJP2rDTws9aU1kFh0dYDtE+UkyALYZDMT/HP86Nb0P1f6MsN6p7LqBJhMY+hRPWkPTyx7uk7KAgD6NxaUG3vhxqV0tptflit6ZwtYzhyIufJM7kc5oLGe7QBOdQKlfyqDDrnwAwVWNiEAGAgkMP0bXeWZ+lEPctH9BmjrTiD6p07Oxrb0P1MKbN2wT2MLSJxk/2NpfSgIFo4aoBPtnX7m73TIfSCDnb2k7kZSC/sbXR0Oq0KdublIa7VXaaEql7kJj6vIAm38aJ2tpHY2+fuQBzYOR2BS5bVklsiYygMDIE7fka5a/y7do2MawJqRJyr6T3bBAAwbgD2gm6xY/3Mp0pb0nznPdJL16n/OALLtG4DNCSg5QsDq9Q21twZg9RVlLMDu9R3Z9g1gFU4ObgGWr2/Jtt8Sso4oB7UA29f3ZNvnglcCc2B7BErb7Xj+GoD154DQwvYvck2DAazIAlxc5BsMwLm7dYu9gwHY8wCL4/9V8AABAwQD2KoBgLb/tcEAtmoAwLIwDQawTQMA3/xVBwPYogEkqywFBgNYof5tz+YGA7AgKy4HBwNYnf4tJ4PeGoC9YyZ/YbVFCwjVwFUQQO6SwWAAxqVlbMUW4EFDiOOmJ6Wrv+0lgx60hLl9xYQpShwMYAtOLlYfDbazsNXftnArMCfVGBC3kwrkayCjNpvpLiQACxtCWocGsNu+Adj4vHSp7FO7WQ+4nKN4YACNs9M1zvSo61TAh+FQV+PhCSTTp45TAZfLE2xJ42YXnrgC8HwthxAmmL/Ez+3yBJcGYNrLiSsAZ4gvBorGUwEfVsTMcHGG8+wS2v4rThUNc8KRD1vCnHAdFGtdvFldZD4YQO1gT2Atg+3EAyNGn7NYRVva9qjAWC67S5xxwh4wwS4MQAwAOzBMMQ8EOx8MwD7SbaRhHXUEBH3ggeYMwNwFmbn8eRYng+ZCcumFAVh+y0Jl/lOcDMabcY5rYoIMgauIKLV8C5NBU4ygo6sUNk0EiJ15oeg4DJ1JL2iA2aTcTE8QVR78q+2XhvPtt4QK7NzIN0004Dy1zgf5kQXOEd4m3Kowki8l9MLoYWRgzC46WlseaKDoLWSAlpFcRCzzQV5cGjafB+J/0VYzl4st80G2GZKV5YHooS7XZnMSq7sjMj9ogFnFYGc7GOeX2uSDEj+ywNkXReY7hAAA7FZLizAg96EYLDiayLGuRaHyhJwwMgxoPJgKEYEdZsPNSH/T2F5ZyJckYNavYqJAIQMgBd9qW90hqS8YcBZa1eZtTMVzUwwsoZ4E0A0aQG78VTtE7CZkBDvjX6XeoAFkpo9TgUriCsMJXtzy4u54YbRDgztC6K5Qxkms9AZUtgjSFUhl1tgbbJ/dWegNSK2VSFYgrdFwl4tRW3S4l7v9o7TNhbRPv3b38FsjMaZEYuoKfzCgYRS4eBMItsQmv0m9SQPIDLo7+UWQuoJzs0jjDwacR4GaXzI9HE77hlmXZn86HHStwAY9ulEUGB+O+33TVMyxkKbplE3BeGp8E1xgLqn4fdeUbIVCGro/HqR44tonDDj7usCU6nC3p+4PPGS3XNPtDwedxCjZqAHM1NiWFsXEd/u2IezWhDTt/m7BHxBvasFCyBOLVF+y25aG7mfDguKJuF1pwFlvdNjThm1HrpuBXkzcDhXEt4UdTt2WVM9ptuNjQutLP+AC8UnOuqcl27iQZv+cMhKLA0irpoJiP3Q/ohHb/WG+8SzdrAHMlVdKj3S//NbldvWvenWHX9Jt2ACSoN5lKTZsAFFQ77JEGzaAXRX0uwgQt6z/qAwKXsSGm/UAhy6cf5gJdNsrBqRHSoJmJeIAvduS4z+1QaXylOFGbCA+hbivLO0xvfWz71j75X3DN83vpcieRPDAz7+nePgz9P6Pu32F9i5oX7rolud1lmWYaDrKsizP8zLEAjjqc3ZwDN7yFDvDAzfWKJ65xPwmqdTcXV5wO7lhdKoMx/UccREATj3zQUXGAc3pFjiizFzK17R5/RDZRcscK7O4WRAEyl2aJXlrtJ2pXXkoSM0cftJ0+RjTib6x6S8kCAJPvY1pVuTGmlmrU7riyG9C9XWWShSVzRfTSyj6jIvcTGPrOhEh+uEv2zy7frWLuwCwEASuwY+oyNtq+24g2mPC/rKrBUbeOgwAC0Fg7senWY3c8kj2awKEMZ7vr9p6QYmZ0wAgDgLidr64ppi+gK4lL7zDCnRNXiybtWgTQGXHMcbLOHD+8bMcb8ytWQMYOKIZdafrgK3tVcg1WUg8j1kdN6N+YC9U5DwA7ISdbVQziNyWCRxx4S0kpjXOA8ACDsk0rfiGTOCInd0ATnCyggCwEw44QMY6auys8LgF9UNigIgCsDpPIXiQ2moEePp0tocJMiMUV6x+8GwGgJ1wLy3gXqo556FzpqxmBJEOii27rFY8xLGjIrAcHUVVI0Cxi2sN50BtUUPpXp2/apNIcASWYoDA7Vi/alcQBDK1CPBySj5K1Mupeyte8KTKY1S0WAqCsSoCJPa58VoVB0ZLniMtVPtpyMk8C1aqOv4Y8PE6VQToYqCyUcSBNeQdVG2gNMsPp2rz3RftTEoxQMABOtmqEyv6o7kjdOHw1GJBZ9AZFhWG9hVjgIg9cVMZ65RwYARHMamSDRhLCSOFp5lrZ63lv5wg83C0VUlQl8rkzeb6dshUJS9ojRyIQj4oNUkqeQyICvvqbKC6UMGBc1Yz67njTvrLE3wnkEof/yqPFAJhoZACuiuKKuDAWCWPlQ8FLTISyGSjf1uoJVFU+rC5XK0cyeNAuQhw/km5pAYq1GMhCf6rWpkOnftw1ZooAEhmMmeWRDYCnN2AJP2OVxyR3OsBa1ptpU6CgANyulpbgANjKU8GYjIjOXIAa9eIFPojOfCnJjJfQsABOV6sm0k+GNUz47SWiQQEJQzIMP8l/DjObQ296gtzvS4SNziwwI0ASpFAnxqWQf9yFUmJGCAYBXO+VTGSyk4TnQjw7HUae9mABPUvW41M4Ck0XScCXALIuS7ymTcBeD1erzgQE1PqF8SACE66a12w952/uvvZDz/88Ic/u/ur7+j4SAK3zgjNjuEtGUTDAsDwT6kAQaFevdFqwLsi3/vLL33lff5vev8rX/rX76n9bQk8FVRgwPVNQJ0WTIydfmFGROAksArK/dZ/fPFzxthw8T/s51/88FsqL1KCEWqFWs0GY4HEqP7VO5EI7HNUiG1A7371Hx6Vf/+/4/88/HeMlf/1rrlUMMYuZkBNQMkCYB6m0SAbOpBe5+2QyP7sH7/x8OeGy/P/aAYP//rGj2VfpAW6KIqfygA5eoqnHUTCOYZQAQIOSLIK/Ns/YlOFc+f/+V/ZP/2jmVSQmGhnyEFALTfh/4luHb4EYPscqRH8vb9+Ov1PFjD1AOd/Mvb795BKArVa4iuVhlADUQCif6qdg9fLX0TgAGRe6Udf/flY3U8hv380iZ6zigdA+NGP0FPBFhejjeJAiW0BiWnvv+A6YwASkSkCvPsvz7H/QcX3ij//n5EZjILEH/8O5YPly2+LQGbVBNUCCgMxRQo90eXoKpEC/umv/vB8uPuXun7U9vhfXprCCAr84YQQzUYuIDfZzxAB8gFwsrnM/2E1HydLX61FwLXpG2wC+/onlQ/Puu/Pf/OTQ2Ds93+LkApSMySAghOAcoJpaef4i2JnvcgBgZHzN1590n9/toJn5T97hCdccHYEA2OvfgOhKhjJ8V4GnUCZar4KfrMRFadPjb4NfvvVYWDjTP98wPszK9CPIMHZGAYJC4iWXEBrvp656ARAzNkSAYDabpgJI7zOCO6T/quR2x/GYb9nYxDIW0T/BBeHV7+tT5xEQMCrL/ESLQSwtgIzm1iWSnRsKu2nePu7zyTv4ynvGa/9cVY4AgDD0y/839vaqWAjgoC494Qutm8U6q+hXVuUo1AiUW4F/Wp/9uIZ/A88yjtr/lwI6HmK4PGPfuUdTVbjpTsjlloaF7aPLLrOFgNFYFABueLgzVg+aEaw70wAsGck0J+Tgp5NXcOTBXz5A01vdu8CEt1YBg8DRAcGFNglBWUqoBLwqw08LA/cgWaTBIADBM9AoeeiwQCGaYnAYBt7LW0LTdyFegAw0n83a3IJ0XUAP53k/WcIMDzH/zEMOAeGsyMYZDL1cr5BWzublQECpXIQaC3CvyXHSXQd0bc+ZmPunwP7131Af64KnBHiMDAC7BOZpy0qq03t4vIQVXkBgwMY8rewwE7Nn7x4xvL9SMsDT/YN07zw8deGUX1gYC+AQFB6dZapjyq0gEzp+Y0N4EhvTQQ6gA9HBOA4B+Dce88lg5w9DGMY8DUgAJN8FWLqowotoFFBgAYHsCQnX4G4+c/fHEbZ/DPk76/E+TP3wwWHcyrA2Jt/g3DyDHLqck+SyaYxZgfwCiMf7a2BO+L9hADor2A97tcmAYEacWcmN5sILKCSzWK02u818mcNBxBfNH6NCICRGxi4egCHFTnzGIC9olJz1GZ321HZ81xazf9VYWAiEVemReCLCD/+v4xjiqepAPtnXULYXCFYPhss5VKA0vD8lYzfBHZQf2d4LvH1lzFgmgj23I8YOYVRx1j/A3RrNr3aRjBSGct4DGJ8B1eL7gA+5XA/xwFcMIIjnqAf/QsPH8BuUMIFGN9tlcn49NSRo5KDgVAH0I+a+6b9P+OiQM93BY7QQs8m7SP4LsD8YGsu8bNrN0hFEgYm0BefYsDhbAT91bJgP24V7rl48GgawAObQl/Gxm6jBg7rS2vlKo1TA2VOq5EiB067ZxVPEOEEJbz0EsP5jw7sVe2akGpXq0ZpEAwDIxcMgDQMBH6zb14WgPrRAMAYD/Csz6gxnC8TPPiQGNWflTY+7PzRgl7HamkFD0V1AB27Du77kUkMI15gzBb3l7/lKYZ0qC7AznKr2YCUAIG4pSWMMarTrIZzHn9uCBpm8oELl9Azvlrw1E4KTtuqFeSAS9Y4hXbEqQOA1dEaiYAy5v8mIG8UB4ZzXOin1OCoGvDkICJEF2Btv3EFqkNlzlJAiW8GdQDJ8JzND6MKTz8+8D3XCzYwvh+4n/aIvfzvEzwXYG+5UQ36montcqXCNwN7Izqp/47D/8B1CXMNQpddgcMYPw5seA3PnO3tt51jphJIDcPiErYcL216ZeTw+wny55hhdlEM7C86hcY48Ct45mzxhoMOEoMa80MLuhQqHI6QaU2Xy/z5HtBh0g5wxgA941DD/X8IWkSzud+0gDwCcR0BljNBsAP4yUWlp+eqwRw25BpF2ThOsIt+goH9BMsFWN1wDwnv7lhgKBkEPzPZiO8d2LQh+Knt83Im7NwxxBUCRsFiyJBcgN0rLmbcOyAJyNfwnNJn5vXxuFc/JvaGi8Ygjh7iGgP7CS/88De9jgRq7W44z5fje7YCRyWuCUoEze8PjCsDnvcCTXFffzESMKofjMuET3/2+zh5rdXQCtLuKgxAeGgkHuXDcRFoGDWFDDwW7EfLgfg64TCFj0+e5Gs4b5PfigFY3sSc4KDmjy5SuIumkElJuL/IEq/VhAY2fITzNpZvuYuXDSBZhgluM0EZX/Qav/llGCd1nFIHDiMO40TxslD48I/XUBya9XuOl4HIOgwAvHFzwQAGfhB42gFyPtrDZRbYj6DiwPj1AQOSAVjfcb9sANkqXFWEFAKGaWPnuSjARstgBs7bXx0i4gfKBoYUApJVfNf1gcAcBwR+7UztTVIBvujPpqT/tDu0n0wOseFDHBBo+abLW8kChGSwhAuoBzZB+lyVj+sHnTaH97yNDIzfIYmUBlq+7Byg3djFQJAceSZDBA0TSHdZ5RuuNobym+P5isKDQyhQHIDtq84ARNBuDc9ZIVHBMafWUfgf74UbA8B+6g76K+qXLI7lqykGgqjguYagFTgqeReQPhN5/ZV5n2H6K1ypeJiWiIdxajCkKOHM9nW3kEpf4x4ELDWFwV3Ax2O096DwiynA0Rqw8bbwqxtlzpOl72M5AKuZYAz5nrnzhpDlznCJhpBRAyAP/PlZwMn0wJgU6NkERt7/83MsB2CVDaaQJ0icG+pyYzjYBXzKpfv87P+kDaC/nB+8WCF97h/4EpYDsJoJglrCMuY4D0gRm0JfH6Y5/jCuCE3aAIbzCecbwrlK4oOXKNAcgEUyKIF9TeLYUCHDYVAX8PZoDGC4+FsuEGI/+dWBgwjjgPHvDl7GVHJFgB44cfuYai7gFb7De+DHvrn18D1XAZjsihz4XqFX0OCMxX5L6GDI3O+rUqePqXZqPrrW59Pz/aEDjw3GQ8T9NeqIMXAlADbnRt2erAQag+3AVeAd1UAXEDOe9+kvGcCBKxENkzUBPGv8FAdiTAdgiQyqwQsCSpeuKgN+M+hE7avX0vpJ60/P8zx8gWDgC8EPlvEKqgOwc7Rmt8SUcFOxgVbA6/WgCyIGvsTHcbs8y9tfjAZxq6NH//wQ1wFYAdgSCyLmUxfzlgrfEgX8aL8eLvY/Dde2Al5LFTinMKKEh/eQjdlCTXD+8oBU5sGNE8ISm7WALuCtgV1pBuET/X6UCfSTnSC803j497dwo5mN1rBYCoHOH0Pja8IkNkUCXcDv+qnPv3ItDLtWFLqEBo/IIdZ0uvZhYCq3Jk7w6IYXBUrtigW6gDe4O2J7/n4ANuWKew4DXCQD9/J1dAdgPLhKLooU5eJmc1apbdHA8kQ2WgkwnQAb+PnfST14fPpHuwQyfAdgGAZKr4oVPbxJC5BcsAw8Nl8eJrfDXfYBsvHV0dNJAr5aNLQGnJlZGCi/LFrovgxaQCf30YAu4JM3L1o+hvEwwMD7h/PcwJUiYc/e/AQdzRiGgUodtq0TCyByHw1+YcQwDvADm9wdcK1LYJg0CveSVdFE8lXMwcBEiVGPXHDX0h8N+NU+eHGl94Mf9blYCzVc2w4ysOHFB0YcgDkYuFck1IXemJrJBeaQR6VriveXRvFs7qjs0/PTY3wNcDgPED38wseRrtsldmGg6qVRC3tujWSD8xeqNbrM1OsDX9Xp+d2/k06Afjo5fg4IQKw2n3eTxCoMpOoYSpzGlpG9h20EzwItT3w6Lu8O15aDc9UfvgvgDAGgE4G5wNNX9mBg2uhkHmJIjn518PypSURpKdAFvPP5tLjP+DrQxXL4aznA5+/oOoAqFd6RjMz/VlqJx9Ky85MlCFgJMSk0dP7oxcD4th8eEo5GhXvuBtHhvG/+xY+0HW8ivCMZ+YMSzSR6ictscYFAKfouVLul8u1XL489PwDYT3z/MGkF+y70+vgFc6V2YOASqQLAHPUSf4kZBmKhZ4z0Byve+8UwugeUXxowXMwHX/QODL94D/oqC8sNMhu11mips6rTc2WPH/9k3mDbZVgFlM9eTC6P4+4SmewI7Kdm8uIz6M9ZhKyVeX4lWeLUWj23fH4lNORCxJ5KUNAEP8Jvvjy9NWI6K8rtA+B2i3/xG2064/mI16anxNLFoho0j1+ea8ByAsVSYMwRiMkPPhoufftFx9DFFfM9Yx99AD98i6dOlO9gSLZIQ8JzuHiZnsdxAu1ix1qF0af0y4/5fV/TiwD6yZjAyzDx8W8l3qRadlXUJBWQAmrqEqQT4AIPDCeQLnesJSijNZ+8uLg8anr2x32CD//+4hOJH1ADPFVskAo4Yg+jQSo0pTZ+rQFnokR5oQ/qNwfuVvieTRcB9dz//+av3pGxZAJJVypwh64s+Ie0oUhGGlCNTrc8VAJ8VYbUT/PZp8Ml0TfdFPPsGz79TOovh2Urtea0w5z1gRoqpJEGyALI3kQdiADza0kS7d0v+H7Pgd8QPoIDX39X8kVEJDAg4mkxKydQP4UC4Qir01cacaADsRWI3crf/ILrC5leEPEY/L/+TSwsOz13rQ49M4P9YUN1SmQDsFOjUTaBCnYgcsTX+t/P2TQS9ON94L2C+kX3rsOyXuXt4RmwB1Ux04yJURMogCERaYXwk/z0rfcn+x+fSwXv/90vMQ358vkIaldABG1BVmYaoBbAqEomQ6GgGCcVHMn//Nt/vsLPiTD2F68df6D2t9Xwx+sQPXQEnUEjGlE6Ao5tq5gAgATATQUn8uvXP8wf5cO//28NEC4xfxPD33npbIJHEPV6OFL4oAOVNDTo6gphkLW+eFumdkbhia+kIWdwtZS6xVuJrn05LFBKxEO0VBBfYqkkRcLq5+VOYvwIoX0jkejbb47aEYDIMAb2V9pLVAFzvbg3992OMr3nKFveYpmfWJ1SvQhAJam21q3+E8no1OrFgKiTGaMhSM0mqdz0JgwPtlIZEXIqiCaC50p0kc+V0C+lCMwm7lpufAsQCVJJgn/+pFUucWAnW6lQjwHRXnLuCBUexaXcD6/2kZrr7OTZFoc4UNBBm0kmDQsx4E7u8Otx9JJReM6pHVUiQKzwrd3hwFKeoioUYoD04Udv3t6BWo4u0EAXY0UAIdxuXOk/ZwrIhEjGgPTYMOkvb2TiLO2kH4SVM0lBIu/OI5ReJ0yZrwKLuF25GJBRIv/VW1M+URYJPIaCFB4BIiXKzREf2ChFpQzeFhJ3lcIHr0yeh1rBHq/AgVSlN0aQcnUu9F8oAvAKZjRq2mesM3saolbpqQi9g0SAWrHsZmv1NtAexR6pA7y8qvZZY/5LFIqPRuhduuTNI3TQ7YICWEjp4iX3d0cVPzEjdi74yIni87H2GImQ8FJ3ZGaY9EaiAJasURQDomOr/HVZbgsLqeQD57wgno2ei1ps8foDdT9BpR6PZmPAoSvVP6xaV45lKPAIU0tVRkeQeDWrCQCLiDRmBqSxXRPJGvR3APTH5yshAwQBAJCTVuifrnJBhaCbACSOV6sgA0QBINFyH2rqT3ZuBNkEIr2jZ/E61pxphaJ4G+rHNgHYhFSrwr9jM6KaVowZA5yqH9cEKIjDEOBAa50BpW4RvtuM+nfyfSoiHqPZH1IN99s5DwCAgdXobo91Zppstw6JKGZIo6dY1X9mrgPAwgMcTi2e96fxbj2SqrOD1/EAPc36AgEOtBIESiUcejjREvEDkTzarUySkiFL1ezvrr0mdRoEclkKIDrsW+TMv0rS3Qolo8yANO3+LobW4cwHAVEAmLIx6eHUNQT9i9Bst1ZJ64qZkbLdH5+DQu0uCIgooIY79dSA6u9fsE53qxYzbmDkDu7toHQWBAQJ3EM9Kjqc9k1p7P1XfPhH1l+XzLBUzFEQEG1SLk1q/uXhj3Y3IlFXMVdiMgik7l6L3MTh50IBcfSpOicBwKw0Sbq7PSkc2UC33x8PhwPmyT8cDsf93pH+y9tx/Zc20DKXQpp72d/LvUm8FAGB9vx7Dg9/pnv4407f4Ka1//LwJC1hQTzVvuNYcNvSJtvQ/pMNVEGlMpj/JlHfAonalUGzIMffZbuNShRMYFn90W7DEuLAMpG1Zf1HQb/LsmUPkAT1LkuxYQPognqdUtnOZQYDll5iw7m3Lrer/7m9EPFul+WtRwCxpHU231yUbtYAZqaCn7bDplnebJ4ybLr6OcsnvoGAmX5KbkNaVOTNZnWf8IWomUpZvlkDmNHs5VBolOV0S2bQ0Dy7kt3N9DyGgCIAAAi/SURBVDY2mzWAeQhwnTXYgBmU7VXVP5LjM39oq/qPxRBAZAa3Bw1IQ/Mixj0Rty41AALMSpbleXML6WLVdHmRacXEZKMGQKEQQJRJZslaHULZ5Hkmd3hnUDHdqAFUiA4vzbI67xr3plA1TZ4XmZrXLryiglIzkOfBFBxgxSavsyxd5SdZqWQGkx77Dfs44wczj73NhpDcJO0R2zYAHKSOAYtuRlqj1i660KK8TybvpXi6KpI2F0Kffq14+K2RcBEAFltX+4QCK7Oljwa7wiqqXWORdZlHXUGp4XcVbQ1Qqa+ImlfwdhJ6VBDMdGggjR/wUmPSITtGtqcZKf1BgUYx4KLPLiXPVFra6dnxCAVS87YuUhpFeVp0nsYjFFiaj3aRyG3XCHpRDCfycWuLXKANvJsgZe5CViGx8Fk2yAXGVpofKAp0FyYU1Ipj3F5FOLHS/iTEbqWmUhAp4EV6bHsV4dzOiwqdN9V3I+hHM7dyMFYgjaWEt9YO30IggZ6fZVZC43qTAGvpJvj8Cn1Ii/64qS9pgDXSWwgDloGgMJU0sYKu8iMNiOx5OiGJu8QIis3HBDafiY1bmxHOLA5CFhpAkNpjAB6l86MaUNvkvDtlGFczewyAOA3YWjUgt2rnwhbBQtF3lFZ949byQLuRTkjlzUdyIXowdTlt7EceWNrFurFKP6fQbMzN7PqRB9p+S2Ewv54KCBMAgy659CIPtO7nqDScE/4Jg0/a+GAA9pGO+Dx3kqmDyUsIvMgDHUBdIaV3mdInFqYA1pAgOZLEwTKUQkalGbPOAC0857YKwk6sPGfgZFCYABru0POCCMidEN4UGtbFCaDhjCyyyJKvjQcy/FPFQPCcDIp/n/H7aH1gghqV5TCGGcHnky3WPzHenkc8MABX7ygeGqaASGFha5+j07FtHgiW3dFl/eeu3CPzwABaCz9ZvJ+6XiCNrYzotN4agJVMR3xxXSJ2EaWNMd18+wbgMtVNNXbLEStj2h5QgU65jkh5kxixM5/jrwFYekXl/UGJD1/Hh1dUvKmm2wUD2IiToyr6bx0fjzwYgK1UwF0C4LkB2JuBlk8F7OnfYwOw+ASyq0SJzQH9YAA2UgGyWv0HA1hfMmj33qZgAGtLBi23YwUDsCP12giAYACWBUgHWF/SFwxgVXSA/VacYABrogPKNBjAZg0AQAdUDhZ1BwOwJ9mSAbgowQQDWFEMKIMHCBjA9lOFaqAliUEFgdL2nt5QDralf7LGQkAwgLXp37oFZNsfD15D05NMOdCuBfjbE2jTxrP1loPr0BZuXqT7Qi0ap/N+KQ8SHYW+4MS1Aey2JI7LLkp94SdbT9cEAzAsSl3h9srCPoyHl7ZuC7gWfxT1zxi1QwpW3m4IseLldIZD7dDCPqyIaZ1lOpGG/hkrLdzbYPMqhbVRgeabb2PCtMQCIVD4sCYucfSSiab+GSOJo8PhxapY0/OX++VsfzlD3LsJjxu7O5S5SAMohO1JXCcDflwbNuOKTX5aAPxPYCyR0WQgZQ5TZOd5oEEUCOj+SKA8oUkoWPiQBc56Y3MoEAD/nuHdcqXQIBTMfcgCZ0uexuy8kzrVgGSRbsc3rikNMAQCAOFfZl28SSAwAwE2d3PozuYcNkCd06gelY6AwAwAIVvT/5ynM+FZTyokP6RkYKJATB1vqLImnS1LT1um5M4hf67BDwPEByJYlGthM56Q3r82VeSNGMF+3GJFE2pmJbKDrpfJX8GP7AB/GJkYpsw+Q+ZISguvGjUAFebybooLA5j4PGW+QID544VIsZwgtb9EN4AQRCw4Z3H1Bg1gjglAu5MLguIWcznQ+CAeFix9YQEEeBcL7xSQ4788+AnqICNI9MUcBKy2qP/ZBT0odHAEWv8DYvNAPaQtyhmtVrKmzG0iiOECQNEfmnHkoE6hk8EvUmzSAFJmCgXEEPAvgaxgjWT6ewQqryKAwLfq0V7pHqR+GQ4HtkmCdXpgMGdeRQDRgiadgHqE9X3KndcUdsEAORqgxjaaA4hcngYOzIBt/22KdTwndqUOYJr1bKq0JTn2dt4IOvWlEGQKYEe5aj7QrWEy3bJEuMPYYPWrpe0xdKaIqpjAPOtM0s0agCjFjo2pX3m+Cz5VKm8CMaq32oILkDylcPXrYGr4YBGVM2BBfNmyAxAAH7kokDVg9euxtjF8tLSRgIMJ89MBLKzqBZba06PEwK/ueK/McoHqBDy8QuIi2rQBCF0AKFfPpNY9IFAqUvOl9E7Xq9Bt639pW/defIYOndTtbxVKoTFqpH5md9DhLbeNAHbLbVdkP+cC0zsqOevdYn3MXO7nEno395OjPUGqV9yspItaLE8XNhAdqfSiD4JYUovlLx6lx4t4Fp2Wl9Xvti+QvjvSdPvDgxz3+0ZpyQtq694u7VSeoWz2++PL99h3DcR/ZR4YwK5h5oWgu9KssvDY1Af9a6/tsX78H51Abvyxq9QLA1Db2+ko+ushAUmJd55IZ/QztubOkVknUO+8EYNHqTKKoyKDAKb1R/+7yBQMIMaZdGNgsEw9MgBTQLC1QaTnJOh/nRZQWsqiYTMIkq4r2u2CBegFf4udVBk2FCDxzjtJyG0Ff5NQwEf9o/oAktuPoAmeCZTRzktJkbJB0rn5gFgm0KQ7T0X9Lg/Hpx/VBOjOY6nJDav/wQR0vRgpdl6LHrVWrmCGItNKCtt057sUyk6ArgQ7R8rUkO/H/xEJKNWGqnpNZydRcmRdOP6PR0gWDFbd6hLnqJZFAzQKmlfyooSutHEqluhZJnlQ/yQQJCAw1eSrJs2iGvQWbRKc/7Wvl7RCP9B0xS18tyIX9n+SoH2hG03oFTxVNTSJb+s1uuZKPLi113AWDrKszp+kyG42WkZZ8fwadZaFgx8kSJAgQYIECRIkSJAgQYIECRIkSJAgQYIECRIkSJAgQYIECRIkSJAgQYIECRIkSJAgQYIECRIkSJAgQYIECRIkSJAgQYIEUZL/B+9TZWEP0hxXAAAAAElFTkSuQmCC;" parent="1" vertex="1">
          <mxGeometry x="90" y="185" width="82" height="82" as="geometry" />
        </mxCell>
        <mxCell id="KasGoQqT-S-dptnp6_8q-4" style="edgeStyle=orthogonalEdgeStyle;rounded=0;orthogonalLoop=1;jettySize=auto;html=1;entryX=-0.029;entryY=0.586;entryDx=0;entryDy=0;entryPerimeter=0;" parent="1" source="KasGoQqT-S-dptnp6_8q-3" target="aZDojnLO1apkLfUc8DjM-1" edge="1">
          <mxGeometry relative="1" as="geometry" />
        </mxCell>
      </root>
    </mxGraphModel>
  </diagram>
</mxfile>
